<?xml version="1.0" encoding="utf-8"?>
<!-- Generator: Adobe Illustrator 24.2.3, SVG Export Plug-In . SVG Version: 6.00 Build 0)  -->
<svg version="1.1" id="图层_1" xmlns="http://www.w3.org/2000/svg" xmlns:xlink="http://www.w3.org/1999/xlink" x="0px" y="0px"
	 viewBox="0 0 32 32" enable-background="new 0 0 32 32" xml:space="preserve">
<g>
	<g>
		<g>
			<path d="M16,29c-3.69,0-11-9.12-11-15C5,7.93,9.93,3,16,3s11,4.93,11,11C27,19.88,19.69,29,16,29z M16,5c-4.96,0-9,4.04-9,9
				c0,5.26,6.85,13,9,13s9-7.74,9-13C25,9.04,20.96,5,16,5z"/>
		</g>
	</g>
	<g>
		<g>
			<path d="M16,18c-2.21,0-4-1.79-4-4s1.79-4,4-4s4,1.79,4,4S18.21,18,16,18z M16,12c-1.1,0-2,0.9-2,2s0.9,2,2,2s2-0.9,2-2
				S17.1,12,16,12z"/>
		</g>
	</g>
</g>
</svg>
