<?xml version="1.0" encoding="utf-8"?>
<!-- Generator: Adobe Illustrator 24.2.3, SVG Export Plug-In . SVG Version: 6.00 Build 0)  -->
<svg version="1.1" id="图层_1" xmlns="http://www.w3.org/2000/svg" xmlns:xlink="http://www.w3.org/1999/xlink" x="0px" y="0px"
	 viewBox="0 0 32 32" enable-background="new 0 0 32 32" xml:space="preserve">
<g>
	<g>
		<path d="M11,17h4v4c0,0.55,0.45,1,1,1s1-0.45,1-1v-4h4c0.55,0,1-0.45,1-1s-0.45-1-1-1h-4v-4c0-0.55-0.45-1-1-1s-1,0.45-1,1v4h-4
			c-0.55,0-1,0.45-1,1S10.45,17,11,17z"/>
	</g>
	<g>
		<path d="M27,4H5C4.45,4,4,4.45,4,5v22c0,0.55,0.45,1,1,1h22c0.55,0,1-0.45,1-1V5C28,4.45,27.55,4,27,4z M26,26H6V6h20V26z"/>
	</g>
</g>
</svg>
