<?xml version="1.0" encoding="utf-8"?>
<!-- Generator: Adobe Illustrator 24.2.3, SVG Export Plug-In . SVG Version: 6.00 Build 0)  -->
<svg version="1.1" id="图层_1" xmlns="http://www.w3.org/2000/svg" xmlns:xlink="http://www.w3.org/1999/xlink" x="0px" y="0px"
	 viewBox="0 0 32 32" enable-background="new 0 0 32 32" xml:space="preserve">
<g>
	<g>
		<path d="M16,2C8.28,2,2,8.28,2,16s6.28,14,14,14s14-6.28,14-14S23.72,2,16,2z M16,28C9.38,28,4,22.62,4,16S9.38,4,16,4
			s12,5.38,12,12S22.62,28,16,28z"/>
	</g>
	<g>
		<path d="M21,15h-4v-4c0-0.55-0.45-1-1-1s-1,0.45-1,1v4h-4c-0.55,0-1,0.45-1,1s0.45,1,1,1h4v4c0,0.55,0.45,1,1,1s1-0.45,1-1v-4h4
			c0.55,0,1-0.45,1-1S21.55,15,21,15z"/>
	</g>
</g>
</svg>
