<?xml version="1.0" encoding="utf-8"?>
<!-- Generator: Adobe Illustrator 24.2.3, SVG Export Plug-In . SVG Version: 6.00 Build 0)  -->
<svg version="1.1" id="图层_1" xmlns="http://www.w3.org/2000/svg" xmlns:xlink="http://www.w3.org/1999/xlink" x="0px" y="0px"
	 viewBox="0 0 32 32" enable-background="new 0 0 32 32" xml:space="preserve">
<g>
	<g>
		<g>
			<path d="M27,6H15c-0.55,0-1-0.45-1-1s0.45-1,1-1h12c0.55,0,1,0.45,1,1S27.55,6,27,6z"/>
		</g>
	</g>
	<g>
		<g>
			<path d="M27,13H5c-0.55,0-1-0.45-1-1s0.45-1,1-1h22c0.55,0,1,0.45,1,1S27.55,13,27,13z"/>
		</g>
	</g>
	<g>
		<g>
			<path d="M27,20H15c-0.55,0-1-0.45-1-1s0.45-1,1-1h12c0.55,0,1,0.45,1,1S27.55,20,27,20z"/>
		</g>
	</g>
	<g>
		<g>
			<path d="M27,27H5c-0.55,0-1-0.45-1-1s0.45-1,1-1h22c0.55,0,1,0.45,1,1S27.55,27,27,27z"/>
		</g>
	</g>
</g>
</svg>
