<?xml version="1.0" encoding="UTF-8"?>
<svg width="16px" height="16px" viewBox="0 0 16 16" version="1.1" xmlns="http://www.w3.org/2000/svg" xmlns:xlink="http://www.w3.org/1999/xlink">
    <title>zhifubao</title>
    <g id="页面-1" stroke="none" stroke-width="1" fill="none" fill-rule="evenodd">
        <g id="各个平台图标" transform="translate(-507.000000, -240.000000)">
            <g id="zhifubao" transform="translate(507.000000, 240.000000)">
                <rect id="矩形" fill="#000000" opacity="0" x="0" y="0" width="16" height="16"></rect>
                <path d="M14.0000011,9.84728256 L9.81835798,8.44109405 C9.81835798,8.44109405 10.1397292,7.96004535 10.4827618,7.01690995 C10.8258444,6.07370791 10.8749824,5.55578491 10.8749824,5.55578491 L8.16807902,5.53347371 L8.16807902,4.6089171 L11.4462591,4.5858061 L11.4462591,3.93218304 L8.16742918,3.93218304 L8.16742918,2.44438121 L6.56185594,2.44438121 L6.56185594,3.93224969 L3.50320541,3.93224969 L3.50320541,4.58587275 L6.56185594,4.56414474 L6.56185594,5.55578491 L4.1084571,5.55578491 L4.1084571,6.07364126 L9.15828639,6.07364126 C9.15828639,6.07364126 9.10268335,6.49392153 8.90909745,7.0168433 C8.71556154,7.53971508 8.51619372,7.99763613 8.51619372,7.99763613 C8.51619372,7.99763613 6.14510805,7.16777296 4.89566421,7.16777296 C3.64622037,7.16777296 2.12664272,7.66969988 1.97931215,9.12645932 C1.83268141,10.5824856 2.68715537,11.3711755 3.89097706,11.6614877 C5.09494871,11.9532995 6.20644302,11.6586051 7.17417256,11.1848212 C8.14205207,10.7117539 9.09171937,9.63631763 9.09171937,9.63631763 L13.9652918,12.0030873 C13.7664739,13.1578041 12.7644694,14.001164 11.5927565,14.000001 L3.40717894,14.000001 C2.07893774,14.0012973 1.00123515,12.9255444 1.00000106,11.5973534 L1.00000106,3.4072451 C0.998769085,2.07890416 2.07462213,1.0011851 3.40283001,1.00000103 L11.5928065,1.00000103 C12.9210477,0.998785691 13.998817,2.07457189 14.0000011,3.40279619 L14.0000011,9.84728256 L14.0000011,9.84728256 Z M7.90549336,9.03256568 C7.90549336,9.03256568 6.38416614,10.9531281 4.59165537,10.9531281 C2.79837812,10.9531281 2.42188704,10.0405685 2.42188704,9.38426277 C2.42188704,8.72875684 2.79467902,8.01553174 4.32047182,7.91240703 C5.84541482,7.80943228 7.90625984,9.03256568 7.90625984,9.03256568 L7.9054767,9.03256568 L7.90549336,9.03256568 Z" id="形状" fill="#02A9F1" fill-rule="nonzero"></path>
            </g>
        </g>
    </g>
</svg>