<?xml version="1.0" standalone="no"?><!DOCTYPE svg PUBLIC "-//W3C//DTD SVG 1.1//EN" "http://www.w3.org/Graphics/SVG/1.1/DTD/svg11.dtd"><svg t="1606897667460" class="icon" viewBox="0 0 1024 1024" version="1.1" xmlns="http://www.w3.org/2000/svg" p-id="4622" xmlns:xlink="http://www.w3.org/1999/xlink" width="200" height="200"><defs><style type="text/css"></style></defs><path d="M512.090316 997.085906C246.742635 997.085906 30.707356 781.231258 30.707356 515.702946S246.742635 34.319986 512.090316 34.319986 993.473276 250.355265 993.473276 515.702946 777.618628 997.085906 512.090316 997.085906z m0-935.309931C261.73505 61.775975 58.163345 265.528312 58.163345 515.702946S261.915682 969.629917 512.090316 969.629917 966.017287 765.87758 966.017287 515.702946 762.445581 61.775975 512.090316 61.775975z" fill="" p-id="4623"></path><path d="M512.090316 933.142353c-231.388957 0-419.606985-188.218028-419.606986-419.606985S280.701358 93.928382 512.090316 93.928382s419.606985 188.218028 419.606985 419.606986-188.218028 419.606985-419.606985 419.606985z m0-825.485976c-223.802434 0-405.878991 182.076557-405.878991 405.878991S288.287881 919.414359 512.090316 919.414359s405.878991-182.076557 405.878991-405.878991S735.89275 107.656377 512.090316 107.656377z" fill="" p-id="4624"></path><path d="M696.876345 494.027165c11.741048 0 17.521256 5.780208 17.521256 17.521256 0 4.696419-1.806315 9.031575-5.238314 12.282943-3.070736 3.431999-7.586523 5.418945-12.282942 5.238313H473.254542l-84.354912 140.892574c-0.541895 1.625684-0.541895 3.251367 0 4.87705 1.083789 1.264421 2.709473 2.167578 4.335156 2.167579h252.522843c1.806315 0.180632 3.431999-0.722526 4.335156-2.167579 0.903158-1.625684 0.722526-3.431999-0.361263-4.87705l-48.770506-79.839125c-5.599577-9.57347-3.61263-17.701887 5.780208-24.204622 4.154525-2.34821 9.031575-3.070736 13.547363-1.806315 4.515788 1.083789 8.309049 3.973893 10.476627 7.947786l49.13177 79.839125c8.128418 13.547363 8.309049 26.733463 0.361263 39.919563-7.405892 13.547363-18.966308 20.230729-34.681249 20.230728H393.415417c-15.895572 0-27.455989-6.683366-34.681249-20.230728-7.947786-13.1861-7.767155-26.552831 0.361263-39.919563l73.336391-122.829423h-91.399541c-9.57347-0.180632-17.340624-7.947786-17.521256-17.521256 0-11.741048 5.780208-17.521256 17.521256-17.521256h355.844064zM379.32616 387.815841c-9.57347-0.361263-17.159993-7.947786-17.521256-17.521256-0.180632-4.696419 1.806315-9.212207 5.238313-12.282943 3.251367-3.431999 7.586523-5.238314 12.282943-5.238313h279.256306c9.57347 0.180632 17.340624 7.947786 17.521256 17.521256 0 4.696419-1.806315 9.031575-5.238314 12.282942-3.070736 3.431999-7.586523 5.418945-12.282942 5.238314H379.32616z" fill="" p-id="4625"></path></svg>