<?xml version="1.0" encoding="utf-8"?>
<!-- Generator: Adobe Illustrator 24.2.3, SVG Export Plug-In . SVG Version: 6.00 Build 0)  -->
<svg version="1.1" id="图层_1" xmlns="http://www.w3.org/2000/svg" xmlns:xlink="http://www.w3.org/1999/xlink" x="0px" y="0px"
	 viewBox="0 0 32 32" enable-background="new 0 0 32 32" xml:space="preserve">
<g>
	<g>
		<g>
			<path d="M14,15H5c-0.55,0-1-0.45-1-1V5c0-0.55,0.45-1,1-1h9c0.55,0,1,0.45,1,1v9C15,14.55,14.55,15,14,15z M6,13h7V6H6V13z"/>
		</g>
	</g>
	<g>
		<g>
			<path d="M27,15h-9c-0.55,0-1-0.45-1-1V5c0-0.55,0.45-1,1-1h9c0.55,0,1,0.45,1,1v9C28,14.55,27.55,15,27,15z M19,13h7V6h-7V13z"/>
		</g>
	</g>
	<g>
		<g>
			<path d="M14,28H5c-0.55,0-1-0.45-1-1v-9c0-0.55,0.45-1,1-1h9c0.55,0,1,0.45,1,1v9C15,27.55,14.55,28,14,28z M6,26h7v-7H6V26z"/>
		</g>
	</g>
	<g>
		<g>
			<path d="M27,28h-9c-0.55,0-1-0.45-1-1v-9c0-0.55,0.45-1,1-1h9c0.55,0,1,0.45,1,1v9C28,27.55,27.55,28,27,28z M19,26h7v-7h-7V26z"
				/>
		</g>
	</g>
</g>
</svg>
