<?xml version="1.0" standalone="no"?><!DOCTYPE svg PUBLIC "-//W3C//DTD SVG 1.1//EN" "http://www.w3.org/Graphics/SVG/1.1/DTD/svg11.dtd"><svg t="1597125629880" class="icon" viewBox="0 0 1024 1024" version="1.1" xmlns="http://www.w3.org/2000/svg" p-id="2772" xmlns:xlink="http://www.w3.org/1999/xlink" width="200" height="200"><defs><style type="text/css"></style></defs><path d="M512 42.666667a256 256 0 0 1 128.042667 477.738666L640 597.333333h213.333333a85.333333 85.333333 0 0 1 85.333334 85.333334v149.333333H85.333333V682.666667a85.333333 85.333333 0 0 1 85.333334-85.333334h213.333333v-76.928a255.914667 255.914667 0 0 1-127.829333-212.138666L256 298.666667a256 256 0 0 1 256-256zM85.333333 896h853.333334a85.333333 85.333333 0 0 1-85.333334 85.333333H170.666667a85.333333 85.333333 0 0 1-85.333334-85.333333z" p-id="2773"></path></svg>