<svg xmlns="http://www.w3.org/2000/svg" viewBox="0 0 32 32"><title>权限管理</title><g id="图层_3" data-name="图层 3"><path class="cls-1" d="M14.68,18.67v2.66c-4.42,0-8,2.94-8,7.35H4C4,22.79,8.79,18.67,14.68,18.67ZM16,17.33a8,8,0,1,1,8-8A8,8,0,0,1,16,17.33Zm0-2.66a5.34,5.34,0,1,0-5.33-5.34A5.33,5.33,0,0,0,16,14.67Zm2.14,10.41a4.64,4.64,0,0,1,0-2.16l-1.33-.77,1.34-2.31,1.32.77a4.57,4.57,0,0,1,1.87-1.08V18H24v1.53a4.56,4.56,0,0,1,1.87,1.08l1.33-.77,1.33,2.31-1.32.77a4.64,4.64,0,0,1,0,2.16l1.32.76-1.33,2.31-1.33-.76A4.69,4.69,0,0,1,24,28.47V30H21.34V28.47a4.69,4.69,0,0,1-1.87-1.08l-1.32.76-1.34-2.31Zm4.54.92a2,2,0,1,0-2-2A2,2,0,0,0,22.68,26ZM16,20a1.34,1.34,0,1,1-1.33-1.33A1.33,1.33,0,0,1,16,20ZM6.68,28.68a1.34,1.34,0,1,1-1.33-1.33A1.34,1.34,0,0,1,6.68,28.68Z"/></g></svg>