<?xml version="1.0" standalone="no"?><!DOCTYPE svg PUBLIC "-//W3C//DTD SVG 1.1//EN" "http://www.w3.org/Graphics/SVG/1.1/DTD/svg11.dtd"><svg t="1606897828566" class="icon" viewBox="0 0 1024 1024" version="1.1" xmlns="http://www.w3.org/2000/svg" p-id="6292" xmlns:xlink="http://www.w3.org/1999/xlink" width="200" height="200"><defs><style type="text/css"></style></defs><path d="M512 512m-447.6 0a447.6 447.6 0 1 0 895.2 0 447.6 447.6 0 1 0-895.2 0Z" fill="#0077FD" p-id="6293"></path><path d="M558.95 636.29c-8.63-1.48-17.46-2.21-25.83-4.59-16.93-4.81-33.68-5.05-50.81-1.31-13.55 2.95-27.42 3.8-41.2 2.15-13.77-1.64-22.97-9.97-28.38-22.44-8.1-18.64-5.56-35.79 8.18-50.87 3.99-4.38 8.68-8.16 13.23-12 10.08-8.5 20.3-16.87 28.61-27.21 3.14-3.9 5.8-8.19 8.71-12.27 9.38-13.15 21.77-20.28 38.28-18.66 9.28 0.91 16.89 5.57 22.99 12.33 4.75 5.26 8.71 11.23 13.11 16.81 11.78 14.96 25.31 28.23 40.18 40.03 15.75 12.51 20.08 28.41 15.24 47.25-4.97 19.36-17.15 28.95-37.14 29.8-1.67 0.07-3.35 0.01-5.02 0.01-0.05 0.32-0.1 0.64-0.15 0.97z m-61.09-22.79v-85.59c-4.95 0-9.73-0.1-14.5 0.12-0.64 0.03-1.7 1.64-1.73 2.55-0.18 4.7-0.08 9.41-0.09 14.12v6.29c-5.46 0-10.38 0.16-15.28-0.04-5.69-0.23-10.7 1.61-15.33 4.62-11.01 7.18-16.04 20.32-13.14 34.05 3.11 14.72 14.38 23.88 29.39 23.88h30.68z m47.63-16c-6.11 0-11.94 0.28-17.72-0.11-3.1-0.21-4.63-2.79-4.64-6.07-0.02-11.83-0.05-23.66 0.03-35.49 0.02-2.25-0.51-3.22-2.99-3.05-3.55 0.24-7.13 0.29-10.67 0.08-2.81-0.16-3.55 0.83-3.52 3.57 0.13 12.67 0.06 25.34 0.06 38 0 10.08 8.55 18.84 18.7 18.93 11.83 0.1 23.66-0.03 35.49 0.07 2.45 0.02 3.25-0.7 3.22-3.21-0.12-11.31-0.05-22.61-0.05-33.92 0-6.91 0.05-13.82-0.07-20.73-0.01-0.88-0.87-2.47-1.37-2.49-5.39-0.18-10.79-0.11-16.47-0.11v44.53zM126.23 500.89h20.11c15.39 0 30.78-0.03 46.17 0.01 8.89 0.02 17.46 1.59 25.53 5.51 14.06 6.83 19.36 19.35 18.12 33.85-0.9 10.62-4.87 19.65-14.69 25.54 0.57 0.41 0.92 0.73 1.32 0.94 14.91 7.85 19.71 20.74 17.74 35.26-2.05 15.09-11.72 24.61-27.29 27.49-4.2 0.78-8.52 1.25-12.78 1.27-23.76 0.12-47.53 0.06-71.3 0.05-0.92 0-1.84-0.09-2.93-0.15V500.89z m28.2 77.74v27.8c0.43 0.18 0.62 0.32 0.81 0.32 14.42 0.02 28.85 0.32 43.26-0.07 7.76-0.21 13.12-6 13.57-13.11 0.46-7.32-3.6-12.56-11.42-14.53-1.39-0.35-2.89-0.39-4.35-0.4-12.86-0.03-25.71-0.02-38.57-0.02-1.03 0.01-2.06 0.01-3.3 0.01z m-0.14-25.98c0.44 0.21 0.62 0.36 0.8 0.36 14.13 0.03 28.26 0.27 42.38-0.01 7.92-0.16 12.91-6.75 12.72-15.68-0.16-7.07-4.74-11.08-12.95-11.33-0.42-0.01-0.84-0.02-1.26-0.02-12.87 0-25.75 0-38.62 0.01-1 0-1.99 0.11-3.07 0.17v26.5zM634.52 629.81v-94.2h3.3c12.98 0 25.96-0.06 38.95 0.05 2.26 0.02 3.39-0.68 4.14-2.79 1.01-2.83 2.35-5.55 3.73-8.73h-53.06v-18.68h123.8c0 5.59 0.09 11.11-0.13 16.62-0.02 0.6-1.87 1.61-2.87 1.62-12.35 0.11-24.71 0.22-37.06-0.02-3.52-0.07-5.42 0.78-6.12 4.35-0.47 2.42-1.49 4.73-2.4 7.51h45.16c0.08 1.44 0.19 2.55 0.19 3.67 0.01 26.28 0.02 52.56 0 78.83-0.01 8.62-3.33 11.91-12 11.92-34.02 0.01-68.05 0.01-102.07 0-1.14 0-2.27-0.09-3.56-0.15z m22.39-16.91c0.89 0.09 1.7 0.25 2.52 0.25 22.4 0.01 44.8 0.02 67.2 0 3.28 0 4.79-1.49 4.85-4.78 0.09-4.71-0.14-9.43 0.1-14.13 0.14-2.86-0.89-3.48-3.58-3.47-22.61 0.1-45.22 0.05-67.83 0.06-1.02 0-2.04 0.1-3.25 0.16-0.01 7.39-0.01 14.55-0.01 21.91z m74.19-60.71h-74.16v20.45h74.16v-20.45zM316.16 573.13c2.85-13.06-6.59-17.77-15.12-17.79-14.45-0.03-28.9-0.01-43.35-0.01h-3.55v-19.21c1.11-0.06 2.22-0.19 3.32-0.18 17.49 0.02 34.97 0 52.46 0.1 14.33 0.08 27.86 10.42 31.8 24.21 0.37 1.29 0.62 2.67 0.63 4.01 0.04 20.94 0.03 41.88 0.02 62.82 0 0.72-0.14 1.44-0.25 2.56h-3.41c-22.3 0-44.6 0.01-66.91 0-12.95-0.01-24.78-11.55-25.15-24.46-0.4-14.24 6.1-25.43 17.9-30.28a22.79 22.79 0 0 1 8.19-1.69c13.3-0.17 26.59-0.08 39.89-0.08h3.53z m0.17 38.25V591.4c-0.57-0.1-0.96-0.22-1.36-0.23-11.18-0.02-22.36-0.09-33.53 0.02-4.51 0.04-9.81 5.91-9.7 10.35 0.12 4.99 4.93 9.8 9.95 9.83 8.46 0.04 16.92 0.01 25.38 0.01h9.26zM789.88 520.86v108.67h-19.62v-124.3h3.64c16.02 0 32.04-0.11 48.06 0.09 3.33 0.04 4.28-1.01 3.9-4.08-0.19-1.54-0.03-3.12-0.03-4.94h22.42v9.19h48.47v15.38c-35.39-0.01-70.82-0.01-106.84-0.01z" fill="#FFFFFF" p-id="6294"></path><path d="M859.76 609.75c11.4 7.92 24.1 3.63 36.26 5.16v13.14c-0.58 0.08-1.27 0.27-1.96 0.27-9.52 0.02-19.06 0.31-28.57-0.09-6.69-0.28-12.78-3.08-18.26-6.86-1.67-1.15-2.83-1.18-4.47-0.27-11.7 6.42-24.03 9.99-37.57 8.56-3.81-0.4-7.71-0.06-11.85-0.06v-13.62c11.21-0.74 23.3 2.29 33.38-6.47-0.97-0.63-1.86-1.26-2.81-1.81-8.58-5-17.14-10.04-25.79-14.92-1.82-1.02-2.48-2.14-2.39-4.19 0.17-3.54 0.05-7.09 0.05-10.91h100.47c0 3.28 0.17 6.51-0.11 9.69-0.08 0.92-1.27 2-2.21 2.56-10.3 6-20.65 11.9-30.99 17.84-0.97 0.56-1.92 1.19-3.18 1.98z m-32.97-18.28c2.68 1.56 4.57 2.68 6.48 3.77 3.09 1.76 6.16 4.84 9.28 4.89 3.24 0.05 6.54-2.8 9.78-4.46 2.41-1.23 4.76-2.58 7.14-3.87-10.29-0.64-20.32-0.64-30.36-0.63-0.48-0.01-0.96 0.11-2.32 0.3zM563.09 498.88c0.57-4.13 0.99-9.88 2.21-15.46 2.24-10.26 7.83-17.96 18.79-19.81 11.22-1.89 21.21 0.68 28.57 10.15 6.99 9 8.42 19.45 7.33 30.31-0.56 5.55-1.54 11.23-3.5 16.41-3.55 9.37-11.18 13.78-21.01 14.14-4.14 0.15-8.41-0.02-12.46-0.84-11.14-2.26-17.73-10.12-18.96-22.02-0.39-3.75-0.57-7.5-0.97-12.88zM392.76 483.32c0.46-9.7 2.84-20.52 9.95-29.73 7.7-9.96 20.67-11.6 31.32-3.95 12.59 9.04 16.91 21.77 15.78 36.76-0.46 6.07-1.57 11.96-4.19 17.55-7.54 16.09-34.09 22-46.15 2.65-4.12-6.63-6.34-13.81-6.71-23.28zM518.55 435.37c0.43-17 8.1-29.58 21.73-38.75 5.75-3.87 11.72-3.62 17.77-0.32 14.47 7.9 21.77 25.91 16.82 41.99-2.44 7.91-6.29 15.05-12.39 20.78-7.76 7.28-16.75 9.47-26.92 6-9.97-3.4-14.42-11.16-16.11-20.93-0.53-2.99-0.63-6.03-0.9-8.77zM503.76 425.8c-0.22 11.63-2.92 22.42-11.28 31.03-9.27 9.55-21.87 9.5-30.99-0.23-9.26-9.88-11.79-22.09-10.93-35.15 0.52-8.03 2.75-15.64 7.43-22.32 5.22-7.46 11.89-12.3 21.59-11.28 5.02 0.53 9.13 2.93 12.57 6.44 8.58 8.74 11.42 19.65 11.61 31.51zM805.51 571.9v-26.43H793.4v-13.94c3.08 0 6.09-0.12 9.09 0.04 2.25 0.12 3.19-0.49 3.14-2.94-0.1-4.14 0.06-4.14 4.32-4.15h13.99v6.83h40.32c0.11-2.32 0.21-4.56 0.32-6.94h19.04c0.08 0.72 0.19 1.32 0.21 1.92 0.19 5.18 0.19 5.18 5.53 5.19h8.63v13.96h-14.16c0 5.01 0.01 9.69 0 14.38-0.03 8.08-4.06 12.09-12.17 12.09h-62.19c-1.14-0.01-2.27-0.01-3.96-0.01z m18.47-26.57v13.13c12.3 0 24.38 0.12 36.46-0.17 1.35-0.03 3.46-2.26 3.78-3.77 0.61-2.88 0.18-5.99 0.18-9.19h-40.42zM355.92 536.12h26.33c0.07 1.15 0.2 2.25 0.2 3.35 0.01 28.78-0.03 57.56 0.07 86.34 0.01 2.78-0.76 3.59-3.52 3.51-6.8-0.19-13.6-0.12-20.41-0.03-2.07 0.03-2.98-0.49-2.97-2.78 0.06-29.41 0.04-58.82 0.05-88.22 0.01-0.61 0.14-1.22 0.25-2.17zM382.18 525.17h-26.29v-23.35h26.29v23.35zM481.43 565.09v10c0 7.11-0.05 14.22 0.03 21.32 0.02 1.81-0.41 2.72-2.41 2.66-3.76-0.1-7.53 0.12-11.29-0.08-7.85-0.41-14.15-8.28-13.45-16.76 0.4-4.84 1.33-9.54 5.18-13.05 2.87-2.61 6-4.37 10.1-4.14 3.84 0.22 7.68 0.05 11.84 0.05z" fill="#FFFFFF" p-id="6295"></path></svg>