<svg xmlns="http://www.w3.org/2000/svg" viewBox="0 0 32 32"><title>基本信息_表单查询</title><g id="图层_3" data-name="图层 3"><path id="路径_1386" data-name="路径 1386" class="cls-1" d="M4,6.66A2.66,2.66,0,0,1,6.66,4H25.34A2.66,2.66,0,0,1,28,6.66V25.34A2.66,2.66,0,0,1,25.34,28H6.66A2.66,2.66,0,0,1,4,25.34Zm2.66,0V25.33H25.33V6.66Zm4,17.58a14.08,14.08,0,0,1-2.34-1.3A9.33,9.33,0,0,1,21.2,20.17a9.11,9.11,0,0,1,2.64,2.57,13.64,13.64,0,0,1-2.3,1.36,6.68,6.68,0,0,0-9.31-1.5,6.6,6.6,0,0,0-1.6,1.65ZM16,17.33a4.67,4.67,0,1,1,4.66-4.66A4.67,4.67,0,0,1,16,17.33Zm0-2.67a2,2,0,1,0-2-2A2,2,0,0,0,16,14.66Z"/></g></svg>