<svg id="图层_1" data-name="图层 1" xmlns="http://www.w3.org/2000/svg" viewBox="0 0 32 32"><title>浏览</title><g id="图层_3" data-name="图层 3"><path id="路径_1540" data-name="路径 1540" d="M16,5.25A13.9,13.9,0,0,1,29.85,16,13.9,13.9,0,0,1,16,26.65,13.87,13.87,0,0,1,2.06,16,13.87,13.87,0,0,1,16,5.25Zm0,19A11.41,11.41,0,0,0,27.23,16,11.43,11.43,0,0,0,16,7.64,11.4,11.4,0,0,0,4.68,16,11.39,11.39,0,0,0,16,24.27Zm0-3A5.56,5.56,0,0,1,10.18,16a5.57,5.57,0,0,1,5.73-5.4H16A5.57,5.57,0,0,1,21.73,16,5.57,5.57,0,0,1,16,21.3Zm0-2.37a3.1,3.1,0,0,0,3.21-3h0A3.09,3.09,0,0,0,16,13a3.1,3.1,0,0,0-3.21,3h0A3.09,3.09,0,0,0,16,19h0Z"/></g></svg>