<?xml version="1.0" standalone="no"?><!DOCTYPE svg PUBLIC "-//W3C//DTD SVG 1.1//EN" "http://www.w3.org/Graphics/SVG/1.1/DTD/svg11.dtd"><svg t="1595379791684" class="icon" viewBox="0 0 1024 1024" version="1.1" xmlns="http://www.w3.org/2000/svg" p-id="2188" xmlns:xlink="http://www.w3.org/1999/xlink" width="200" height="200"><defs><style type="text/css"></style></defs><path d="M923.648 1015.442H100.206a91.648 91.648 0 0 1-91.721-91.72V101.01a91.502 91.502 0 0 1 91.72-91.501H649.29a30.72 30.72 0 0 1 0 61.44H130.487a60.855 60.855 0 0 0-60.928 60.854v762.003a60.855 60.855 0 0 0 60.928 60.928h762.441a60.855 60.855 0 0 0 60.928-60.928V345.088a30.72 30.72 0 1 1 61.44 0v579.291a91.21 91.21 0 0 1-91.648 91.063z m-497.81-403.675a30.574 30.574 0 1 1-43.228-43.228L930.816 17.92a30.574 30.574 0 1 1 43.154 43.3L425.91 611.768z" p-id="2189" fill="#1296db"></path><path d="M923.648 1023.854H100.206A100.206 100.206 0 0 1 0.073 923.72v-822.71C0.22 45.86 44.91 1.096 100.206 1.096h549.083a39.131 39.131 0 1 1 0 78.263H130.414a52.443 52.443 0 0 0-52.444 52.443v762.003c0 28.964 23.48 52.443 52.517 52.516H893a52.368 52.368 0 0 0 37.084-15.36 52.81 52.81 0 0 0 15.36-37.156V345.088a39.131 39.131 0 0 1 78.262 0v579.291a99.913 99.913 0 0 1-100.059 99.475zM100.059 17.92c-45.787 0-82.944 37.23-83.017 83.09v822.784c0.073 46.007 37.303 83.237 83.31 83.31h823.37a83.09 83.09 0 0 0 83.163-82.798V345.015a22.309 22.309 0 0 0-44.544 0v548.864c0 18.359-7.315 35.986-20.188 49.006a68.754 68.754 0 0 1-49.079 20.333H130.487a69.486 69.486 0 0 1-69.34-69.34V131.804a69.266 69.266 0 0 1 69.267-69.339h518.948a22.309 22.309 0 1 0-0.146-44.544h-549.01z m304.202 611.328a39.058 39.058 0 0 1-27.575-66.706L924.818 11.995a38.985 38.985 0 1 1 55.077 55.223l-548.06 550.473c-7.314 7.315-17.261 11.484-27.574 11.557zM952.32 17.335a22.162 22.162 0 0 0-15.58 6.583L388.536 574.39a22.162 22.162 0 1 0 31.378 31.451L968.046 55.296a21.943 21.943 0 0 0 6.583-15.726 22.382 22.382 0 0 0-22.236-22.235z" p-id="2190" fill="#1296db"></path></svg>