<?xml version="1.0" encoding="utf-8"?>
<!-- Generator: Adobe Illustrator 24.2.3, SVG Export Plug-In . SVG Version: 6.00 Build 0)  -->
<svg version="1.1" id="图层_1" xmlns="http://www.w3.org/2000/svg" xmlns:xlink="http://www.w3.org/1999/xlink" x="0px" y="0px"
	 viewBox="0 0 32 32" enable-background="new 0 0 32 32" xml:space="preserve">
<g>
	<path d="M17.41,16l7.29-7.29c0.39-0.39,0.39-1.02,0-1.41s-1.02-0.39-1.41,0L16,14.59L8.71,7.29c-0.39-0.39-1.02-0.39-1.41,0
		s-0.39,1.02,0,1.41L14.59,16l-7.29,7.29c-0.39,0.39-0.39,1.02,0,1.41C7.49,24.9,7.74,25,8,25s0.51-0.1,0.71-0.29L16,17.41
		l7.29,7.29C23.49,24.9,23.74,25,24,25s0.51-0.1,0.71-0.29c0.39-0.39,0.39-1.02,0-1.41L17.41,16z"/>
</g>
</svg>
