<?xml version="1.0" standalone="no"?><!DOCTYPE svg PUBLIC "-//W3C//DTD SVG 1.1//EN" "http://www.w3.org/Graphics/SVG/1.1/DTD/svg11.dtd"><svg t="1606898761231" class="icon" viewBox="0 0 1024 1024" version="1.1" xmlns="http://www.w3.org/2000/svg" p-id="10888" xmlns:xlink="http://www.w3.org/1999/xlink" width="200" height="200"><defs><style type="text/css"></style></defs><path d="M513.6 7.2c-277.6 0-504 226.4-504 504s226.4 502.4 504 502.4 504-226.4 504-504S791.2 7.2 513.6 7.2z m0 974.4c-259.2 0-469.6-212-469.6-471.2s212-472 471.2-472 469.6 212 469.6 471.2-212 472-471.2 472z" p-id="10889"></path><path d="M879.2 456.8c9.6 0 17.6 2.4 25.6 6.4s15.2 9.6 20.8 16.8c5.6 7.2 10.4 15.2 12.8 24 3.2 9.6 4 19.2 4 29.6a128 128 0 0 1-4 31.2c-3.2 9.6-7.2 17.6-12.8 24-5.6 7.2-12.8 12.8-20.8 16.8s-16.8 6.4-25.6 6.4c-4.8 0-9.6-0.8-14.4-2.4-5.6-1.6-10.4-4-14.4-6.4 0 33.6-8.8 64.8-27.2 92.8-17.6 28-42.4 52-73.6 72-30.4 20-65.6 35.2-105.6 45.6-40.8 11.2-84 16.8-129.6 16.8S424 824 384 812.8c-40.8-11.2-76-26.4-105.6-45.6-31.2-20-56-44-73.6-72s-27.2-59.2-27.2-92.8c-4.8 2.4-9.6 4-14.4 6.4-5.6 1.6-10.4 2.4-14.4 2.4-9.6 0-17.6-2.4-26.4-6.4s-15.2-9.6-20.8-16.8c-5.6-7.2-10.4-15.2-12.8-24-3.2-9.6-4-20-4-31.2 0-10.4 1.6-20 4-29.6 3.2-9.6 7.2-17.6 12.8-24 5.6-7.2 12.8-12.8 20.8-16.8s16.8-6.4 26.4-6.4c4.8 0 9.6 0.8 16 2.4 5.6 1.6 11.2 4 15.2 8 4.8 3.2 8.8 7.2 12 11.2 3.2 4 7.2 8.8 10.4 14.4 9.6-20.8 20.8-40.8 35.2-60.8 14.4-20 31.2-37.6 49.6-53.6 18.4-17.6 39.2-32.8 61.6-45.6 22.4-13.6 45.6-24 70.4-32 13.6-4.8 26.4-10.4 37.6-18.4 11.2-7.2 20.8-16.8 28.8-27.2 8-9.6 14.4-19.2 20-30.4 4.8-11.2 8-22.4 9.6-33.6 0.8 11.2 4 23.2 9.6 33.6 4.8 11.2 12 20.8 20 30.4 8 10.4 17.6 19.2 28.8 27.2 11.2 7.2 23.2 13.6 37.6 18.4 24 8 47.2 18.4 69.6 32 21.6 13.6 42.4 28.8 60.8 45.6 20 16 36.8 34.4 51.2 53.6 14.4 20 26.4 40 35.2 60.8 2.4-5.6 5.6-10.4 9.6-14.4s8-8 12.8-11.2c4.8-3.2 9.6-6.4 14.4-8 3.2-0.8 8.8-1.6 14.4-1.6zM176 557.6c2.4-5.6 1.6-11.2-2.4-17.6-4-5.6-9.6-9.6-16.8-12-5.6-2.4-12-2.4-18.4 0-6.4 2.4-10.4 5.6-11.2 10.4-0.8 5.6 0 11.2 3.2 17.6 3.2 5.6 8.8 9.6 16 12 7.2 3.2 13.6 4 19.2 1.6s8.8-6.4 10.4-12z m337.6 233.6c36.8 0 72-4 104-12.8s60.8-20.8 84.8-35.2c24-15.2 43.2-32.8 56.8-52.8 13.6-20 20.8-43.2 20.8-68.8v-3.2-8-3.2c0-0.8-0.8-1.6-1.6-1.6v-1.6c0-4.8-0.8-9.6-2.4-15.2s-3.2-12-4-19.2c-2.4-5.6-4.8-11.2-7.2-17.6-2.4-5.6-4.8-10.4-7.2-13.6-7.2-10.4-15.2-20-24.8-28-9.6-8-20.8-15.2-32-20.8-10.4-5.6-22.4-10.4-35.2-13.6-13.6-3.2-27.2-5.6-40.8-5.6-11.2 0-22.4 0.8-32 3.2-9.6 2.4-19.2 5.6-28.8 8.8-9.6 3.2-18.4 8-27.2 12.8S520 505.6 513.6 512c-7.2-5.6-14.4-11.2-23.2-16.8s-17.6-9.6-27.2-12.8c-9.6-3.2-19.2-6.4-29.6-8.8-10.4-2.4-20.8-3.2-31.2-3.2-13.6 0-27.2 1.6-40.8 5.6-13.6 3.2-25.6 8-37.6 13.6-10.4 5.6-20.8 12.8-30.4 20.8-9.6 8-18.4 17.6-24.8 28-2.4 3.2-4.8 8-7.2 13.6-2.4 5.6-4.8 11.2-7.2 17.6-2.4 7.2-4 13.6-5.6 19.2s-1.6 11.2-1.6 15.2c-0.8 0-1.6 0.8-1.6 1.6v16.8c0 25.6 7.2 48 20.8 68.8 13.6 20 32.8 37.6 56.8 52.8 24 15.2 52.8 27.2 84.8 35.2 34.4 8 68.8 12 105.6 12zM359.2 566.4c0-5.6-1.6-10.4-4-12.8-3.2-3.2-6.4-4-9.6-4-4.8 0-8 1.6-10.4 4-2.4 3.2-3.2 7.2-3.2 12.8 0 4.8 0.8 8 3.2 11.2 2.4 3.2 5.6 4 10.4 4 3.2 0 6.4-1.6 9.6-4 3.2-3.2 4-7.2 4-11.2z m332.8 0c0-5.6-1.6-10.4-4-12.8-3.2-3.2-6.4-4-9.6-4s-6.4 1.6-9.6 4c-3.2 3.2-4 7.2-4 12.8 0 4.8 1.6 8 4 11.2 3.2 3.2 6.4 4 9.6 4s6.4-1.6 9.6-4c3.2-3.2 4-7.2 4-11.2z m188.8 1.6c7.2-2.4 12-6.4 15.2-12 3.2-5.6 4.8-11.2 3.2-17.6-2.4-4.8-6.4-8-12-10.4-5.6-2.4-11.2-2.4-17.6 0-7.2 2.4-12.8 6.4-16.8 12s-4.8 11.2-2.4 17.6c0.8 5.6 4.8 9.6 10.4 12 7.2 2.4 13.6 1.6 20-1.6z" p-id="10890"></path></svg>