<?xml version="1.0" encoding="utf-8"?>
<!-- Generator: Adobe Illustrator 24.2.3, SVG Export Plug-In . SVG Version: 6.00 Build 0)  -->
<svg version="1.1" id="图层_1" xmlns="http://www.w3.org/2000/svg" xmlns:xlink="http://www.w3.org/1999/xlink" x="0px" y="0px"
	 viewBox="0 0 32 32" enable-background="new 0 0 32 32" xml:space="preserve">
<g>
	<g>
		<path d="M24.04,29c-0.16,0-0.31-0.04-0.45-0.11L16,25.02l-7.59,3.87c-0.34,0.17-0.74,0.14-1.05-0.09
			c-0.31-0.23-0.46-0.6-0.39-0.98l1.44-8.15L2.3,13.9c-0.28-0.26-0.38-0.66-0.27-1.03c0.12-0.38,0.46-0.67,0.86-0.71l8.43-1.19
			l3.79-7.44c0.34-0.67,1.44-0.67,1.78,0l3.79,7.44l8.48,1.19c0.38,0.05,0.7,0.32,0.81,0.69c0.12,0.37,0.01,0.77-0.27,1.03
			l-6.12,5.78l1.44,8.15c0.07,0.37-0.08,0.75-0.39,0.98C24.46,28.93,24.25,29,24.04,29z M16,22.9c0.16,0,0.31,0.04,0.45,0.11
			l6.26,3.19l-1.19-6.7c-0.01-0.06-0.02-0.12-0.02-0.17c0-0.23,0.08-0.46,0.22-0.63c0.03-0.04,0.06-0.07,0.09-0.1l4.99-4.72
			l-6.94-0.98c-0.32-0.05-0.6-0.25-0.75-0.54L16,6.2l-3.13,6.15c-0.15,0.29-0.43,0.49-0.75,0.54l-6.94,0.98l5,4.72
			c0.03,0.03,0.07,0.07,0.09,0.1c0.14,0.18,0.22,0.41,0.22,0.63c0,0.06,0,0.12-0.02,0.17l-1.19,6.7l6.26-3.19
			C15.69,22.94,15.84,22.9,16,22.9z M22.51,19.31L22.51,19.31L22.51,19.31z"/>
	</g>
</g>
</svg>
