<?xml version="1.0" encoding="utf-8"?>
<!-- Generator: Adobe Illustrator 24.2.3, SVG Export Plug-In . SVG Version: 6.00 Build 0)  -->
<svg version="1.1" id="图层_1" xmlns="http://www.w3.org/2000/svg" xmlns:xlink="http://www.w3.org/1999/xlink" x="0px" y="0px"
	 viewBox="0 0 32 32" enable-background="new 0 0 32 32" xml:space="preserve">
<g>
	<g>
		<g>
			<path d="M28,24H4c-0.55,0-1-0.45-1-1V5c0-0.55,0.45-1,1-1h24c0.55,0,1,0.45,1,1v18C29,23.55,28.55,24,28,24z M5,22h22V6H5V22z"/>
		</g>
	</g>
	<g>
		<g>
			<path d="M20,28h-8c-0.55,0-1-0.45-1-1s0.45-1,1-1h8c0.55,0,1,0.45,1,1S20.55,28,20,28z"/>
		</g>
	</g>
</g>
</svg>
