<svg xmlns="http://www.w3.org/2000/svg" viewBox="0 0 32 32"><title>设置</title><g id="图层_3" data-name="图层 3"><g id="settings-4-line"><path id="路径_2" data-name="路径 2" class="cls-2" d="M2.79,16a13.15,13.15,0,0,1,.42-3.3A4,4,0,0,0,7.37,9,3.89,3.89,0,0,0,6.74,6.6a13.12,13.12,0,0,1,5.73-3.3,4,4,0,0,0,7.06,0,13.12,13.12,0,0,1,5.73,3.3,4,4,0,0,0,1.16,5.47,3.89,3.89,0,0,0,2.37.63,13.17,13.17,0,0,1,0,6.6A4,4,0,0,0,24.62,23a4,4,0,0,0,.64,2.38,13.32,13.32,0,0,1-5.73,3.3A4,4,0,0,0,14.2,27a3.91,3.91,0,0,0-1.73,1.73,13.32,13.32,0,0,1-5.73-3.3A4,4,0,0,0,3.21,19.3,13.15,13.15,0,0,1,2.79,16ZM9.14,20a6.57,6.57,0,0,1,.74,4.65,11.28,11.28,0,0,0,1.72,1,6.62,6.62,0,0,1,8.81,0,11.18,11.18,0,0,0,1.71-1A6.58,6.58,0,0,1,26.52,17a10.91,10.91,0,0,0,0-2,6.58,6.58,0,0,1-4.4-7.61,11.28,11.28,0,0,0-1.72-1,6.62,6.62,0,0,1-8.81,0,11.18,11.18,0,0,0-1.71,1A6.6,6.6,0,0,1,5.48,15a10.8,10.8,0,0,0,0,2,6.67,6.67,0,0,1,3.66,3ZM16,20A4,4,0,1,1,20,16,4,4,0,0,1,16,20Zm0-2.63A1.32,1.32,0,1,0,14.68,16,1.32,1.32,0,0,0,16,17.32Z"/></g></g></svg>