<?xml version="1.0" encoding="UTF-8"?>
<svg width="14px" height="14px" viewBox="0 0 14 14" version="1.1" xmlns="http://www.w3.org/2000/svg" xmlns:xlink="http://www.w3.org/1999/xlink">
    <title>内容管理</title>
    <path d="M13,3 L12,3 L12,2 C12,1.58065796 11.6870117,1.04885864 11,1.04885864 L3,1 L2,1 C1.58094495,1 1,1.52360316 1,2 L1,6 L1,11 C1,11.6225586 1.48165894,12 2,12 L3,12 L3,11 L2,11 C2.01548889,10.8785937 2.01548889,10.45047 2,10 L2,6 L2,2 C1.87513203,1.98283497 2.20846537,1.98283497 3,2 L10,2 C10.5066528,1.97425246 10.6888733,2 11,2 L11,3 L6,3 L5,3 L3.99655151,3 C3.38919067,3 3,3.45025635 3,3.98495483 L3,9 L3,13 C3,13.5547485 3.01402103,14 3.99655151,14 L13,14 C13.419055,14 14,13.4763819 14,13 L14,9 L14,4.03945923 C14,3.41540527 13.6368408,3 13,3 Z M13,13 C12.7014771,13 9.70147705,13 4,13 C4,12.7470703 4,11.413737 4,9 L4,4 C4.46177165,4 4.79510498,4 5,4 L13,4 C13,4.39774577 13,5.7310791 13,8 L13,13 Z M5,7 L11,7 C11,6.8572998 11,6.38760376 11,6 L5,6 C5,6.41384888 5,6.5 5,7 Z M5,9 L11,9 C11,8.8572998 11,8.38760376 11,8 L5,8 C5,8.41384888 5,8.5 5,9 Z M5,11 L12,11 C12,10.8572998 12,10.3876038 12,10 L5,10 C5,10.4138489 5,10.5 5,11 Z" id="形状"></path>
</svg>