<?xml version="1.0" encoding="utf-8"?>
<!-- Generator: Adobe Illustrator 24.2.3, SVG Export Plug-In . SVG Version: 6.00 Build 0)  -->
<svg version="1.1" id="图层_1" xmlns="http://www.w3.org/2000/svg" xmlns:xlink="http://www.w3.org/1999/xlink" x="0px" y="0px"
	 viewBox="0 0 32 32" enable-background="new 0 0 32 32" xml:space="preserve">
<g>
	<path d="M27,10h-5V5c0-0.55-0.45-1-1-1H5C4.45,4,4,4.45,4,5v16c0,0.55,0.45,1,1,1h5v5c0,0.55,0.45,1,1,1h16c0.55,0,1-0.45,1-1V11
		C28,10.45,27.55,10,27,10z M6,20V6h14v4h-9c-0.55,0-1,0.45-1,1v9H6z M26,26H12V12h14V26z"/>
</g>
</svg>
