<?xml version="1.0" encoding="utf-8"?>
<!-- Generator: Adobe Illustrator 23.0.1, SVG Export Plug-In . SVG Version: 6.00 Build 0)  -->
<svg version="1.1" id="图层_1" xmlns="http://www.w3.org/2000/svg" xmlns:xlink="http://www.w3.org/1999/xlink" x="0px" y="0px"
	 viewBox="0 0 16 16" style="enable-background:new 0 0 16 16;" xml:space="preserve">
<style type="text/css">
</style>
<path class="st0" d="M15,6.9c-1,1.1-3.7,1.9-6.7,1.9c-0.1,0-0.1,0-0.2,0c-0.1,0-0.1,0-0.2,0C4.7,8.8,2.1,8.1,1,6.9l0,0v2
	C2,10.2,4.7,11,7.8,11c0.1,0,0.1,0,0.2,0c0.1,0,0.1,0,0.2,0C11.3,11,14,10.2,15,9L15,6.9C15,7,15,7,15,6.9z M8.2,1C8.1,1,8.1,1,8,1
	C7.9,1,7.9,1,7.8,1C4.7,1,2,1.8,1,2.9v2c0,0,0,0,0,0c1,1.1,3.7,1.9,6.7,1.9c0.1,0,0.1,0,0.2,0c0.1,0,0.1,0,0.2,0
	c3.1,0,5.7-0.8,6.7-1.9c0,0,0,0,0,0v-2C14,1.8,11.3,1,8.2,1z M15,11c-1,1.1-3.7,1.9-6.7,1.9c-0.1,0-0.1,0-0.2,0c-0.1,0-0.1,0-0.2,0
	c-3.1,0-5.7-0.8-6.7-1.9c0,0,0,0,0,0v2C2,14.2,4.7,15,7.8,15c0.1,0,0.1,0,0.2,0c0.1,0,0.1,0,0.2,0c3.1,0,5.8-0.8,6.8-1.9L15,11
	C15,11,15,11,15,11z"/>
</svg>
