<?xml version="1.0" encoding="utf-8"?>
<!-- Generator: Adobe Illustrator 24.2.3, SVG Export Plug-In . SVG Version: 6.00 Build 0)  -->
<svg version="1.1" id="图层_1" xmlns="http://www.w3.org/2000/svg" xmlns:xlink="http://www.w3.org/1999/xlink" x="0px" y="0px"
	 viewBox="0 0 32 32" enable-background="new 0 0 32 32" xml:space="preserve">
<g>
	<path d="M28,6h-4V5c0-0.55-0.45-1-1-1s-1,0.45-1,1v1H10V5c0-0.55-0.45-1-1-1S8,4.45,8,5v1H4C3.45,6,3,6.45,3,7v20
		c0,0.55,0.45,1,1,1h24c0.55,0,1-0.45,1-1V7C29,6.45,28.55,6,28,6z M5,8h3v1c0,0.55,0.45,1,1,1s1-0.45,1-1V8h12v1c0,0.55,0.45,1,1,1
		s1-0.45,1-1V8h3v4H5V8z M5,26V14h22v12H5z"/>
</g>
</svg>
