<svg xmlns="http://www.w3.org/2000/svg" viewBox="0 0 32 32"><g id="图层_3" data-name="图层 3"><path class="cls-1" d="M22.67,8H28a1.33,1.33,0,0,1,1.33,1.33h0A1.33,1.33,0,0,1,28,10.67H26.67V28a1.33,1.33,0,0,1-1.34,1.33H6.67A1.33,1.33,0,0,1,5.33,28V10.67H4A1.33,1.33,0,0,1,2.67,9.33h0A1.33,1.33,0,0,1,4,8H9.33V4a1.33,1.33,0,0,1,1.34-1.33H21.33A1.33,1.33,0,0,1,22.67,4ZM24,10.67H8v16H24Zm-10.67,4h0A1.33,1.33,0,0,1,14.67,16v5.33a1.34,1.34,0,0,1-1.34,1.34h0A1.34,1.34,0,0,1,12,21.33V16A1.33,1.33,0,0,1,13.33,14.67Zm5.34,0h0A1.33,1.33,0,0,1,20,16v5.33a1.34,1.34,0,0,1-1.33,1.34h0a1.34,1.34,0,0,1-1.34-1.34V16A1.33,1.33,0,0,1,18.67,14.67ZM12,5.33V8h8V5.33Z"/></g></svg>