<?xml version="1.0" encoding="utf-8"?>
<!-- Generator: Adobe Illustrator 24.2.3, SVG Export Plug-In . SVG Version: 6.00 Build 0)  -->
<svg version="1.1" id="图层_1" xmlns="http://www.w3.org/2000/svg" xmlns:xlink="http://www.w3.org/1999/xlink" x="0px" y="0px"
	 viewBox="0 0 32 32" enable-background="new 0 0 32 32" xml:space="preserve">
<g>
	<g>
		<path d="M27,7H5C4.45,7,4,7.45,4,8s0.45,1,1,1h1.05L7,28.05C7.03,28.58,7.47,29,8,29h16c0.53,0,0.97-0.42,1-0.95L25.95,9H27
			c0.55,0,1-0.45,1-1S27.55,7,27,7z M23.05,27H8.95L8.05,9h15.9L23.05,27z"/>
	</g>
	<g>
		<path d="M14,5h4c0.55,0,1-0.45,1-1s-0.45-1-1-1h-4c-0.55,0-1,0.45-1,1S13.45,5,14,5z"/>
	</g>
</g>
</svg>
