<?xml version="1.0" encoding="utf-8"?>
<!-- Generator: Adobe Illustrator 24.2.3, SVG Export Plug-In . SVG Version: 6.00 Build 0)  -->
<svg version="1.1" id="图层_1" xmlns="http://www.w3.org/2000/svg" xmlns:xlink="http://www.w3.org/1999/xlink" x="0px" y="0px"
	 viewBox="0 0 32 32" enable-background="new 0 0 32 32" xml:space="preserve">
<g>
	<path d="M27,19h-3v-3c0-0.55-0.45-1-1-1h-6v-2h3c0.55,0,1-0.45,1-1V4c0-0.55-0.45-1-1-1h-8c-0.55,0-1,0.45-1,1v8c0,0.55,0.45,1,1,1
		h3v2H9c-0.55,0-1,0.45-1,1v3H5c-0.55,0-1,0.45-1,1v8c0,0.55,0.45,1,1,1h8c0.55,0,1-0.45,1-1v-8c0-0.55-0.45-1-1-1h-3v-2h12v2h-3
		c-0.55,0-1,0.45-1,1v8c0,0.55,0.45,1,1,1h8c0.55,0,1-0.45,1-1v-8C28,19.45,27.55,19,27,19z M13,5h6v6h-6V5z M12,27H6v-6h6V27z
		 M26,27h-6v-6h6V27z"/>
</g>
</svg>
