<?xml version="1.0" encoding="utf-8"?>
<!-- Generator: Adobe Illustrator 24.0.0, SVG Export Plug-In . SVG Version: 6.00 Build 0)  -->
<svg version="1.1" id="图层_1" xmlns="http://www.w3.org/2000/svg" xmlns:xlink="http://www.w3.org/1999/xlink" x="0px" y="0px"
	 viewBox="0 0 32 32" style="enable-background:new 0 0 32 32;" xml:space="preserve">
<style type="text/css">
</style>
<title>开发中心</title>
<g id="图层_3">
	<path class="st0" d="M4,4h24c0.7,0,1.3,0.6,1.3,1.3v21.3c0,0.7-0.6,1.3-1.3,1.3H4c-0.7,0-1.3-0.6-1.3-1.3V5.3C2.7,4.6,3.3,4,4,4z
		 M5.3,6.7v18.7h21.3V6.7H5.3z M25.7,15.1c0.5,0.5,0.5,1.4,0,1.9l-2.8,2.8c-0.5,0.5-1.4,0.5-1.9,0l0,0c-0.5-0.5-0.5-1.4,0-1.9
		l1.9-1.9L21,14.1c-0.5-0.5-0.5-1.4,0-1.9l0,0c0.5-0.5,1.4-0.5,1.9,0L25.7,15.1z M9.1,16l1.9,1.9c0.5,0.5,0.5,1.4,0,1.9l0,0
		c-0.5,0.5-1.4,0.5-1.9,0l-2.9-2.8c-0.5-0.5-0.5-1.3,0-1.9l2.9-2.8c0.5-0.5,1.4-0.5,1.9,0l0,0c0.5,0.5,0.5,1.4,0,1.9L9.1,16z
		 M14.1,22.7L14.1,22.7c-0.7,0-1.3-0.6-1.3-1.3c0-0.2,0-0.3,0.1-0.5l3.9-10.7c0.2-0.5,0.7-0.9,1.2-0.9l0,0c0.7,0,1.3,0.6,1.3,1.3
		c0,0.2,0,0.3-0.1,0.4l-3.9,10.7C15.1,22.3,14.6,22.7,14.1,22.7L14.1,22.7z"/>
</g>
</svg>