<?xml version="1.0" encoding="UTF-8"?>
<svg width="16px" height="16px" viewBox="0 0 16 16" version="1.1" xmlns="http://www.w3.org/2000/svg" xmlns:xlink="http://www.w3.org/1999/xlink">
    <title>dingding</title>
    <g id="页面-1" stroke="none" stroke-width="1" fill="none" fill-rule="evenodd">
        <g id="各个平台图标" transform="translate(-673.000000, -276.000000)">
            <g id="dingding" transform="translate(673.000000, 276.000000)">
                <rect id="矩形" fill="#000000" opacity="0" x="0" y="0" width="16" height="16"></rect>
                <path d="M8.0000485,1 C4.13391455,1 1,4.13391455 1,8.0000485 C1,11.8660855 4.13391455,15 8.0000485,15 C11.8660855,15 15,11.8660855 15,8.0000485 C15,4.13391455 11.8660855,1 8.0000485,1 Z M10.8775126,7.23739662 L10.8730627,7.24738506 C10.5618623,7.84638292 9.74979393,9.02168888 9.74979393,9.02168888 L9.74611423,9.01367347 L9.50897001,9.38588143 L10.6522461,9.38588143 L8.46805821,12 L8.96442488,10.2216885 L8.06421476,10.2216885 L8.3769042,9.04573512 C8.1242881,9.10045571 7.82489696,9.17576975 7.47075521,9.27849033 C7.47075521,9.27849033 6.99210248,9.53066751 6.09117354,8.79294137 C6.09117354,8.79294137 5.48357707,8.31062939 5.8363154,8.19058319 C5.98596818,8.13925373 6.56311723,8.07385105 7.01731275,8.01914587 C7.63225152,7.94446382 8.00937859,7.90444842 8.00937859,7.90444842 C8.00937859,7.90444842 6.11634958,7.92977403 5.66735699,7.86640604 C5.21831306,7.80305346 4.64859189,7.12798625 4.5270589,6.53496912 C4.5270589,6.53496912 4.33959928,6.20946634 4.93088524,6.36353179 C5.52215408,6.51767432 7.96938104,6.96391695 7.96938104,6.96391695 C7.96938104,6.96391695 4.78715421,6.08542784 4.57446721,5.8705994 C4.36256749,5.65717365 3.95138174,4.70062678 4.00472892,4.11366744 C4.00472892,4.11366744 4.02771425,3.96690834 4.19516654,4.00690832 C4.19516654,4.00690832 6.54829571,4.97415269 8.15684067,5.50443382 C9.76612156,6.03473037 11.1649575,6.30420234 10.984224,6.9905836 C10.9693683,7.04860285 10.9308597,7.13466063 10.8775126,7.23739662 Z" id="形状" fill="#3AA2EB" fill-rule="nonzero"></path>
            </g>
        </g>
    </g>
</svg>