<?xml version="1.0" encoding="utf-8"?>
<!-- Generator: Adobe Illustrator 24.2.3, SVG Export Plug-In . SVG Version: 6.00 Build 0)  -->
<svg version="1.1" id="图层_1" xmlns="http://www.w3.org/2000/svg" xmlns:xlink="http://www.w3.org/1999/xlink" x="0px" y="0px"
	 viewBox="0 0 32 32" enable-background="new 0 0 32 32" xml:space="preserve">
<g>
	<g>
		<g>
			<path d="M16,26C8.33,26,2,17.5,2,16S8.33,6,16,6s14,8.5,14,10S23.67,26,16,26z M4.07,16C4.88,17.52,10,24,16,24
				s11.12-6.48,11.93-8C27.12,14.48,22,8,16,8S4.88,14.48,4.07,16z M28.03,16.2h0.01H28.03z"/>
		</g>
	</g>
	<g>
		<g>
			<path d="M16,21c-2.76,0-5-2.24-5-5s2.24-5,5-5s5,2.24,5,5S18.76,21,16,21z M16,13c-1.65,0-3,1.35-3,3s1.35,3,3,3s3-1.35,3-3
				S17.65,13,16,13z"/>
		</g>
	</g>
</g>
</svg>
