<?xml version="1.0" encoding="utf-8"?>
<!-- Generator: Adobe Illustrator 24.2.3, SVG Export Plug-In . SVG Version: 6.00 Build 0)  -->
<svg version="1.1" id="图层_1" xmlns="http://www.w3.org/2000/svg" xmlns:xlink="http://www.w3.org/1999/xlink" x="0px" y="0px"
	 viewBox="0 0 32 32" enable-background="new 0 0 32 32" xml:space="preserve">
<g>
	<g>
		<path d="M15.29,23.71C15.49,23.9,15.74,24,16,24s0.51-0.1,0.71-0.29l4-4c0.39-0.39,0.39-1.02,0-1.41s-1.02-0.39-1.41,0L17,20.59V5
			c0-0.55-0.45-1-1-1s-1,0.45-1,1v15.59l-2.29-2.29c-0.39-0.39-1.02-0.39-1.41,0s-0.39,1.02,0,1.41L15.29,23.71z"/>
	</g>
	<g>
		<path d="M26,26H6c-0.55,0-1,0.45-1,1s0.45,1,1,1h20c0.55,0,1-0.45,1-1S26.55,26,26,26z"/>
	</g>
</g>
</svg>
