<?xml version="1.0" encoding="utf-8"?>
<!-- Generator: Adobe Illustrator 24.2.3, SVG Export Plug-In . SVG Version: 6.00 Build 0)  -->
<svg version="1.1" id="图层_1" xmlns="http://www.w3.org/2000/svg" xmlns:xlink="http://www.w3.org/1999/xlink" x="0px" y="0px"
	 viewBox="0 0 32 32" enable-background="new 0 0 32 32" xml:space="preserve">
<g>
	<g>
		<path d="M26.29,13.29L16,23.59L5.71,13.29c-0.39-0.39-1.02-0.39-1.41,0s-0.39,1.02,0,1.41l11,11C15.49,25.9,15.74,26,16,26
			s0.51-0.1,0.71-0.29l11-11c0.39-0.39,0.39-1.02,0-1.41S26.68,12.9,26.29,13.29z"/>
	</g>
	<g>
		<path d="M15.29,18.71C15.49,18.9,15.74,19,16,19s0.51-0.1,0.71-0.29l11-11c0.39-0.39,0.39-1.02,0-1.41s-1.02-0.39-1.41,0L16,16.59
			L5.71,6.29c-0.39-0.39-1.02-0.39-1.41,0s-0.39,1.02,0,1.41L15.29,18.71z"/>
	</g>
</g>
</svg>
