<svg xmlns="http://www.w3.org/2000/svg" viewBox="0 0 32 32"><title>图标参考线</title><g id="图层_3" data-name="图层 3"><path id="路径_1542" data-name="路径 1542" d="M5.4,25.29H26.72a1.34,1.34,0,0,1,1.34,1.34h0A1.34,1.34,0,0,1,26.72,28H5.4a1.34,1.34,0,0,1-1.34-1.33h0A1.34,1.34,0,0,1,5.4,25.29Zm12-7.77,7.16-7.16a1.34,1.34,0,0,1,1.89,0h0a1.34,1.34,0,0,1,0,1.89l-9.62,9.62a1,1,0,0,1-1.48,0L5.72,12.25a1.34,1.34,0,0,1,0-1.89h0a1.32,1.32,0,0,1,1.88,0l7.12,7.15V4a1.34,1.34,0,0,1,1.34-1.33h0A1.34,1.34,0,0,1,17.39,4Z"/></g></svg>