<?xml version="1.0" encoding="utf-8"?>
<!-- Generator: Adobe Illustrator 24.2.3, SVG Export Plug-In . SVG Version: 6.00 Build 0)  -->
<svg version="1.1" id="图层_1" xmlns="http://www.w3.org/2000/svg" xmlns:xlink="http://www.w3.org/1999/xlink" x="0px" y="0px"
	 viewBox="0 0 4 22" enable-background="new 0 0 4 22" xml:space="preserve">
<path d="M1,1H0V0h1V1z M1,3H0v1h1V3z M1,6H0v1h1V6z M1,9H0v1h1V9z M1,12H0v1h1V12z M1,15H0v1h1V15z M1,18H0v1h1V18z M1,21H0v1h1V21z
	 M4,0H3v1h1V0z M4,3H3v1h1V3z M4,6H3v1h1V6z M4,9H3v1h1V9z M4,12H3v1h1V12z M4,15H3v1h1V15z M4,18H3v1h1V18z M4,21H3v1h1V21z"/>
</svg>
