<?xml version="1.0" encoding="utf-8"?>
<!-- Generator: Adobe Illustrator 24.2.3, SVG Export Plug-In . SVG Version: 6.00 Build 0)  -->
<svg version="1.1" id="图层_1" xmlns="http://www.w3.org/2000/svg" xmlns:xlink="http://www.w3.org/1999/xlink" x="0px" y="0px"
	 viewBox="0 0 32 32" enable-background="new 0 0 32 32" xml:space="preserve">
<g>
	<g>
		<g>
			<path d="M27,28H5c-0.55,0-1-0.45-1-1V5c0-0.55,0.45-1,1-1h12c0.55,0,1,0.45,1,1s-0.45,1-1,1H6v20h20V15c0-0.55,0.45-1,1-1
				s1,0.45,1,1v12C28,27.55,27.55,28,27,28z"/>
		</g>
	</g>
	<g>
		<g>
			<path d="M11,22c-0.26,0-0.52-0.1-0.71-0.29c-0.25-0.25-0.35-0.61-0.26-0.95l1-4c0.04-0.18,0.13-0.34,0.26-0.46l12-12
				c0.39-0.39,1.02-0.39,1.41,0l3,3c0.39,0.39,0.39,1.02,0,1.41l-12,12c-0.13,0.13-0.29,0.22-0.46,0.26l-4,1
				C11.16,21.99,11.08,22,11,22z M15,20L15,20L15,20z M12.9,17.51l-0.53,2.11l2.11-0.53L25.59,8L24,6.41L12.9,17.51z"/>
		</g>
	</g>
</g>
</svg>
