<svg id="图层_1" data-name="图层 1" xmlns="http://www.w3.org/2000/svg" viewBox="0 0 144 130"><title>空</title><path id="椭圆_7_拷贝" data-name="椭圆 7 拷贝" d="M71.8,104.05c27.76,0,50.26,2.76,50.26,6.16s-22.5,6.16-50.26,6.16-50.25-2.75-50.25-6.16S44.05,104.05,71.8,104.05Z" style="fill:#e3effd;opacity:0.374000012874603;isolation:isolate"/><path id="形状_39" data-name="形状 39" d="M44.62,84.76a1.89,1.89,0,1,1,0-3.78H67.14a1.89,1.89,0,1,1,0,3.78Zm0-7.47a1.89,1.89,0,1,1,0-3.78H67.14a1.89,1.89,0,1,1,0,3.78Z"/><path id="形状_40" data-name="形状 40" d="M98.11,108.71H43a2.82,2.82,0,0,1-2.81-2.81V33.69A2.79,2.79,0,0,1,43,30.88H98.07a2.83,2.83,0,0,1,2.81,2.81h0v72.25a2.77,2.77,0,0,1-2.75,2.77Z" style="fill:#edf0f4"/><path id="形状_42" data-name="形状 42" d="M45.69,101.43V38.12A2.08,2.08,0,0,1,47.76,36H93.33a2.07,2.07,0,0,1,2.08,2.06v63.37a2.07,2.07,0,0,1-2.06,2.08H47.81a2.14,2.14,0,0,1-2.12-2.12Z" style="fill:#f5f7f8"/><path id="形状_41" data-name="形状 41" d="M58.48,39a1.89,1.89,0,0,1-1.89-1.88h0V30.07a1.9,1.9,0,0,1,1.89-1.89h7.28v-3a5.26,5.26,0,0,1,10.51,0v3h7.28a1.89,1.89,0,0,1,1.89,1.89v7A1.89,1.89,0,0,1,83.59,39ZM68,24.41a3,3,0,1,0,3.2-2.85H71A3,3,0,0,0,68,24.41Z" style="fill:#ffe7ba"/><rect id="矩形_2830" data-name="矩形 2830" x="56.63" y="36.27" width="28.81" height="2.85" style="fill:#ffdc9a"/><circle id="椭圆_260" data-name="椭圆 260" cx="61.02" cy="33.54" r="1" style="fill:#fdd07c"/><circle id="椭圆_261" data-name="椭圆 261" cx="81.32" cy="33.54" r="1" style="fill:#fdd07c"/><rect x="50.01" y="49.24" width="10.3" height="10.3" rx="2.26" style="fill:none;stroke:#b5d6f0;stroke-miterlimit:10;stroke-width:2px"/><rect x="49.25" y="64.94" width="41.01" height="4.85" style="fill:#dfe6f0"/><rect x="49.25" y="74.86" width="41.01" height="4.85" style="fill:#dfe6f0"/><rect x="49.25" y="84.5" width="41.01" height="4.85" style="fill:#dfe6f0"/><rect x="65.16" y="51.96" width="25.1" height="4.85" style="fill:#dfe6f0"/><path id="Fill_1" data-name="Fill 1" d="M28,77.38a4.2,4.2,0,1,1-4.2-4.2h0a4.23,4.23,0,0,1,4.2,4.2" style="fill:#7cadf2;opacity:0.120999999344349;isolation:isolate"/><path id="Fill_43" data-name="Fill 43" d="M35.4,86.87a1.8,1.8,0,1,1-1.8-1.8,1.79,1.79,0,0,1,1.8,1.8h0" style="fill:#7cadf2;opacity:0.120999999344349;isolation:isolate"/><path id="Fill_41" data-name="Fill 41" d="M106.23,60.39a1.79,1.79,0,0,1,2.53-.1h0a1.76,1.76,0,0,1,0,2.47,1.79,1.79,0,0,1-2.53.1h0a1.71,1.71,0,0,1-.08-2.41l.06-.06h0" style="fill:#d6eeff"/><path id="Fill_41-2" data-name="Fill 41" d="M35.29,48.44A1.79,1.79,0,0,1,35.34,51h0a1.76,1.76,0,0,1-2.47,0,1.8,1.8,0,0,1-.06-2.54h0a1.72,1.72,0,0,1,2.42,0l.06.06h0" style="fill:#d6eeff"/><path id="Fill_57" data-name="Fill 57" d="M116.31,41.34c-1.6,0-2.9,4-2.9,8.8,0-4.9-1.3-8.8-2.9-8.8,1.6,0,2.9-4,2.9-8.8,0,4.9,1.3,8.8,2.9,8.8" style="fill:#ffe7ba"/><path id="Fill_69" data-name="Fill 69" d="M122.89,45.08a1.3,1.3,0,1,1,.07,1.83,1.32,1.32,0,0,1-.07-1.83h0" style="fill:#7cadf2;opacity:0.120999999344349;isolation:isolate"/><path id="Fill_69-2" data-name="Fill 69" d="M26,63.16a1.3,1.3,0,1,1-1.83,0,1.31,1.31,0,0,1,1.83,0h0" style="fill:#7cadf2;opacity:0.120999999344349;isolation:isolate"/><path id="Fill_94" data-name="Fill 94" d="M111.59,25.68a3,3,0,1,0-.41,4.26h0a3,3,0,0,0,.5-4.15l-.09-.11" style="fill:#7cadf2;opacity:0.120999999344349;isolation:isolate"/><path d="M63.77,49.63a1.28,1.28,0,0,0-1.07-.25l-8,6.64h0l-3.3-2.55-.16,0a1.29,1.29,0,0,0-1.12,1.42V55l.08.09c.13.14,3.26,3.58,3.75,4.06l.07.06a1.29,1.29,0,0,0,.65.17,1.56,1.56,0,0,0,.7-.17l.07,0c.32-.31,7.79-7.5,8.55-8.27l.07-.08,0-.11A1.16,1.16,0,0,0,63.77,49.63Z" style="fill:#f4cd8e"/></svg>