<svg xmlns="http://www.w3.org/2000/svg" width="14" height="14" viewBox="0 0 14 14">
  <defs>
    <style>
      .cls-1 {
        fill: #666;
        fill-rule: evenodd;
      }
    </style>
  </defs>
  <path id="形状_1118" data-name="形状 1118" class="cls-1" d="M3648.35,77h2.31a0.545,0.545,0,0,0,0-1h-2.31A0.533,0.533,0,0,0,3648.35,77Zm0-2.015h2.31a0.545,0.545,0,0,0,0-1h-2.31A0.533,0.533,0,0,0,3648.35,74.982Zm0-1.975h2.31a0.545,0.545,0,0,0,0-1h-2.31a0.447,0.447,0,0,0-.35.5A0.435,0.435,0,0,0,3648.35,73.007Zm-3.77-.989h-3.15a0.484,0.484,0,0,0,0,.963h3.15A0.487,0.487,0,0,0,3644.58,72.018Zm0-3.01h-3.15a0.506,0.506,0,0,0,0,1h3.15a0.473,0.473,0,0,0,.43-0.5A0.48,0.48,0,0,0,3644.58,69.008Zm6.89,0.025h-4.56V67.51a1.488,1.488,0,0,0-1.46-1.51h-4.99a1.48,1.48,0,0,0-1.04.447,1.5,1.5,0,0,0-.42,1.063V79.623a0.355,0.355,0,0,0,.35.363h7.21a0.345,0.345,0,0,0,.34-0.363V69.747h4.57a0.81,0.81,0,0,1,.8.8v8.729h-4.1a0.359,0.359,0,0,0-.07.712V80h4.54a0.368,0.368,0,0,0,.36-0.363V70.545a1.527,1.527,0,0,0-1.53-1.511h0Zm-7.48,9.958h-2.07V75.862a0.2,0.2,0,0,1,.21-0.206h1.66a0.213,0.213,0,0,1,.22.206v3.129h-0.02Zm2.01,0h-1.32V75.862a0.88,0.88,0,0,0-.9-0.863h-1.66a0.889,0.889,0,0,0-.91.863v3.129H3640V67.756a0.743,0.743,0,0,1,.71-0.762h4.59a0.741,0.741,0,0,1,.7.762V78.992h0Z" transform="translate(-3639 -66)"/>
</svg>
