<?xml version="1.0" encoding="utf-8"?>
<!-- Generator: Adobe Illustrator 24.2.3, SVG Export Plug-In . SVG Version: 6.00 Build 0)  -->
<svg version="1.1" id="图层_1" xmlns="http://www.w3.org/2000/svg" xmlns:xlink="http://www.w3.org/1999/xlink" x="0px" y="0px"
	 viewBox="0 0 32 32" enable-background="new 0 0 32 32" xml:space="preserve">
<g>
	<g>
		<path d="M16,2C8.28,2,2,8.28,2,16s6.28,14,14,14s14-6.28,14-14S23.72,2,16,2z M16,28C9.38,28,4,22.62,4,16S9.38,4,16,4
			s12,5.38,12,12S22.62,28,16,28z"/>
	</g>
	<g>
		<path d="M20.71,11.29c-0.39-0.39-1.02-0.39-1.41,0L16,14.59l-3.29-3.29c-0.39-0.39-1.02-0.39-1.41,0s-0.39,1.02,0,1.41L14.59,16
			l-3.29,3.29c-0.39,0.39-0.39,1.02,0,1.41C11.49,20.9,11.74,21,12,21s0.51-0.1,0.71-0.29L16,17.41l3.29,3.29
			C19.49,20.9,19.74,21,20,21s0.51-0.1,0.71-0.29c0.39-0.39,0.39-1.02,0-1.41L17.41,16l3.29-3.29C21.1,12.32,21.1,11.68,20.71,11.29
			z"/>
	</g>
</g>
</svg>
