<?xml version="1.0" encoding="utf-8"?>
<!-- Generator: Adobe Illustrator 24.2.3, SVG Export Plug-In . SVG Version: 6.00 Build 0)  -->
<svg version="1.1" id="图层_1" xmlns="http://www.w3.org/2000/svg" xmlns:xlink="http://www.w3.org/1999/xlink" x="0px" y="0px"
	 viewBox="0 0 32 32" enable-background="new 0 0 32 32" xml:space="preserve">
<g>
	<path d="M16,2C8.27,2,2,8.27,2,16s6.27,14,14,14s14-6.27,14-14S23.73,2,16,2z M20.71,19.29c0.39,0.39,0.39,1.02,0,1.41
		C20.51,20.9,20.26,21,20,21s-0.51-0.1-0.71-0.29L16,17.41l-3.29,3.29C12.51,20.9,12.26,21,12,21s-0.51-0.1-0.71-0.29
		c-0.39-0.39-0.39-1.02,0-1.41L14.59,16l-3.29-3.29c-0.39-0.39-0.39-1.02,0-1.41s1.02-0.39,1.41,0L16,14.59l3.29-3.29
		c0.39-0.39,1.02-0.39,1.41,0s0.39,1.02,0,1.41L17.41,16L20.71,19.29z"/>
</g>
</svg>
