<?xml version="1.0" encoding="utf-8"?>
<!-- Generator: Adobe Illustrator 22.0.0, SVG Export Plug-In . SVG Version: 6.00 Build 0)  -->
<svg version="1.1" id="图层_1" xmlns="http://www.w3.org/2000/svg" xmlns:xlink="http://www.w3.org/1999/xlink" x="0px" y="0px"
	 viewBox="0 0 32 32" style="enable-background:new 0 0 32 32;" xml:space="preserve">
<path d="M16,24.3l-7.5,4.2C7.7,29,6.9,28.3,7,27.5L8.7,19l-6.3-5.8c-0.6-0.6-0.3-1.6,0.6-1.7l8.5-1l3.6-7.8c0.4-0.8,1.5-0.8,1.8,0
	l3.6,7.8l8.5,1c0.8,0.1,1.2,1.1,0.6,1.7L23.3,19l1.7,8.4c0.2,0.8-0.7,1.5-1.5,1.1L16,24.3z M16.1,21.4l4.6,2.6
	c0.4,0.2,0.8-0.1,0.7-0.5l-1-5.1c0-0.1,0-0.2,0.1-0.3l3.8-3.6c0.3-0.3,0.1-0.8-0.3-0.9l-5.2-0.6c-0.1,0-0.2-0.1-0.2-0.2L16.5,8
	c-0.2-0.4-0.7-0.4-0.9,0l-2.2,4.8c0,0.1-0.1,0.2-0.2,0.2l-5.2,0.6c-0.4,0.1-0.6,0.6-0.3,0.9l3.8,3.6c0.1,0.1,0.1,0.2,0.1,0.3l-1,5.1
	c-0.1,0.4,0.4,0.7,0.7,0.5l4.6-2.6C15.9,21.3,16.1,21.3,16.1,21.4z"/>
</svg>