<?xml version="1.0" encoding="UTF-8"?>
<svg width="16px" height="16px" viewBox="0 0 16 16" version="1.1" xmlns="http://www.w3.org/2000/svg" xmlns:xlink="http://www.w3.org/1999/xlink">
    <title>2.按钮Button/2.中80x36/2.次要按钮/6带图标</title>
    <defs>
        <path d="M8.5,2 C8.776,2 9,2.224 9,2.5 C9,2.776 8.776,3 8.5,3 L3,3 L3,13 L13,13 L13,7.5 C13,7.224 13.224,7 13.5,7 C13.776,7 14,7.224 14,7.5 L14,13.5 C14,13.776 13.776,14 13.5,14 L2.5,14 C2.224,14 2,13.776 2,13.5 L2,2.5 C2,2.224 2.224,2 2.5,2 L8.5,2 Z M12.3534,2.1466 L13.8534,3.6466 C14.0489,3.8416 14.0489,4.1581 13.8534,4.3536 L7.8534,10.3536 C7.7894,10.4176 7.7094,10.4631 7.6214,10.4851 L5.6214,10.9851 C5.5809,10.9951 5.5404,11.0001 5.4999,11.0001 C5.3689,11.0001 5.2414,10.9486 5.1464,10.8536 C5.0224,10.7291 4.9724,10.5491 5.0149,10.3786 L5.5149,8.3786 C5.5369,8.2906 5.5824,8.2106 5.6464,8.1466 L11.6464,2.1466 C11.8419,1.9511 12.1584,1.9511 12.3534,2.1466 Z M11.9999,3.2071 L6.4514,8.7556 L6.1874,9.8126 L7.2444,9.5486 L12.7929,4.0001 L11.9999,3.2071 Z" id="path-1"></path>
    </defs>
    <g id="页面-1" stroke="none" stroke-width="1" fill="none" fill-rule="evenodd">
        <g id="2.按钮Button/2.中80x36/2.次要按钮/6带图标">
            <g id="1.图标Iconography/1.线性/45编辑">
                <mask id="mask-2" fill="white">
                    <use xlink:href="#path-1"></use>
                </mask>
                <use id="形状结合" fill="#2F53EA" fill-rule="evenodd" xlink:href="#path-1"></use>
            </g>
        </g>
    </g>
</svg>