<?xml version="1.0" standalone="no"?><!DOCTYPE svg PUBLIC "-//W3C//DTD SVG 1.1//EN" "http://www.w3.org/Graphics/SVG/1.1/DTD/svg11.dtd"><svg t="1606898993202" class="icon" viewBox="0 0 1024 1024" version="1.1" xmlns="http://www.w3.org/2000/svg" p-id="12930" xmlns:xlink="http://www.w3.org/1999/xlink" width="200" height="200"><defs><style type="text/css"></style></defs><path d="M512 1024C229.226667 1024 0 794.773333 0 512S229.226667 0 512 0s512 229.226667 512 512-229.226667 512-512 512" fill="#006AFF" p-id="12931"></path><path d="M782.986667 253.568L219.413333 416.917333a10.272 10.272 0 0 0-4.394666 17.130667L337.770667 556.8l151.008 11.306667c4.970667 0.362667 9.856-1.450667 13.386666-4.970667L616.853333 448.426667a29.514667 29.514667 0 0 1-0.426666-42.144 29.386667 29.386667 0 0 1 20-8.618667c3.072-0.32 6.186667-0.213333 9.216 0.416h0.106666a4.821333 4.821333 0 0 0 1.813334-1.034667L789.632 265.6c4.917333-4.544 1.344-12.309333-4.693333-12.309333a7.477333 7.477333 0 0 0-1.952 0.266666" fill="#BDDAFF" p-id="12932"></path><path d="M784.949333 253.301333l0.981334 0.074667a7.221333 7.221333 0 0 1 4.810666 3.178667L337.770667 556.810667l151.04 11.306666 1.632 0.032c-0.554667 0.010667-1.109333 0-1.664-0.042666L337.770667 556.8 215.018667 434.058667l-0.853334-0.96a10.272 10.272 0 0 1 5.248-16.170667l563.573334-163.349333a7.477333 7.477333 0 0 1 1.962666-0.266667z" fill="#F2F7FF" p-id="12933"></path><path d="M648.384 845.888L811.733333 282.314667c1.92-7.146667-7.018667-12.074667-12.042666-6.645334L668.245333 417.728a4.864 4.864 0 0 0-1.034666 1.813333v0.106667c0.64 3.04 0.746667 6.144 0.426666 9.216a29.504 29.504 0 0 1-50.762666 19.573333L502.154667 563.146667c-3.52 3.52-5.333333 8.405333-4.970667 13.376l11.306667 151.008L631.253333 850.293333a10.272 10.272 0 0 0 17.130667-4.405333" fill="#CCE4FF" p-id="12934"></path><path d="M668.245333 417.728a4.885333 4.885333 0 0 0-1.194666 4.298667 29.504 29.504 0 0 1-5.514667 24c-0.181333 0.213333-0.394667 0.416-0.576 0.64-0.618667 0.746667-1.237333 1.504-1.941333 2.208a29.504 29.504 0 0 1-42.154667-0.426667l-0.277333 0.266667-114.421334 114.432c-3.52 3.52-5.333333 8.384-4.970666 13.344l11.306666 151.04L808.746667 274.56a6.933333 6.933333 0 0 0-9.056 1.109333l-3.914667 4.224-127.530667 137.834667z" fill="#8FC1FF" p-id="12935"></path></svg>