<?xml version="1.0" encoding="utf-8"?>
<!-- Generator: Adobe Illustrator 24.2.3, SVG Export Plug-In . SVG Version: 6.00 Build 0)  -->
<svg version="1.1" id="图层_1" xmlns="http://www.w3.org/2000/svg" xmlns:xlink="http://www.w3.org/1999/xlink" x="0px" y="0px"
	 viewBox="0 0 32 32" enable-background="new 0 0 32 32" xml:space="preserve">
<g>
	<path d="M26,12c0-5.51-4.49-10-10-10S6,6.49,6,12c0,5.18,3.95,9.45,9,9.95V24h-3c-0.55,0-1,0.45-1,1s0.45,1,1,1h3v3
		c0,0.55,0.45,1,1,1s1-0.45,1-1v-3h3c0.55,0,1-0.45,1-1s-0.45-1-1-1h-3v-2.05C22.05,21.45,26,17.18,26,12z M8,12c0-4.41,3.59-8,8-8
		s8,3.59,8,8s-3.59,8-8,8S8,16.41,8,12z"/>
</g>
</svg>
