<?xml version="1.0" encoding="utf-8"?>
<!-- Generator: Adobe Illustrator 24.2.3, SVG Export Plug-In . SVG Version: 6.00 Build 0)  -->
<svg version="1.1" id="图层_1" xmlns="http://www.w3.org/2000/svg" xmlns:xlink="http://www.w3.org/1999/xlink" x="0px" y="0px"
	 viewBox="0 0 32 32" enable-background="new 0 0 32 32" xml:space="preserve">
<g>
	<g>
		<g>
			<path d="M28,27H4c-0.55,0-1-0.45-1-1V6c0-0.27,0.11-0.52,0.29-0.71S3.73,5,4,5l0,0c6.09,0,6.4,0,6.66,0.25L12.85,7
				C15.13,7,28,7,28,7c0.55,0,1,0.45,1,1v18C29,26.55,28.55,27,28,27z M5,25h22V9C13.46,9,12.21,8.99,11.87,8.78l0,0L9.65,7
				C8.76,7,6.37,7,5,7V25z"/>
		</g>
	</g>
	<g>
		<g>
			<path d="M20,18h-8c-0.55,0-1-0.45-1-1s0.45-1,1-1h8c0.55,0,1,0.45,1,1S20.55,18,20,18z"/>
		</g>
	</g>
</g>
</svg>
