<?xml version="1.0" encoding="utf-8"?>
<!-- Generator: Adobe Illustrator 24.2.3, SVG Export Plug-In . SVG Version: 6.00 Build 0)  -->
<svg version="1.1" id="图层_1" xmlns="http://www.w3.org/2000/svg" xmlns:xlink="http://www.w3.org/1999/xlink" x="0px" y="0px"
	 viewBox="0 0 32 32" enable-background="new 0 0 32 32" xml:space="preserve">
<g>
	<g>
		<path d="M28,7c0,0-12.87,0-15.15,0l-2.18-1.74C10.4,5,10.09,5,4,5C3.73,5,3.48,5.11,3.29,5.29S3,5.73,3,6v20c0,0.55,0.45,1,1,1h24
			c0.55,0,1-0.45,1-1V8C29,7.45,28.55,7,28,7z M27,25H5V7c1.37,0,3.76,0,4.65,0l2.22,1.78l0,0C12.21,8.99,13.46,9,27,9V25z"/>
	</g>
	<g>
		<path d="M11,17c0,0.55,0.45,1,1,1h3v3c0,0.55,0.45,1,1,1s1-0.45,1-1v-3h3c0.55,0,1-0.45,1-1s-0.45-1-1-1h-3v-3c0-0.55-0.45-1-1-1
			s-1,0.45-1,1v3h-3C11.45,16,11,16.45,11,17z"/>
	</g>
</g>
</svg>
