<?xml version="1.0" encoding="utf-8"?>
<!-- Generator: Adobe Illustrator 24.2.3, SVG Export Plug-In . SVG Version: 6.00 Build 0)  -->
<svg version="1.1" id="图层_1" xmlns="http://www.w3.org/2000/svg" xmlns:xlink="http://www.w3.org/1999/xlink" x="0px" y="0px"
	 viewBox="0 0 32 32" enable-background="new 0 0 32 32" xml:space="preserve">
<g>
	<path d="M28.8,11.4C28.61,11.15,28.31,11,28,11h-3V8c0-0.55-0.45-1-1-1c0,0-9.24,0-11.15,0l-2.18-1.74C10.4,5,10.09,5,4,5
		C3.73,5,3.48,5.11,3.29,5.29S3,5.73,3,6v20c0,0.02,0.01,0.04,0.01,0.06c0,0.07,0.02,0.14,0.04,0.2c0.02,0.06,0.03,0.12,0.06,0.17
		c0.03,0.06,0.07,0.1,0.1,0.16c0.04,0.05,0.08,0.1,0.12,0.15c0.04,0.04,0.1,0.07,0.15,0.1c0.06,0.04,0.12,0.07,0.19,0.1
		c0.02,0.01,0.03,0.02,0.05,0.03c0.05,0.01,0.09,0,0.14,0.01C3.91,26.98,3.95,27,4,27h20c0,0,0,0,0,0c0.12,0,0.24-0.03,0.35-0.07
		c0.04-0.01,0.07-0.04,0.1-0.05c0.07-0.04,0.14-0.08,0.2-0.13c0.03-0.03,0.06-0.06,0.09-0.09c0.05-0.06,0.09-0.12,0.13-0.19
		c0.02-0.04,0.04-0.08,0.06-0.12c0.01-0.02,0.02-0.04,0.03-0.06l4-14C29.05,11.97,28.99,11.65,28.8,11.4z M9.65,7L11.9,8.8
		C12.16,8.99,12.17,9,23,9v2H8c-0.45,0-0.84,0.3-0.96,0.73L5,18.86V7C6.37,7,8.76,7,9.65,7z M23.25,25H5.33l3.43-12h17.92L23.25,25z
		"/>
</g>
</svg>
