<?xml version="1.0" encoding="utf-8"?>
<!-- Generator: Adobe Illustrator 24.2.3, SVG Export Plug-In . SVG Version: 6.00 Build 0)  -->
<svg version="1.1" id="图层_1" xmlns="http://www.w3.org/2000/svg" xmlns:xlink="http://www.w3.org/1999/xlink" x="0px" y="0px"
	 viewBox="0 0 32 32" enable-background="new 0 0 32 32" xml:space="preserve">
<g>
	<g>
		<path d="M19,29c-0.19,0-0.39-0.06-0.55-0.17l-6-4C12.17,24.65,12,24.33,12,24v-9.68L5.18,4.57c-0.21-0.31-0.24-0.7-0.07-1.04
			C5.29,3.21,5.63,3,6,3h20c0.37,0,0.71,0.21,0.89,0.54c0.17,0.33,0.15,0.73-0.07,1.04L20,14.32V28c0,0.37-0.2,0.71-0.53,0.88
			C19.32,28.96,19.16,29,19,29z M14,23.46l4,2.67V14c0-0.21,0.06-0.41,0.18-0.57L24.08,5H7.92l5.9,8.43C13.94,13.59,14,13.79,14,14
			V23.46z"/>
	</g>
</g>
</svg>
