<svg xmlns="http://www.w3.org/2000/svg" width="16" height="16" viewBox="0 0 16 16">
  <g id="中国国旗" transform="translate(-0.74 -0.15)">
    <path id="路径_1536" data-name="路径 1536" d="M.74,8.15a8,8,0,1,0,8-8A8,8,0,0,0,.74,8.15Z" transform="translate(0 0)" fill="#de2910"/>
    <path id="路径_1537" data-name="路径 1537" d="M137.66,190.023l.771,2.276h2.495l-2.021,1.479.748,2.258-1.991-1.342-1.993,1.342.748-2.258-2.006-1.479h2.495l.754-2.276Zm8.006,4.539.249.736h.81l-.657.481.244.731-.647-.433-.644.433.242-.731-.649-.481h.807l.244-.736h0Zm-.542-3.363.552.55.723-.356-.374.718.542.55-.769-.1-.387.675-.107-.761-.8-.143.725-.356-.109-.771Zm-2.637-1.927.733.265.5-.631-.033.812.72.267-.741.232-.064.774-.42-.644-.782.209.507-.631Zm0,8.006.733.267.5-.631-.033.812.72.267-.741.232-.064.776-.42-.647-.782.206.507-.631Z" transform="translate(-131.582 -185.803)" fill="#ffdc00"/>
  </g>
</svg>