<svg xmlns="http://www.w3.org/2000/svg" width="16" height="16" viewBox="0 0 16 16">
  <g id="英国" transform="translate(-32.768 -33.28)">
    <path id="路径_1532" data-name="路径 1532" d="M41.984,48.382a7.32,7.32,0,0,0,.316,1.146h.658l-.53.342a8.253,8.253,0,0,0,.7,1.335L45.71,49.52h1.863l-3.828,2.5c.111.128.222.257.342.376l3.538-2.31v4.431a7.043,7.043,0,0,0,.957.205V48.374Zm9.084,6.348a9.066,9.066,0,0,0,.957-.205V50.136l3.512,2.293a8.765,8.765,0,0,0,.974-1.2l-2.615-1.7H55.76l1.256.821c.068-.145.137-.291.2-.436l-.59-.385h.735a7.322,7.322,0,0,0,.316-1.146H51.068ZM48.59,38.912a8.629,8.629,0,0,0-.957.205v4.525l-3.6-2.344a8.48,8.48,0,0,0-.914,1.155l2.547,1.66H43.813l-1.188-.778c-.077.163-.154.334-.222.5l.419.274H42.3a7.32,7.32,0,0,0-.316,1.146H48.59Zm9.084,6.348a7.322,7.322,0,0,0-.316-1.146h-.6l.479-.308a7.628,7.628,0,0,0-.7-1.335l-2.521,1.651H52.153l3.786-2.472c-.111-.128-.222-.257-.342-.385l-3.564,2.327V39.117a7.043,7.043,0,0,0-.957-.205V45.26Z" transform="translate(-9.061 -5.537)" fill="#fff"/>
    <path id="路径_1533" data-name="路径 1533" d="M60.928,61.6c.043.12.085.231.137.342l.53-.342Zm.1-5.671c-.034.094-.068.18-.1.274h.521C61.449,56.2,61.031,55.93,61.031,55.93Zm13.182-2.583A8.017,8.017,0,0,0,70.65,51.2v4.473ZM66.259,51.2a8.07,8.07,0,0,0-3.6,2.181l3.6,2.344ZM62.722,64.475A7.978,7.978,0,0,0,66.259,66.6V62.165ZM75.981,56.2c-.034-.1-.077-.205-.12-.308l-.478.308ZM70.65,66.6a7.923,7.923,0,0,0,3.511-2.1L70.65,62.217Zm5.186-4.619c.051-.128.1-.257.145-.385h-.735Z" transform="translate(-27.686 -17.619)" fill="#002377"/>
    <path id="路径_1534" data-name="路径 1534" d="M42.007,49.193V42.845h6.607a7.957,7.957,0,0,0,0-3.114H42.007V33.374a7.766,7.766,0,0,0-1.188-.094h-.111a7.766,7.766,0,0,0-1.188.094v6.348h-6.6a7.957,7.957,0,0,0,0,3.114h6.607v6.348a7.765,7.765,0,0,0,1.188.094h.1a6.818,6.818,0,0,0,1.188-.086Z" transform="translate(0)" fill="#c2121f"/>
    <path id="路径_1535" data-name="路径 1535" d="M91.136,210.595l2.613,1.7a7.513,7.513,0,0,0,.5-.878L93,210.595H91.136Zm.128-5.379,2.528-1.645a9.2,9.2,0,0,0-.606-.818l-3.775,2.464Zm-8.335,0-2.553-1.662a8.194,8.194,0,0,0-.5.887l1.187.776Zm.034,5.379-2.579,1.671a8.086,8.086,0,0,0,.615.81l3.826-2.489Z" transform="translate(-46.312 -166.621)" fill="#c2121f"/>
  </g>
</svg>