<svg xmlns="http://www.w3.org/2000/svg" viewBox="0 0 32 32"><title>表单中心</title><g id="图层_3" data-name="图层 3"><path class="cls-1" d="M2.67,5.32A1.32,1.32,0,0,1,4,4H28a1.32,1.32,0,0,1,1.32,1.32V26.67A1.33,1.33,0,0,1,28,28H4a1.32,1.32,0,0,1-1.32-1.33Zm12,1.35H5.33V25.33h9.34Zm2.66,0V25.33h9.34V6.67ZM20,9.33h4a1.34,1.34,0,0,1,1.33,1.34h0A1.34,1.34,0,0,1,24,12H20a1.33,1.33,0,0,1-1.33-1.33h0A1.33,1.33,0,0,1,20,9.33Zm0,3.17h4a1.34,1.34,0,0,1,1.33,1.34h0A1.34,1.34,0,0,1,24,15.17H20a1.33,1.33,0,0,1-1.33-1.33h0A1.33,1.33,0,0,1,20,12.5Z"/></g></svg>