<?xml version="1.0" encoding="utf-8"?>
<!-- Generator: Adobe Illustrator 24.2.3, SVG Export Plug-In . SVG Version: 6.00 Build 0)  -->
<svg version="1.1" id="图层_1" xmlns="http://www.w3.org/2000/svg" xmlns:xlink="http://www.w3.org/1999/xlink" x="0px" y="0px"
	 viewBox="0 0 32 32" enable-background="new 0 0 32 32" xml:space="preserve">
<g>
	<g>
		<g>
			<path d="M9,28H5c-0.55,0-1-0.45-1-1v-4c0-0.55,0.45-1,1-1s1,0.45,1,1v3h3c0.55,0,1,0.45,1,1S9.55,28,9,28z"/>
		</g>
	</g>
	<g>
		<g>
			<path d="M5,10c-0.55,0-1-0.45-1-1V5c0-0.55,0.45-1,1-1h4c0.55,0,1,0.45,1,1S9.55,6,9,6H6v3C6,9.55,5.55,10,5,10z"/>
		</g>
	</g>
	<g>
		<g>
			<path d="M27,28h-4c-0.55,0-1-0.45-1-1s0.45-1,1-1h3v-3c0-0.55,0.45-1,1-1s1,0.45,1,1v4C28,27.55,27.55,28,27,28z"/>
		</g>
	</g>
	<g>
		<g>
			<path d="M27,10c-0.55,0-1-0.45-1-1V6h-3c-0.55,0-1-0.45-1-1s0.45-1,1-1h4c0.55,0,1,0.45,1,1v4C28,9.55,27.55,10,27,10z"/>
		</g>
	</g>
</g>
</svg>
