<?xml version="1.0" encoding="UTF-8"?>
<svg width="16px" height="16px" viewBox="0 0 16 16" version="1.1" xmlns="http://www.w3.org/2000/svg" xmlns:xlink="http://www.w3.org/1999/xlink">
    <title>gitee</title>
    <g id="页面-1" stroke="none" stroke-width="1" fill="none" fill-rule="evenodd">
        <g id="各个平台图标" transform="translate(-507.000000, -276.000000)">
            <g id="gitee" transform="translate(507.000000, 276.000000)">
                <rect id="矩形" fill="#000000" opacity="0" x="0" y="0" width="16" height="16"></rect>
                <path d="M8,15 C4.1339,15 1,11.8661 1,8 C1,4.1339 4.1339,1 8,1 C11.8661,1 15,4.1339 15,8 C15,11.8661 11.8661,15 8,15 Z M11.54305,7.2223 L7.5681,7.2223 C7.37711993,7.2223 7.2223,7.37711993 7.2223,7.5681 L7.22195,8.43225 C7.22195,8.623 7.37665,8.77805 7.5674,8.77805 L9.98765,8.77805 C10.17875,8.77805 10.33345,8.93275 10.33345,9.1235 L10.33345,9.2964 C10.33345,9.8691469 9.8691469,10.33345 9.2964,10.33345 L6.012,10.33345 C5.82115663,10.3332568 5.6665499,10.1784935 5.66655,9.98765 L5.66655,6.70395 C5.66654997,6.13133976 6.13063979,5.66709325 6.70325,5.6669 L11.54235,5.6669 C11.7331934,5.66670684 11.8878001,5.51194347 11.8878,5.3211 L11.88885,4.45695 C11.88885,4.26610653 11.7342434,4.11134316 11.5434,4.11115 L6.70325,4.11115 C6.01562887,4.11115 5.35617602,4.38433038 4.86998727,4.87058476 C4.38379852,5.35683915 4.11070717,6.01632887 4.11079998,6.70395 L4.11079998,11.54305 C4.11079998,11.73415 4.2655,11.88885 4.4566,11.88885 L9.5554,11.88885 C10.8439355,11.88885 11.8885,10.8442855 11.8885,9.55575 L11.8885,7.56775 C11.8883068,7.37690663 11.7335435,7.2222999 11.5427,7.2223 L11.54305,7.2223 Z" id="形状" fill="#C71D23" fill-rule="nonzero"></path>
            </g>
        </g>
    </g>
</svg>
