<?xml version="1.0" standalone="no"?><!DOCTYPE svg PUBLIC "-//W3C//DTD SVG 1.1//EN" "http://www.w3.org/Graphics/SVG/1.1/DTD/svg11.dtd"><svg t="1606899302938" class="icon" viewBox="0 0 1024 1024" version="1.1" xmlns="http://www.w3.org/2000/svg" p-id="16801" xmlns:xlink="http://www.w3.org/1999/xlink" width="200" height="200"><defs><style type="text/css"></style></defs><path d="M512 512m-512 0a512 512 0 1 0 1024 0 512 512 0 1 0-1024 0Z" fill="#E8F0FF" p-id="16802"></path><path d="M728.64 464.48l-51.936-173.312a8.96 8.96 0 0 0-8.448-6.72 8.96 8.96 0 0 0-8.448 6.72l-51.904 173.28h-172.16l-51.904-173.28a8.704 8.704 0 0 0-16.96-0.064l-51.872 173.312-26.144 87.552a20.512 20.512 0 0 0 6.432 21.664l226.528 178.72 226.528-178.688a20.448 20.448 0 0 0 6.4-21.696l-26.144-87.488z" fill="#3852B5" p-id="16803"></path></svg>