<?xml version="1.0" standalone="no"?><!DOCTYPE svg PUBLIC "-//W3C//DTD SVG 1.1//EN" "http://www.w3.org/Graphics/SVG/1.1/DTD/svg11.dtd"><svg t="1606893170962" class="icon" viewBox="0 0 1024 1024" version="1.1" xmlns="http://www.w3.org/2000/svg" p-id="2197" xmlns:xlink="http://www.w3.org/1999/xlink" width="200" height="200"><defs><style type="text/css"></style></defs><path d="M0.262115 512.056826c0.102389 282.080689 228.838599 510.663316 510.919288 510.612122 282.080689-0.051194 510.765705-228.838599 510.714511-510.919288 0-282.080689-228.73621-510.714511-510.8169-510.714511A510.816899 510.816899 0 0 0 0.262115 512.056826z" fill="#FFFFFF" p-id="2198"></path><path d="M257.923115 446.067351L111.712144 192.962645a510.509733 510.509733 0 0 1 838.92128 57.542413h-416.721744a263.650735 263.650735 0 0 0-275.937371 195.562293h-0.051194z" fill="#DD4E41" p-id="2199"></path><path d="M693.842728 324.532041h293.343438a504.468804 504.468804 0 0 1 34.709748 186.39851 510.560928 510.560928 0 0 1-505.185525 510.868093l209.28237-361.89263a260.835047 260.835047 0 0 0-31.996449-335.322779h-0.153582z" fill="#FFCD41" p-id="2200"></path><path d="M325.550808 512.056826a185.528206 185.528206 0 1 1 371.056413-0.409555A185.528206 185.528206 0 0 1 325.550808 512.056826z" fill="#4C8BF5" p-id="2201"></path><path d="M581.420006 764.08645L435.209036 1018.163848a511.943174 511.943174 0 0 1-435.151698-505.287913 504.059249 504.059249 0 0 1 66.143058-250.493795l208.360872 360.049634a262.985209 262.985209 0 0 0 236.517746 150.716071 303.326331 303.326331 0 0 0 70.392187-9.112589l-0.051195 0.051194z" fill="#1DA362" p-id="2202"></path></svg>