<?xml version="1.0" encoding="utf-8"?>
<!-- Generator: Adobe Illustrator 24.2.3, SVG Export Plug-In . SVG Version: 6.00 Build 0)  -->
<svg version="1.1" id="图层_1" xmlns="http://www.w3.org/2000/svg" xmlns:xlink="http://www.w3.org/1999/xlink" x="0px" y="0px"
	 viewBox="0 0 32 32" enable-background="new 0 0 32 32" xml:space="preserve">
<g>
	<g>
		<path d="M24.71,6.29c-0.39-0.39-1.02-0.39-1.41,0l-1.35,1.35C19.95,6.56,17.95,6,16,6C8.33,6,2,14.5,2,16
			c0,1.03,2.38,4.14,5.17,6.41l-1.88,1.88c-0.39,0.39-0.39,1.02,0,1.41C5.49,25.9,5.74,26,6,26s0.51-0.1,0.71-0.29l18-18
			C25.1,7.32,25.1,6.68,24.71,6.29z M4.07,16C4.88,14.48,10,8,16,8c1.44,0,2.94,0.39,4.45,1.13l-2.34,2.34
			C17.45,11.17,16.73,11,16,11c-2.76,0-5,2.24-5,5c0,0.73,0.17,1.45,0.48,2.11L8.6,20.99C6.19,19.07,4.5,16.8,4.07,16z M13.07,16.52
			C13.04,16.35,13,16.18,13,16c0-1.65,1.35-3,3-3c0.18,0,0.35,0.04,0.52,0.07L13.07,16.52z"/>
	</g>
	<g>
		<path d="M26,10.61c-0.4-0.38-1.04-0.35-1.41,0.05c-0.38,0.4-0.35,1.04,0.05,1.41c1.76,1.64,2.94,3.29,3.3,3.93
			C27.11,17.52,22,24,16,24c-1.05,0-2.17-0.21-3.3-0.63c-0.52-0.19-1.09,0.07-1.28,0.59c-0.19,0.52,0.07,1.09,0.59,1.28
			c1.36,0.5,2.7,0.76,4,0.76c7.67,0,14-8.5,14-10C30,15,27.93,12.41,26,10.61z"/>
	</g>
	<g>
		<path d="M18.94,16.55c-0.22,1.21-1.19,2.17-2.39,2.39c-0.54,0.1-0.9,0.62-0.8,1.17c0.09,0.48,0.51,0.82,0.98,0.82
			c0.06,0,0.12-0.01,0.18-0.02c2.02-0.37,3.62-1.98,4-4c0.1-0.54-0.26-1.06-0.8-1.17C19.56,15.65,19.04,16.01,18.94,16.55z"/>
	</g>
</g>
</svg>
