<?xml version="1.0" encoding="utf-8"?>
<!-- Generator: Adobe Illustrator 24.2.3, SVG Export Plug-In . SVG Version: 6.00 Build 0)  -->
<svg version="1.1" id="图层_1" xmlns="http://www.w3.org/2000/svg" xmlns:xlink="http://www.w3.org/1999/xlink" x="0px" y="0px"
	 viewBox="0 0 32 32" enable-background="new 0 0 32 32" xml:space="preserve">
<g>
	<g>
		<path d="M27.71,10.29l-6-6C21.52,4.11,21.27,4,21,4h-3h-7H5C4.45,4,4,4.45,4,5v22c0,0.55,0.45,1,1,1h22c0.55,0,1-0.45,1-1V11
			C28,10.73,27.89,10.48,27.71,10.29z M12,6h5v7h-5V6z M26,26H6V6h4v8c0,0.55,0.45,1,1,1h7c0.55,0,1-0.45,1-1V6h1.59L26,11.41V26z"
			/>
	</g>
	<g>
		<path d="M15,8c-0.55,0-1,0.45-1,1v1c0,0.55,0.45,1,1,1s1-0.45,1-1V9C16,8.45,15.55,8,15,8z"/>
	</g>
</g>
</svg>
