<?xml version="1.0" encoding="utf-8"?>
<!-- Generator: Adobe Illustrator 24.2.3, SVG Export Plug-In . SVG Version: 6.00 Build 0)  -->
<svg version="1.1" id="图层_1" xmlns="http://www.w3.org/2000/svg" xmlns:xlink="http://www.w3.org/1999/xlink" x="0px" y="0px"
	 viewBox="0 0 32 32" enable-background="new 0 0 32 32" xml:space="preserve">
<g>
	<path d="M27.54,11.16l-11-7c-0.33-0.21-0.75-0.21-1.07,0l-11,7C4.17,11.34,4,11.66,4,12v15c0,0.55,0.45,1,1,1h8h6h8
		c0.55,0,1-0.45,1-1V12C28,11.66,27.83,11.34,27.54,11.16z M14,26v-6h4v6H14z M26,26h-6v-7c0-0.55-0.45-1-1-1h-6c-0.55,0-1,0.45-1,1
		v7H6V12.55l10-6.36l10,6.36V26z"/>
</g>
</svg>
