<?xml version="1.0" standalone="no"?><!DOCTYPE svg PUBLIC "-//W3C//DTD SVG 1.1//EN" "http://www.w3.org/Graphics/SVG/1.1/DTD/svg11.dtd"><svg t="1606898184008" class="icon" viewBox="0 0 1024 1024" version="1.1" xmlns="http://www.w3.org/2000/svg" p-id="8533" xmlns:xlink="http://www.w3.org/1999/xlink" width="200" height="200"><defs><style type="text/css"></style></defs><path d="M512 512m-448 0a448 448 0 1 0 896 0 448 448 0 1 0-896 0Z" fill="#D0112A" p-id="8534"></path><path d="M785.4 446.8c-3.8-41.8-45.5-84.5-51.3-85.1-5.8-0.6-56 66.4-94.7 129.1-38.6 62.6-85.9 148.7-83.7 154.4 2.1 5.6 118.5-59.9 167.4-95.5 48.7-33.3 66.1-61.1 62.3-102.9zM613.2 716.2c15.2 10.6 70 46.8 105.3 30.7 35.2-16.2 54.1-56.6 54.1-56.6l-199.5-5.5s26 20.4 40.1 31.4z m212.3-194.4c-2.9-0.8-76.3 41.3-112 59.7-35.7 18.3-142.3 84.5-143.1 86.9-0.9 2.8 134.8 4.3 157.9 0.9 20.5-3.2 65.3-15.3 88.2-54.8 22.9-39.5 11.8-91.9 9-92.7zM641.6 313.7c-32.4-43-83.3-40.7-83.3-40.7-3.3 5.2-24.9 64.9-32.2 111.9-7.3 47 1.8 237.7 2 240.4 0.2 2.6 3.7 3.9 6.7 0.9 3-2.9 84.2-136 99.6-169.9 15.2-33.8 39.6-99.6 7.2-142.6z m-331 267.8c-35.7-18.3-109.2-60.5-112-59.7-2.9 0.8-13.9 53.2 9 92.7s67.7 51.6 88.2 54.8c23.1 3.4 158.8 1.9 157.9-0.9-0.8-2.4-107.4-68.6-143.1-86.9z m-5 165.4c35.2 16.2 90.1-20.1 105.2-30.7 14.1-11.1 40.2-31.4 40.2-31.4l-199.5 5.5s18.8 40.5 54.1 56.6z m-15.7-385.2c-5.8 0.6-47.6 43.4-51.3 85.1-3.8 41.8 13.6 69.6 62.3 102.8 49 35.6 165.3 101.2 167.4 95.5 2.1-5.6-45.1-91.7-83.7-154.4-38.7-62.6-88.9-129.6-94.7-129zM465.7 273s-50.9-2.4-83.3 40.7c-32.5 43-8.1 108.8 7.3 142.7 15.4 33.9 96.6 167 99.6 169.9 3 2.9 6.5 1.7 6.7-0.9 0.2-2.6 9.3-193.3 2-240.4-7.3-47.1-28.9-106.8-32.3-112z" fill="#FFFFFF" p-id="8535"></path></svg>