<?xml version="1.0" encoding="utf-8"?>
<!-- Generator: Adobe Illustrator 24.2.3, SVG Export Plug-In . SVG Version: 6.00 Build 0)  -->
<svg version="1.1" id="图层_1" xmlns="http://www.w3.org/2000/svg" xmlns:xlink="http://www.w3.org/1999/xlink" x="0px" y="0px"
	 viewBox="0 0 32 32" enable-background="new 0 0 32 32" xml:space="preserve">
<g>
	<g>
		<path d="M16,4c-0.55,0-1,0.45-1,1v11.59l-2.29-2.29c-0.39-0.39-1.02-0.39-1.41,0s-0.39,1.02,0,1.41l4,4
			c0.39,0.39,1.02,0.39,1.41,0l4-4C20.9,15.51,21,15.26,21,15s-0.1-0.51-0.29-0.71c-0.39-0.39-1.02-0.39-1.41,0L17,16.59V5
			C17,4.45,16.55,4,16,4z"/>
	</g>
	<g>
		<path d="M4,5v22c0,0.55,0.45,1,1,1h22c0.55,0,1-0.45,1-1V5c0-0.55-0.45-1-1-1h-5c-0.55,0-1,0.45-1,1s0.45,1,1,1h4v20H6V6h4
			c0.55,0,1-0.45,1-1s-0.45-1-1-1H5C4.45,4,4,4.45,4,5z"/>
	</g>
</g>
</svg>
