<?xml version="1.0" standalone="no"?><!DOCTYPE svg PUBLIC "-//W3C//DTD SVG 1.1//EN" "http://www.w3.org/Graphics/SVG/1.1/DTD/svg11.dtd"><svg t="1606899451222" class="icon" viewBox="0 0 1024 1024" version="1.1" xmlns="http://www.w3.org/2000/svg" p-id="17720" xmlns:xlink="http://www.w3.org/1999/xlink" width="200" height="200"><defs><style type="text/css"></style></defs><path d="M512 512m-505.6 0a505.6 505.6 0 1 0 1011.2 0 505.6 505.6 0 1 0-1011.2 0Z" fill="#DB1616" p-id="17721"></path><path d="M776.96 322.56c-48.64-42.24-120.32-64-213.76-64h-104.96V768H563.2c93.44 0 165.12-21.76 213.76-64 47.36-42.24 72.96-107.52 72.96-190.72s-24.32-149.76-72.96-190.72zM729.6 657.92c-34.56 32-87.04 47.36-154.88 47.36h-46.08v-384h46.08c67.84 0 120.32 15.36 154.88 47.36 34.56 30.72 52.48 80.64 52.48 144.64-1.28 64-19.2 113.92-52.48 144.64zM317.44 565.76c0 34.56-2.56 61.44-7.68 75.52-5.12 14.08-11.52 25.6-23.04 34.56-12.8 10.24-29.44 17.92-47.36 23.04-17.92 3.84-39.68 6.4-65.28 6.4h-1.28V768h5.12c71.68 0 125.44-15.36 160-44.8 34.56-29.44 52.48-74.24 52.48-134.4V256h-71.68l-1.28 309.76z" fill="#FFFFFF" p-id="17722"></path></svg>