<?xml version="1.0" standalone="no"?><!DOCTYPE svg PUBLIC "-//W3C//DTD SVG 1.1//EN" "http://www.w3.org/Graphics/SVG/1.1/DTD/svg11.dtd"><svg t="1606898919104" class="icon" viewBox="0 0 1024 1024" version="1.1" xmlns="http://www.w3.org/2000/svg" p-id="12136" xmlns:xlink="http://www.w3.org/1999/xlink" width="200" height="200"><defs><style type="text/css"></style></defs><path d="M500.132344 3.648713L56.108379 277.630992a25.968286 25.968286 0 0 0-14.16452 23.607533v240.931733A479.367813 479.367813 0 0 0 500.132344 1024h23.607532a482.706593 482.706593 0 0 0 458.222209-481.829742V301.238525a25.968286 25.968286 0 0 0-14.164519-23.607533L523.773601 3.648713a21.078154 21.078154 0 0 0-23.607532 0z m14.164519 902.246174h-14.164519A362.746602 362.746602 0 0 1 160.015248 542.170258V362.651835a35.816 35.816 0 0 1 9.443013-18.886026l335.395589-207.847463a14.36687 14.36687 0 0 1 18.886026 0l335.395589 203.125956a24.551834 24.551834 0 0 1 9.443014 18.886026v179.518424a362.746602 362.746602 0 0 1-340.083371 363.724628 17.368399 17.368399 0 0 1-14.16452 4.721507z" fill="#1D9DC5" p-id="12137"></path><path d="M514.330588 745.296214a207.240412 207.240412 0 0 1-203.125956-170.07541 57.46748 57.46748 0 0 1 113.383607-18.886026 91.057626 91.057626 0 0 0 179.518423 0 57.46748 57.46748 0 0 1 113.383607 18.886026 207.240412 207.240412 0 0 1-203.159681 170.07541z" fill="#1D9DC5" p-id="12138"></path></svg>