<?xml version="1.0" encoding="utf-8"?>
<!-- Generator: Adobe Illustrator 24.2.3, SVG Export Plug-In . SVG Version: 6.00 Build 0)  -->
<svg version="1.1" id="图层_1" xmlns="http://www.w3.org/2000/svg" xmlns:xlink="http://www.w3.org/1999/xlink" x="0px" y="0px"
	 viewBox="0 0 32 32" enable-background="new 0 0 32 32" xml:space="preserve">
<g>
	<g>
		<path d="M8.41,16L18.71,5.71c0.39-0.39,0.39-1.02,0-1.41s-1.02-0.39-1.41,0l-11,11c-0.39,0.39-0.39,1.02,0,1.41l11,11
			C17.49,27.9,17.74,28,18,28s0.51-0.1,0.71-0.29c0.39-0.39,0.39-1.02,0-1.41L8.41,16z"/>
	</g>
	<g>
		<path d="M15.41,16L25.71,5.71c0.39-0.39,0.39-1.02,0-1.41s-1.02-0.39-1.41,0l-11,11c-0.39,0.39-0.39,1.02,0,1.41l11,11
			C24.49,27.9,24.74,28,25,28s0.51-0.1,0.71-0.29c0.39-0.39,0.39-1.02,0-1.41L15.41,16z"/>
	</g>
</g>
</svg>
