<?xml version="1.0" encoding="utf-8"?>
<!-- Generator: Adobe Illustrator 24.2.3, SVG Export Plug-In . SVG Version: 6.00 Build 0)  -->
<svg version="1.1" id="图层_1" xmlns="http://www.w3.org/2000/svg" xmlns:xlink="http://www.w3.org/1999/xlink" x="0px" y="0px"
	 viewBox="0 0 32 32" enable-background="new 0 0 32 32" xml:space="preserve">
<g>
	<g>
		<path d="M16,29c-0.27,0-0.52-0.11-0.71-0.29L4.35,17.75c-3.13-3.14-3.13-8.25,0-11.39C5.87,4.84,7.89,4,10.04,4
			c2.15,0,4.17,0.84,5.69,2.36L16,6.63l0.27-0.27C17.79,4.84,19.81,4,21.96,4c2.15,0,4.17,0.84,5.69,2.36
			c3.13,3.14,3.13,8.25,0,11.39L16.71,28.71C16.52,28.89,16.27,29,16,29z M10.04,6C8.43,6,6.91,6.63,5.77,7.77
			c-2.36,2.36-2.36,6.2,0,8.56L16,26.58l10.23-10.25c2.36-2.36,2.36-6.2,0-8.56h0C25.09,6.63,23.57,6,21.96,6
			c-1.61,0-3.13,0.63-4.27,1.77l-0.98,0.98c-0.38,0.38-1.04,0.38-1.42,0l-0.98-0.98C13.17,6.63,11.66,6,10.04,6z"/>
	</g>
</g>
</svg>
