<?xml version="1.0" encoding="utf-8"?>
<!-- Generator: Adobe Illustrator 24.2.3, SVG Export Plug-In . SVG Version: 6.00 Build 0)  -->
<svg version="1.1" id="图层_1" xmlns="http://www.w3.org/2000/svg" xmlns:xlink="http://www.w3.org/1999/xlink" x="0px" y="0px"
	 viewBox="0 0 32 32" enable-background="new 0 0 32 32" xml:space="preserve">
<g>
	<g>
		<path d="M26,15h-2v-4c0-4.41-3.59-8-8-8s-8,3.59-8,8v4H6c-0.55,0-1,0.45-1,1v12c0,0.55,0.45,1,1,1h20c0.55,0,1-0.45,1-1V16
			C27,15.45,26.55,15,26,15z M10,11c0-3.31,2.69-6,6-6s6,2.69,6,6v4H10V11z M25,27H7V17h18V27z"/>
	</g>
	<g>
		<path d="M16,24c0.55,0,1-0.45,1-1v-2c0-0.55-0.45-1-1-1s-1,0.45-1,1v2C15,23.55,15.45,24,16,24z"/>
	</g>
</g>
</svg>
