<?xml version="1.0" encoding="UTF-8"?>
<svg width="14px" height="14px" viewBox="0 0 14 14" version="1.1" xmlns="http://www.w3.org/2000/svg" xmlns:xlink="http://www.w3.org/1999/xlink">
    <title>审计管理</title>
    <path d="M11.909012,6.8561931 L11.909012,3.32631358 C11.909012,1.96366298 9.08149398,1.34298828 6.45450602,1.34298828 C3.82751807,1.34298828 1,1.96366298 1,3.32631358 L1,10.2683859 C1,11.6311811 3.82751807,12.2518558 6.45450602,12.2518558 C6.47387952,12.2518558 6.49339759,12.251422 6.51277108,12.251422 C7.20183133,12.9258798 8.14375904,13.3426991 9.18183133,13.3426991 C11.2871807,13.3428437 13,11.6300244 13,9.52467503 C13,8.4868919 12.5831807,7.54510876 11.909012,6.8561931 Z M10.4878072,9.22915696 L9.23633735,7.88139792 L7.84722892,9.22915696 L6.47315663,9.22915696 C6.47474699,9.21556659 6.47590361,9.20183165 6.47763855,9.18824129 C6.48255422,9.15065093 6.48833735,9.11320515 6.49484337,9.07604852 C6.58101205,8.55643406 6.81320482,8.08742202 7.14906024,7.71122925 C7.16684337,7.69127744 7.18433735,7.67161479 7.2026988,7.65224129 C7.24086747,7.61190394 7.28048193,7.5728678 7.32110843,7.53498828 C7.34828916,7.5095425 7.37546988,7.48424129 7.40380723,7.45980756 C7.43460241,7.43320515 7.4659759,7.40761479 7.49792771,7.38231358 C7.53060241,7.35643406 7.56428916,7.33171117 7.59826506,7.30727744 C7.63672289,7.27966298 7.67561446,7.25320515 7.71566265,7.22761479 C7.75093976,7.20491599 7.78679518,7.18322925 7.82322892,7.16226539 C7.8606747,7.14057864 7.8986988,7.11975937 7.9373012,7.09995214 C7.98139759,7.07725334 8.02607229,7.05556659 8.07146988,7.03532563 C8.09503614,7.02462684 8.11831325,7.01363888 8.14231325,7.00366298 C8.20506024,6.97763888 8.26925301,6.95465093 8.33416867,6.93339792 C8.35542169,6.92645816 8.37653012,6.9195184 8.39807229,6.91301238 C8.46689157,6.89233768 8.53686747,6.87440997 8.60785542,6.85894009 C8.62549398,6.85518105 8.64313253,6.85171117 8.66091566,6.84824129 C8.73653012,6.83349431 8.81315663,6.82134973 8.89108434,6.81310876 C8.9026506,6.81180756 8.91421687,6.81122925 8.92592771,6.81007262 C9.01050602,6.80226539 9.09551807,6.79720515 9.1819759,6.79720515 C9.26554217,6.79720515 9.34795181,6.80226539 9.42963855,6.80978346 C9.44814458,6.81137382 9.4666506,6.81310876 9.48501205,6.81513286 C9.56221687,6.82366298 9.63855422,6.83508467 9.71373494,6.84997623 C9.73281928,6.85373527 9.75146988,6.85836178 9.77026506,6.86269912 C9.8306988,6.87600033 9.89026506,6.89132563 9.94910843,6.90867503 C9.97007229,6.91474732 9.99146988,6.92038587 10.0122892,6.9268919 C10.0777831,6.94785575 10.1418313,6.97171117 10.2051566,6.99744611 C10.233494,7.0088678 10.2616867,7.02115696 10.2894458,7.03359069 C10.336,7.05440997 10.3819759,7.07667503 10.4272289,7.09995214 C11.2228434,7.50983165 11.7871325,8.29937382 11.8880482,9.22915696 L10.4878072,9.22915696 Z M6.45450602,2.33465093 C9.32915663,2.33465093 10.8157108,3.04583165 10.9156145,3.32645816 C10.8157108,3.60694009 9.32915663,4.31812081 6.45450602,4.31812081 C3.57985542,4.31812081 2.0933012,3.60694009 1.99325301,3.32631358 C2.09344578,3.04583165 3.57985542,2.33465093 6.45450602,2.33465093 Z M1.9546506,10.2685304 L1.9546506,8.00269912 C2.77281928,8.42472322 4.09585542,8.6681931 5.42438554,8.74959069 C5.37262651,9.00000033 5.35440964,9.25922925 5.35440964,9.52467503 C5.35440964,10.1437594 5.48959036,10.7282895 5.75214458,11.2460244 C3.29879518,11.1449642 2.09098795,10.5144582 1.9546506,10.2685304 Z M1.9546506,6.79749431 L1.9546506,4.53166298 C3.04549398,5.06067503 4.77204819,5.30992804 6.43614458,5.30992804 C8.10009639,5.30992804 9.85310843,5.06038587 10.908241,4.5315184 L10.913012,6.12578346 C10.3918072,5.85845816 9.80438554,5.70665093 9.17951807,5.70665093 C7.70438554,5.70665093 6.4053494,6.54809671 5.76978313,7.77585575 C3.30718072,7.67638587 2.09098795,7.04385575 1.9546506,6.79749431 Z M11.0870843,11.474169 C11.0441446,11.5162413 10.9994699,11.5561449 10.9539277,11.5951811 C10.9302169,11.6155666 10.9062169,11.6355184 10.8817831,11.6551811 C10.8342155,11.6933086 10.7853682,11.7298116 10.7353253,11.7646268 C10.711759,11.7809642 10.6876145,11.7967232 10.6634699,11.8123377 C10.613012,11.845157 10.5615422,11.876675 10.5087711,11.9063136 C10.4857831,11.9191811 10.4622169,11.9311811 10.4389398,11.9433256 C10.3874699,11.9702172 10.3348434,11.9955184 10.281494,12.0190847 C10.2637108,12.0268919 10.2466506,12.0352774 10.2287229,12.0427955 C10.1627952,12.07041 10.094988,12.09441 10.0264578,12.1168196 C10.0076627,12.1230365 9.98915663,12.1292533 9.97007229,12.1348919 C9.89980723,12.1561449 9.82809639,12.1745064 9.75566265,12.1899762 C9.73860241,12.1935907 9.72168675,12.196916 9.70448193,12.2003859 C9.62843373,12.2152774 9.55137349,12.227422 9.47315663,12.235663 C9.46115663,12.2369642 9.44915663,12.2376871 9.43715663,12.2388437 C9.35286747,12.2466509 9.268,12.2517112 9.18183133,12.2517112 C9.09927711,12.2517112 9.0180241,12.2466509 8.9373494,12.2392774 C8.90771084,12.236675 8.87850602,12.232916 8.8493012,12.2293015 C8.8,12.2232292 8.75127711,12.2157112 8.7026988,12.2068919 C8.66713253,12.200675 8.63156627,12.1946027 8.59643373,12.1869401 C8.55291566,12.1772533 8.51026506,12.1653979 8.46746988,12.1538317 C7.77522892,11.966169 7.19387952,11.5140726 6.83662651,10.9113256 C6.82708434,10.8952774 6.8166747,10.879663 6.80756627,10.8634702 C6.78183133,10.817928 6.75855422,10.7710847 6.73542169,10.7238076 C6.72168675,10.6959039 6.70766265,10.6681449 6.69493976,10.639663 C6.67571084,10.5968678 6.65807229,10.5533497 6.64101205,10.5093979 C6.62727711,10.4739762 6.61412048,10.43841 6.60183133,10.4022654 C6.59257831,10.3749401 6.58419277,10.3473256 6.57566265,10.3197112 L8.2893494,10.3197112 L9.19571084,9.44038587 L10.0122892,10.3197112 L11.7884337,10.3197112 C11.6759518,10.6865064 11.4897349,11.0212051 11.2449639,11.3045786 C11.2144578,11.3401449 11.1832289,11.3746991 11.150988,11.4082413 C11.1298795,11.4303618 11.1089157,11.4526268 11.0870843,11.474169 Z" id="形状"></path>
</svg>