<?xml version="1.0" encoding="utf-8"?>
<!-- Generator: Adobe Illustrator 22.0.0, SVG Export Plug-In . SVG Version: 6.00 Build 0)  -->
<svg version="1.1" id="图层_1" xmlns="http://www.w3.org/2000/svg" xmlns:xlink="http://www.w3.org/1999/xlink" x="0px" y="0px"
	 viewBox="0 0 80 80" style="enable-background:new 0 0 80 80;" xml:space="preserve">
<style type="text/css">
</style>
<path d="M15.3,57.2v-1.8h-2.5v1.8H7.1v10.4h5.7v2.6h2.5v-2.6c0,0,2.1,0,3.8,0c1.7,0,2-0.8,2-2c0-1.2,0-8.4,0-8.4H15.3
	L15.3,57.2z M12.8,59.4v6.1H9.5v-6.1H12.8L12.8,59.4z M18.8,59.4v6.1h-3.5v-6.1H18.8L18.8,59.4z M54.8,68.2h-5.2c-0.9,0-1-0.4-1-1
	v-0.6c0,0,2.3,0,3.4,0c1.1,0,2.2-0.4,2.2-2.2c0-1.8,0-7.9,0-7.9h-5.6v-1.2h-2.5v1.2h-5.6v10.1h5.6v1.4c0,0.8,0.4,1.4,1,1.8
	c0.6,0.4,1.3,0.6,2.1,0.6c0,0,4.2,0,5.6,0V68.2L54.8,68.2z M51.8,64.8h-3.2v-2.2h3.2V64.8L51.8,64.8z M48.6,60.6v-2.2h3.2v2.2H48.6
	L48.6,60.6z M46.1,58.4v2.2h-3.2v-2.2H46.1L46.1,58.4z M46.1,62.7v2.2h-3.2v-2.2H46.1L46.1,62.7z M62.8,58v-1.6h-5.4V58h3l-3,3.2
	v1.5h3.3c-0.1,0.9-0.4,2-0.6,2.6c-0.4-0.5-0.7-1.7-0.7-1.7l-0.2,0h-1.6c0,0,0.5,1.8,1.6,3.4C58.6,67.7,57,69,57,69l1.1,1.5l0.3-0.2
	c0.8-0.5,1.5-1.2,2-1.9c1.3,0.9,2.4,1.7,5.4,1.7c2.3,0,6.8,0,6.8,0v0v-1.8c0,0-2.3,0-4.3,0v-1h3.5v-1.5h-3.5v-0.8h3.5v-1.5h-3.5
	v-0.8c0,0,0.8,0,2.1,0c1.3,0,1.5-0.8,1.5-1.8c0-0.3,0-0.6,0-0.6h0.7v-1.4h-0.7v-2.4h-3.5v-0.9h-2.2v0.9h-2.7v1.5h2.7v0.9h-2.7v1.4
	h2.7v0.9h-2.7v1.5h2.7v0.8h-2.7v1.5h2.7v0.8h-2.7v0.2v1.3h2.7v1c-3.2,0-4-0.8-4.6-1.4c0.7-1.3,1.1-2.8,1.3-4.5l0,0v-1.2H60L62.8,58z
	 M68.3,57.9H70v0.9h-1.8V57.9L68.3,57.9z M68.3,60.3H70v0.9h-1.8V60.3L68.3,60.3z M35,64.9h-1.9v0.9H32v-1.9h2.7v-1.7H32v-1.6H35
	v-1.7h-8.5v1.7h3.1v1.6h-2.7v1.7h2.7v1.9h-3.1v1.7H35V64.9L35,64.9z M23.5,56v14.3c0,0,10.9,0,12.4,0c1.5,0,2.1-0.7,2.1-2.3
	c0-1.5,0-12,0-12H23.5L23.5,56z M35.8,68.5h-10V57.8h10V68.5L35.8,68.5z M7.1,73.4c0.5-0.1,1.2-0.1,2.2-0.1c1,0,1.7,0.2,2.2,0.5
	c0.5,0.3,0.8,0.9,0.8,1.5c0,0.6-0.2,1.2-0.7,1.5c-0.5,0.5-1.4,0.7-2.4,0.7c-0.2,0-0.4,0-0.6,0v2.4H7.1V73.4L7.1,73.4z M8.7,76.4
	c0.1,0,0.3,0,0.5,0c0.9,0,1.4-0.4,1.4-1.1c0-0.6-0.4-1-1.3-1c-0.3,0-0.6,0-0.7,0V76.4L8.7,76.4z M16.4,80c-2.1,0-3.4-1.5-3.4-3.3
	c0-2,1.4-3.4,3.5-3.4c2.2,0,3.4,1.5,3.4,3.3C20,78.7,18.5,80,16.4,80L16.4,80L16.4,80z M16.5,78.8c1.1,0,1.7-0.9,1.7-2.2
	c0-1.2-0.6-2.2-1.7-2.2c-1.1,0-1.8,1-1.8,2.2C14.7,77.9,15.4,78.8,16.5,78.8L16.5,78.8L16.5,78.8z M22.2,79.9l-1.7-6.6h1.8
	c0,0,0.9,3.9,1,4.5l0,0c0.1-0.7,1.1-4.5,1.1-4.5l1.7,0l1,4.5h0l1-4.5h1.7l-1.9,6.6h-1.8L25.1,75h0L24,79.9H22.2L22.2,79.9z
	 M34.9,77.1h-2.7v1.5h3v1.2h-4.6v-6.6H35v1.2h-2.8v1.4h2.7V77.1L34.9,77.1z M36.3,73.4c0.5-0.1,1.3-0.1,2.2-0.1
	c1.1,0,1.8,0.1,2.3,0.5c0.4,0.3,0.7,0.8,0.7,1.4c0,0.8-0.7,1.4-1.3,1.6v0c0.5,0.2,0.8,0.6,1,1.2c0.2,0.7,0.4,1.6,0.6,1.9h-1.7
	c-0.1-0.2-0.3-0.7-0.5-1.5c-0.2-0.8-0.5-1-1.2-1h-0.5v2.6h-1.6V73.4L36.3,73.4z M37.9,76.2h0.6c0.8,0,1.3-0.4,1.3-0.9
	c0-0.6-0.4-0.9-1.2-0.9c-0.4,0-0.6,0-0.7,0L37.9,76.2L37.9,76.2z M47.6,79.7c-0.3,0.1-1,0.3-1.9,0.3c-2.5,0-3.8-1.4-3.8-3.3
	c0-2.2,1.8-3.5,3.9-3.5c0.9,0,1.5,0.2,1.8,0.3l-0.3,1.2c-0.3-0.1-0.8-0.2-1.4-0.2c-1.3,0-2.3,0.7-2.3,2.2c0,1.3,0.9,2.1,2.3,2.1
	c0.5,0,1-0.1,1.4-0.2L47.6,79.7L47.6,79.7z M50.3,73.3v2.5H53v-2.5h1.6v6.6H53v-2.7h-2.7v2.7h-1.6v-6.6H50.3L50.3,73.3z M57.7,73.3
	v6.6H56v-6.6H57.7L57.7,73.3z M59.1,79.9v-6.6H61l1.5,2.4c0.4,0.7,0.9,1.5,1.2,2.3h0c-0.1-0.9-0.1-1.8-0.1-2.7v-1.9h1.5v6.6h-1.7
	l-1.5-2.5c-0.4-0.7-0.9-1.6-1.3-2.3l0,0c0.1,0.9,0.1,1.8,0.1,2.9v2H59.1L59.1,79.9z M68.2,78.2l-0.5,1.7H66l2.2-6.6h2.1l2.3,6.6
	h-1.8l-0.6-1.7H68.2L68.2,78.2z M70,77.1l-0.5-1.4c-0.1-0.4-0.2-0.9-0.3-1.3l0,0c-0.1,0.4-0.2,0.9-0.3,1.3l-0.4,1.4H70L70,77.1z"/>
<path d="M71.1,27.4L49,49.6c-0.8,0.4-1.3,0.3-1.6-0.2c-2-2-3.9-4-5.9-5.9c-4.8-4.8-7-8.7-0.3-15.2l9.6-9.7
	c1.4-1.4,0-3,0-3l-9-8.5c-0.3-0.3-0.3-0.6,0-1l5.6-5.6c0.5-0.4,1-0.6,1.6-0.2l22.5,22.5C72.2,23.7,72.9,25.4,71.1,27.4z M38.8,21.6
	c6.7-6.6,4.5-10.5-0.3-15.2c-2-2-3.9-4-5.9-5.9c-0.5-0.4-1-0.6-1.6-0.2L8.8,22.4c-1.7,2-1,3.7-0.4,4.7l22.5,22.5
	c0.6,0.4,1.1,0.3,1.6-0.2l5.6-5.5c0.4-0.5,0.2-0.7,0-1l-9-8.5c0,0-1.4-1.6,0-3L38.8,21.6z"/>
</svg>