<?xml version="1.0" encoding="utf-8"?>
<!-- Generator: Adobe Illustrator 24.2.3, SVG Export Plug-In . SVG Version: 6.00 Build 0)  -->
<svg version="1.1" id="图层_1" xmlns="http://www.w3.org/2000/svg" xmlns:xlink="http://www.w3.org/1999/xlink" x="0px" y="0px"
	 viewBox="0 0 32 32" enable-background="new 0 0 32 32" xml:space="preserve">
<g>
	<g>
		<path d="M12,16c0-0.55,0.45-1,1-1h11.59l-2.29-2.29c-0.39-0.39-0.39-1.02,0-1.41s1.02-0.39,1.41,0l4,4c0.39,0.39,0.39,1.02,0,1.41
			l-4,4C23.51,20.9,23.26,21,23,21s-0.51-0.1-0.71-0.29c-0.39-0.39-0.39-1.02,0-1.41L24.59,17H13C12.45,17,12,16.55,12,16z"/>
	</g>
	<g>
		<path d="M27,4H5C4.45,4,4,4.45,4,5v22c0,0.55,0.45,1,1,1h22c0.55,0,1-0.45,1-1v-5c0-0.55-0.45-1-1-1s-1,0.45-1,1v4H6V6h20v4
			c0,0.55,0.45,1,1,1s1-0.45,1-1V5C28,4.45,27.55,4,27,4z"/>
	</g>
</g>
</svg>
