<?xml version="1.0" encoding="utf-8"?>
<!-- Generator: Adobe Illustrator 24.2.3, SVG Export Plug-In . SVG Version: 6.00 Build 0)  -->
<svg version="1.1" id="图层_1" xmlns="http://www.w3.org/2000/svg" xmlns:xlink="http://www.w3.org/1999/xlink" x="0px" y="0px"
	 viewBox="0 0 32 32" enable-background="new 0 0 32 32" xml:space="preserve">
<g>
	<path d="M29,6H3C2.45,6,2,6.45,2,7v18c0,0.55,0.45,1,1,1h26c0.55,0,1-0.45,1-1V7C30,6.45,29.55,6,29,6z M28,8v2.26l-12,3.69
		L4,10.26V8H28z M4,24V12.35l11.71,3.6C15.8,15.99,15.9,16,16,16s0.2-0.01,0.29-0.04L28,12.35V24H4z"/>
</g>
</svg>
