<?xml version="1.0" encoding="utf-8"?>
<!-- Generator: Adobe Illustrator 24.2.3, SVG Export Plug-In . SVG Version: 6.00 Build 0)  -->
<svg version="1.1" id="图层_1" xmlns="http://www.w3.org/2000/svg" xmlns:xlink="http://www.w3.org/1999/xlink" x="0px" y="0px"
	 viewBox="0 0 32 32" enable-background="new 0 0 32 32" xml:space="preserve">
<g>
	<path d="M27.92,4.62c-0.1-0.24-0.3-0.44-0.54-0.54C27.26,4.03,27.13,4,27,4h-6c-0.55,0-1,0.45-1,1s0.45,1,1,1h3.59l-4.26,4.26
		C18.6,8.85,16.4,8,14,8C8.49,8,4,12.49,4,18s4.49,10,10,10s10-4.49,10-10c0-2.4-0.85-4.6-2.26-6.32L26,7.41V11c0,0.55,0.45,1,1,1
		s1-0.45,1-1V5C28,4.87,27.97,4.74,27.92,4.62z M14,26c-4.41,0-8-3.59-8-8s3.59-8,8-8s8,3.59,8,8S18.41,26,14,26z"/>
</g>
</svg>
