<svg 
 xmlns="http://www.w3.org/2000/svg"
 xmlns:xlink="http://www.w3.org/1999/xlink"
 width="16px" height="17px">
<path fill-rule="evenodd"  fill="rgb(255, 255, 255)"
 d="M15.753,8.408 L8.249,12.490 C8.172,12.533 8.084,12.556 7.994,12.556 C7.907,12.556 7.821,12.534 7.745,12.493 L0.186,8.380 L0.189,8.375 C0.140,8.338 0.099,8.293 0.067,8.241 C-0.069,8.017 0.013,7.731 0.251,7.602 L1.664,6.833 L2.658,7.374 L1.493,8.007 L7.995,11.545 L14.509,8.001 L13.346,7.365 L14.341,6.824 L15.748,7.593 C15.824,7.633 15.889,7.694 15.934,7.767 C16.072,7.990 15.991,8.278 15.753,8.408 ZM15.753,4.963 L8.249,9.046 C8.173,9.089 8.084,9.111 7.994,9.111 C7.907,9.111 7.821,9.090 7.745,9.048 L0.183,4.934 L0.187,4.929 C0.139,4.892 0.099,4.848 0.067,4.797 C-0.069,4.573 0.013,4.286 0.251,4.158 L7.749,0.078 C7.906,-0.020 8.109,-0.025 8.273,0.064 L15.748,4.149 C15.824,4.189 15.889,4.249 15.934,4.322 C16.072,4.546 15.991,4.834 15.753,4.963 ZM8.022,1.011 L1.493,4.563 L7.995,8.101 L14.509,4.556 L8.022,1.011 ZM0.251,11.046 L1.659,10.280 L2.653,10.821 L1.493,11.452 L7.995,14.989 L14.509,11.445 L13.352,10.812 L14.347,10.271 L15.748,11.037 C15.825,11.078 15.889,11.138 15.934,11.211 C16.072,11.434 15.991,11.722 15.753,11.852 L8.249,15.934 C8.094,16.021 7.901,16.022 7.745,15.937 L0.184,11.823 L0.188,11.818 C0.139,11.781 0.099,11.736 0.067,11.685 C-0.069,11.462 0.013,11.175 0.251,11.046 Z"/>
</svg>