<svg 
 xmlns="http://www.w3.org/2000/svg"
 xmlns:xlink="http://www.w3.org/1999/xlink"
 width="15px" height="16px">
<path fill-rule="evenodd"  fill="rgb(255, 255, 255)"
 d="M0.197,12.244 L7.000,16.000 L8.000,16.000 L14.803,12.244 C14.924,12.182 15.000,12.053 15.000,11.912 L15.000,3.248 C14.999,3.181 14.980,3.117 14.943,3.060 C14.933,3.041 14.916,3.030 14.903,3.014 C14.883,2.990 14.870,2.963 14.843,2.946 C14.830,2.937 14.814,2.937 14.801,2.931 C14.791,2.926 14.786,2.914 14.776,2.910 L7.633,-0.006 C7.548,-0.042 7.452,-0.042 7.367,-0.006 L0.224,2.909 C0.214,2.914 0.209,2.924 0.199,2.931 C0.186,2.937 0.170,2.937 0.157,2.946 C0.132,2.963 0.117,2.990 0.097,3.014 C0.084,3.030 0.067,3.041 0.057,3.060 C0.022,3.117 0.001,3.181 -0.000,3.248 L-0.000,11.914 C-0.000,12.053 0.077,12.182 0.197,12.244 ZM0.996,3.999 L7.000,7.000 L7.000,15.000 L0.996,11.724 L0.996,3.999 ZM8.000,15.000 L8.000,7.000 L14.004,3.999 L14.004,11.724 L8.000,15.000 ZM7.501,1.007 L12.990,3.505 L7.501,6.002 L2.012,3.505 L7.501,1.007 Z"/>
</svg>