<svg 
 xmlns="http://www.w3.org/2000/svg"
 xmlns:xlink="http://www.w3.org/1999/xlink"
 width="16px" height="16px">
<path fill-rule="evenodd"  fill="rgb(255, 255, 255)"
 d="M14.390,16.000 L12.606,16.000 C11.720,15.999 11.001,15.296 11.000,14.429 L11.000,1.571 C11.001,0.704 11.719,0.001 12.605,-0.000 L14.389,-0.000 C15.276,0.001 15.994,0.704 15.995,1.571 L15.995,14.429 C15.994,15.296 15.276,15.999 14.390,16.000 ZM15.011,1.628 C15.011,1.278 14.727,0.994 14.376,0.994 L12.648,0.994 C12.298,0.993 12.013,1.277 12.013,1.628 L12.013,14.372 C12.013,14.722 12.297,15.006 12.647,15.006 L14.376,15.006 C14.727,15.006 15.011,14.722 15.011,14.372 L15.011,1.628 ZM13.002,6.008 L14.005,6.008 L14.005,6.994 L13.002,6.994 L13.002,6.008 ZM13.002,3.994 L14.005,3.994 L14.005,5.005 L13.002,5.005 L13.002,3.994 ZM13.002,2.005 L14.005,2.005 L14.005,2.991 L13.002,2.991 L13.002,2.005 ZM8.390,16.000 L7.606,16.000 C6.720,15.999 6.001,15.296 6.000,14.429 L6.000,1.571 C6.001,0.704 6.719,0.001 7.606,-0.000 L8.389,-0.000 C9.276,0.001 9.993,0.704 9.995,1.571 L9.995,14.429 C9.993,15.296 9.276,15.999 8.390,16.000 ZM9.011,1.628 C9.011,1.278 8.727,0.994 8.377,0.994 L7.648,0.994 C7.298,0.993 7.013,1.277 7.013,1.628 L7.013,14.372 C7.013,14.722 7.297,15.006 7.647,15.006 L8.377,15.006 C8.727,15.006 9.011,14.722 9.011,14.372 L9.011,1.628 ZM3.390,16.000 L1.606,16.000 C0.719,15.999 0.001,15.296 -0.000,14.429 L-0.000,1.571 C0.001,0.704 0.719,0.001 1.605,-0.000 L3.389,-0.000 C4.276,0.001 4.994,0.704 4.994,1.571 L4.994,14.429 C4.994,15.296 4.276,15.999 3.390,16.000 ZM4.011,1.628 C4.010,1.278 3.727,0.994 3.377,0.994 L1.648,0.994 C1.298,0.993 1.013,1.277 1.013,1.628 L1.013,14.372 C1.013,14.722 1.297,15.006 1.647,15.006 L3.377,15.006 C3.727,15.006 4.010,14.722 4.011,14.372 L4.011,1.628 ZM2.002,6.008 L3.005,6.008 L3.005,6.994 L2.002,6.994 L2.002,6.008 ZM2.002,3.994 L3.005,3.994 L3.005,5.005 L2.002,5.005 L2.002,3.994 ZM2.002,2.005 L3.005,2.005 L3.005,2.991 L2.002,2.991 L2.002,2.005 Z"/>
</svg>