<?xml version="1.0" encoding="utf-8"?>
<!-- Generator: Adobe Illustrator 24.2.3, SVG Export Plug-In . SVG Version: 6.00 Build 0)  -->
<svg version="1.1" id="图层_1" xmlns="http://www.w3.org/2000/svg" xmlns:xlink="http://www.w3.org/1999/xlink" x="0px" y="0px"
	 viewBox="0 0 32 32" enable-background="new 0 0 32 32" xml:space="preserve">
<g>
	<g>
		<g>
			<path d="M9,20c-0.23,0-0.47-0.08-0.66-0.25l-4-3.5C4.12,16.06,4,15.79,4,15.5s0.12-0.56,0.34-0.75l4-3.5
				c0.41-0.36,1.05-0.32,1.41,0.09c0.36,0.42,0.32,1.05-0.09,1.41L6.52,15.5l3.14,2.75c0.42,0.36,0.46,1,0.09,1.41
				C9.55,19.88,9.28,20,9,20z"/>
		</g>
	</g>
	<g>
		<g>
			<path d="M27,6H5C4.45,6,4,5.55,4,5s0.45-1,1-1h22c0.55,0,1,0.45,1,1S27.55,6,27,6z"/>
		</g>
	</g>
	<g>
		<g>
			<path d="M27,27H5c-0.55,0-1-0.45-1-1s0.45-1,1-1h22c0.55,0,1,0.45,1,1S27.55,27,27,27z"/>
		</g>
	</g>
	<g>
		<g>
			<path d="M27,20H13c-0.55,0-1-0.45-1-1s0.45-1,1-1h14c0.55,0,1,0.45,1,1S27.55,20,27,20z"/>
		</g>
	</g>
	<g>
		<g>
			<path d="M27,13H13c-0.55,0-1-0.45-1-1s0.45-1,1-1h14c0.55,0,1,0.45,1,1S27.55,13,27,13z"/>
		</g>
	</g>
</g>
</svg>
