<?xml version="1.0" encoding="utf-8"?>
<!-- Generator: Adobe Illustrator 24.2.3, SVG Export Plug-In . SVG Version: 6.00 Build 0)  -->
<svg version="1.1" id="图层_1" xmlns="http://www.w3.org/2000/svg" xmlns:xlink="http://www.w3.org/1999/xlink" x="0px" y="0px"
	 viewBox="0 0 32 32" enable-background="new 0 0 32 32" xml:space="preserve">
<g>
	<g>
		<g>
			<path d="M23,20c-0.28,0-0.55-0.12-0.75-0.34c-0.36-0.42-0.32-1.05,0.09-1.41l3.14-2.75l-3.14-2.75c-0.42-0.36-0.46-1-0.09-1.41
				c0.36-0.42,1-0.46,1.41-0.09l4,3.5C27.88,14.94,28,15.21,28,15.5s-0.12,0.56-0.34,0.75l-4,3.5C23.47,19.92,23.23,20,23,20z"/>
		</g>
	</g>
	<g>
		<g>
			<path d="M27,6H5C4.45,6,4,5.55,4,5s0.45-1,1-1h22c0.55,0,1,0.45,1,1S27.55,6,27,6z"/>
		</g>
	</g>
	<g>
		<g>
			<path d="M27,27H5c-0.55,0-1-0.45-1-1s0.45-1,1-1h22c0.55,0,1,0.45,1,1S27.55,27,27,27z"/>
		</g>
	</g>
	<g>
		<g>
			<path d="M19,20H5c-0.55,0-1-0.45-1-1s0.45-1,1-1h14c0.55,0,1,0.45,1,1S19.55,20,19,20z"/>
		</g>
	</g>
	<g>
		<g>
			<path d="M19,13H5c-0.55,0-1-0.45-1-1s0.45-1,1-1h14c0.55,0,1,0.45,1,1S19.55,13,19,13z"/>
		</g>
	</g>
</g>
</svg>
