<svg 
 xmlns="http://www.w3.org/2000/svg"
 xmlns:xlink="http://www.w3.org/1999/xlink"
 width="14px" height="14px">
<path fill-rule="evenodd"  fill="rgb(255, 255, 255)"
 d="M13.000,14.000 L9.000,14.000 C8.401,14.000 8.000,13.597 8.000,13.000 L8.000,7.000 C8.000,6.403 8.401,6.000 9.000,6.000 L13.000,6.000 C13.600,6.000 14.000,6.403 14.000,7.000 L14.000,13.000 C14.000,13.597 13.600,14.000 13.000,14.000 ZM13.000,7.000 L9.000,7.000 L9.000,13.000 L13.000,13.000 L13.000,7.000 ZM13.000,5.000 L9.000,5.000 C8.401,5.000 8.000,4.597 8.000,4.000 L8.000,1.000 C8.000,0.403 8.401,0.000 9.000,0.000 L13.000,0.000 C13.600,0.000 14.000,0.403 14.000,1.000 L14.000,4.000 C14.000,4.597 13.600,5.000 13.000,5.000 ZM13.000,1.000 L9.000,1.000 L9.000,4.000 L13.000,4.000 L13.000,1.000 ZM5.000,14.000 L1.000,14.000 C0.401,14.000 0.000,13.597 0.000,13.000 L0.000,10.000 C0.000,9.403 0.401,9.000 1.000,9.000 L5.000,9.000 C5.599,9.000 6.000,9.403 6.000,10.000 L6.000,13.000 C6.000,13.597 5.599,14.000 5.000,14.000 ZM5.000,10.000 L1.000,10.000 L1.000,13.000 L5.000,13.000 L5.000,10.000 ZM5.000,8.000 L1.000,8.000 C0.401,8.000 0.000,7.597 0.000,7.000 L0.000,1.000 C0.000,0.403 0.401,0.000 1.000,0.000 L5.000,0.000 C5.599,0.000 6.000,0.403 6.000,1.000 L6.000,7.000 C6.000,7.597 5.599,8.000 5.000,8.000 ZM5.000,1.000 L1.000,1.000 L1.000,7.000 L5.000,7.000 L5.000,1.000 Z"/>
</svg>