<svg 
 xmlns="http://www.w3.org/2000/svg"
 xmlns:xlink="http://www.w3.org/1999/xlink"
 width="15px" height="16px">
<path fill-rule="evenodd"  fill="rgb(255, 255, 255)"
 d="M9.268,11.754 L9.921,11.103 L11.227,12.406 L13.620,10.016 L14.273,10.668 L11.228,13.709 L9.268,11.754 ZM13.000,2.000 L10.000,2.000 L10.000,3.000 L4.000,3.000 L4.000,2.000 L1.000,2.000 L1.000,15.000 L6.000,15.000 L6.000,16.000 L-0.001,16.000 L0.000,1.000 L4.000,1.000 L4.000,0.000 L10.000,0.000 L10.000,1.000 L14.000,1.000 L14.000,7.000 L13.000,7.000 L13.000,2.000 ZM9.000,1.000 L5.000,1.000 L5.000,2.000 L9.000,2.000 L9.000,1.000 ZM2.988,4.991 L8.011,4.991 L8.011,6.013 L2.988,6.013 L2.988,4.991 ZM3.000,12.000 L3.000,11.000 L6.000,11.000 L6.000,12.000 L3.000,12.000 ZM3.000,8.000 L7.000,8.000 L7.000,9.000 L3.000,9.000 L3.000,8.000 ZM11.001,8.013 C11.657,8.013 12.303,8.174 12.882,8.482 L12.447,9.295 C10.946,8.496 9.080,9.062 8.279,10.559 C7.478,12.056 8.045,13.918 9.547,14.716 C11.047,15.515 12.914,14.949 13.714,13.452 C13.952,13.007 14.077,12.511 14.077,12.006 L15.000,12.006 C14.999,14.210 13.209,15.996 11.001,16.000 L10.999,16.000 C8.788,16.000 6.996,14.212 6.997,12.006 C6.997,9.800 8.790,8.013 11.001,8.013 Z"/>
</svg>