<svg 
 xmlns="http://www.w3.org/2000/svg"
 xmlns:xlink="http://www.w3.org/1999/xlink"
 width="17px" height="16px">
<path fill-rule="evenodd"  fill="rgb(255, 255, 255)"
 d="M15.000,16.000 L2.000,16.000 C0.847,16.000 0.000,15.186 0.000,14.000 L0.000,6.000 L2.695,0.693 C2.883,0.273 3.310,-0.000 3.782,-0.000 L13.195,-0.000 C13.666,-0.000 14.093,0.271 14.280,0.691 L17.000,6.000 L17.000,14.000 C17.000,15.289 16.284,16.000 15.000,16.000 ZM8.000,1.000 L4.000,1.000 C4.000,1.000 3.609,1.341 3.422,1.763 L1.000,6.000 L8.000,6.000 L8.000,1.000 ZM13.558,1.761 C13.370,1.341 13.000,1.000 13.000,1.000 L9.000,1.000 L9.000,6.000 L16.000,6.000 L13.558,1.761 ZM16.000,7.000 L1.000,7.000 L1.000,14.000 C1.000,14.617 1.386,15.000 2.000,15.000 L15.000,15.000 C15.614,15.000 16.000,14.617 16.000,14.000 L16.000,7.000 ZM12.483,13.006 L7.541,13.006 C7.248,13.006 7.012,12.780 7.012,12.502 C7.012,12.223 7.248,11.997 7.541,11.997 L12.483,11.997 C12.775,11.997 13.012,12.223 13.012,12.502 C13.012,12.780 12.775,13.006 12.483,13.006 ZM12.454,11.003 L9.520,11.003 C9.225,11.003 8.986,10.781 8.988,10.508 C8.988,10.235 9.226,10.013 9.520,10.013 L12.454,10.013 C12.747,10.013 12.985,10.235 12.985,10.508 C12.985,10.781 12.747,11.003 12.454,11.003 Z"/>
</svg>