<svg 
 xmlns="http://www.w3.org/2000/svg"
 xmlns:xlink="http://www.w3.org/1999/xlink"
 width="16px" height="16px">
<path fill-rule="evenodd"  fill="rgb(255, 255, 255)"
 d="M11.500,15.998 C8.994,15.998 7.002,14.006 7.002,11.500 C7.002,8.994 9.058,7.002 11.500,7.002 C14.007,7.002 16.063,8.994 16.000,11.500 C16.000,14.006 14.007,15.998 11.500,15.998 ZM11.500,7.956 C9.539,7.956 7.947,9.548 7.947,11.507 C7.947,13.466 9.539,15.058 11.500,15.058 C13.461,15.058 15.054,13.466 15.054,11.507 C15.054,9.548 13.461,7.956 11.500,7.956 ZM13.068,12.258 L13.252,13.480 C13.252,13.673 13.191,13.802 13.068,13.930 C13.007,13.930 12.946,13.995 12.824,13.995 C12.762,13.995 12.701,13.995 12.640,13.930 L11.597,13.351 L10.556,13.930 C10.372,13.995 10.188,13.995 10.066,13.866 C9.943,13.737 9.882,13.609 9.882,13.416 L10.005,12.129 L9.147,11.293 C9.024,11.164 8.963,11.036 9.024,10.843 C9.086,10.650 9.208,10.521 9.392,10.521 L10.556,10.328 L11.108,9.235 C11.291,8.913 11.782,8.913 11.904,9.235 L12.456,10.328 L13.620,10.521 C13.803,10.585 13.926,10.650 13.987,10.843 C13.987,11.036 13.987,11.229 13.926,11.422 L13.068,12.258 ZM12.088,11.293 C11.965,11.229 11.843,11.164 11.782,11.036 L11.537,10.521 L11.291,11.036 C11.230,11.164 11.108,11.293 10.985,11.293 L10.434,11.357 L10.802,11.743 C10.924,11.808 10.924,12.000 10.924,12.129 L10.862,12.644 L11.353,12.386 C11.414,12.322 11.475,12.322 11.537,12.322 C11.598,12.322 11.659,12.322 11.721,12.386 L12.149,12.708 L12.088,12.129 C12.088,12.000 12.088,11.872 12.210,11.743 L12.640,11.357 L12.088,11.293 ZM13.000,2.000 L10.000,2.000 L10.000,3.000 L4.000,3.000 L4.000,2.000 L1.000,2.000 L1.000,15.000 L6.000,15.000 L6.000,16.000 L-0.001,16.000 L0.000,1.000 L4.000,1.000 L4.000,-0.000 L10.000,-0.000 L10.000,1.000 L14.000,1.000 L14.000,6.000 L13.000,6.000 L13.000,2.000 ZM9.000,1.000 L5.000,1.000 L5.000,2.000 L9.000,2.000 L9.000,1.000 ZM3.000,12.000 L3.000,11.000 L6.000,11.000 L6.000,12.000 L3.000,12.000 ZM2.988,4.991 L8.011,4.991 L8.011,6.013 L2.988,6.013 L2.988,4.991 ZM3.000,8.000 L7.000,8.000 L7.000,9.000 L3.000,9.000 L3.000,8.000 Z"/>
</svg>