<svg 
 xmlns="http://www.w3.org/2000/svg"
 xmlns:xlink="http://www.w3.org/1999/xlink"
 width="14px" height="16px">
<path fill-rule="evenodd"  fill="rgb(255, 255, 255)"
 d="M11.804,13.688 C10.214,15.088 7.569,15.816 7.254,15.952 C7.181,15.984 7.093,16.000 7.004,16.000 C6.915,16.000 6.826,15.984 6.745,15.944 C6.431,15.808 3.785,15.080 2.195,13.680 C0.105,11.841 -0.001,9.601 -0.001,7.209 L-0.001,3.665 C-0.001,3.417 0.144,3.185 0.370,3.073 L6.721,0.065 C6.899,-0.023 7.109,-0.023 7.286,0.065 L13.629,3.073 C13.855,3.177 14.000,3.409 14.000,3.665 L14.000,7.217 C14.000,9.609 13.894,11.848 11.804,13.688 ZM13.003,3.869 L7.004,1.013 L1.004,3.869 L1.004,7.199 C1.004,9.334 0.977,11.274 2.880,12.959 C4.158,14.088 6.501,14.759 7.004,14.996 C7.506,14.767 9.850,14.088 11.127,12.959 C13.039,11.274 13.003,9.334 13.003,7.199 L13.003,3.869 ZM10.620,10.931 C10.854,11.153 10.854,11.523 10.620,11.745 C10.491,11.852 10.344,11.910 10.189,11.910 C10.033,11.910 9.877,11.852 9.765,11.745 L9.273,11.277 C8.624,11.730 7.839,12.000 6.991,12.000 C4.786,12.000 2.989,10.207 2.989,8.003 C2.989,5.799 4.786,4.006 6.991,4.006 C9.195,4.006 10.992,5.799 10.992,8.003 C10.992,8.933 10.659,9.779 10.124,10.458 L10.620,10.931 ZM10.001,8.003 C10.001,6.346 8.657,5.001 7.006,5.001 C5.357,5.001 4.012,6.346 4.012,8.003 C4.012,9.660 5.357,11.005 7.006,11.005 C7.566,11.005 8.084,10.841 8.532,10.572 L7.967,10.034 C7.734,9.813 7.734,9.442 7.967,9.220 C8.201,8.998 8.590,8.998 8.823,9.220 L9.409,9.778 C9.776,9.280 10.001,8.670 10.001,8.003 Z"/>
</svg>