<svg 
 xmlns="http://www.w3.org/2000/svg"
 xmlns:xlink="http://www.w3.org/1999/xlink"
 width="16px" height="14px">
<path fill-rule="evenodd"  fill="rgb(255, 255, 255)"
 d="M14.489,-0.000 L1.509,-0.000 C0.677,-0.000 -0.000,0.676 -0.000,1.506 L-0.000,9.141 C-0.000,9.971 0.768,10.855 1.600,10.855 L6.000,11.000 L6.000,13.000 L4.000,13.000 C3.792,13.000 3.647,13.247 3.647,13.515 C3.647,13.782 3.792,14.000 4.000,14.000 L11.975,14.000 C12.183,14.000 12.352,13.782 12.352,13.515 C12.352,13.247 12.183,13.030 11.975,13.030 L10.000,13.000 L10.000,11.000 L14.400,10.855 C15.232,10.855 16.000,9.971 16.000,9.141 L16.000,1.506 C15.998,0.676 15.321,-0.000 14.489,-0.000 L14.489,-0.000 ZM1.733,1.002 L14.265,1.002 C14.667,1.002 14.993,1.310 14.993,1.689 L15.000,7.000 L1.000,7.000 L1.003,1.689 C1.003,1.311 1.331,1.002 1.733,1.002 ZM9.000,13.000 L7.000,13.000 L7.000,11.000 L9.000,11.000 L9.000,13.000 ZM14.233,10.000 L1.767,10.000 C1.362,10.000 0.988,9.511 0.988,9.000 L0.988,8.000 L15.012,8.000 L15.012,9.000 C15.012,9.508 14.638,10.000 14.233,10.000 Z"/>
</svg>