<svg 
 xmlns="http://www.w3.org/2000/svg"
 xmlns:xlink="http://www.w3.org/1999/xlink"
 width="16px" height="16px">
<path fill-rule="evenodd"  fill="rgb(255, 255, 255)"
 d="M15.959,4.214 L13.507,14.689 C13.411,15.100 13.150,15.454 12.784,15.668 C12.532,15.819 12.243,15.898 11.949,15.898 C11.825,15.898 11.702,15.883 11.582,15.856 C11.428,15.942 11.246,16.000 11.000,16.000 L1.000,16.000 C0.320,15.999 0.001,15.676 0.000,15.000 L0.000,2.000 C0.001,1.324 0.320,1.001 1.000,1.000 L2.000,1.000 L2.000,2.000 L1.000,2.000 L1.000,15.000 L11.000,15.000 L11.000,2.000 L10.000,2.000 L10.000,1.000 L11.000,1.000 C11.555,1.001 11.858,1.228 11.955,1.674 L14.737,2.318 C15.608,2.519 16.156,3.370 15.959,4.214 ZM14.531,3.199 L12.000,2.612 L12.000,14.984 C12.111,14.975 12.220,14.950 12.318,14.893 C12.471,14.804 12.759,14.572 12.800,14.400 L15.200,4.000 C15.284,3.641 14.914,3.287 14.531,3.199 ZM8.987,11.016 L3.013,11.016 L3.013,9.992 L8.987,9.992 L8.987,11.016 ZM3.013,5.992 L8.987,5.992 L8.987,7.016 L3.013,7.016 L3.013,5.992 ZM8.000,3.000 L4.000,3.000 C3.243,2.999 3.001,2.664 3.000,2.000 L3.000,1.000 C3.001,0.336 3.243,0.001 4.000,-0.000 L8.000,-0.000 C8.757,0.001 8.999,0.336 9.000,1.000 L9.000,2.000 C9.000,2.664 8.758,2.999 8.000,3.000 ZM8.000,1.000 L4.000,1.000 L4.000,2.000 L8.000,2.000 L8.000,1.000 Z"/>
</svg>