<svg 
 xmlns="http://www.w3.org/2000/svg"
 xmlns:xlink="http://www.w3.org/1999/xlink"
 width="16px" height="16px">
<path fill-rule="evenodd"  fill="rgb(255, 255, 255)"
 d="M15.535,6.500 L14.568,7.224 C14.638,7.739 14.638,8.262 14.568,8.777 L15.534,9.501 C15.746,9.633 15.899,9.836 15.964,10.072 C16.034,10.323 15.998,10.590 15.863,10.815 L14.452,13.183 C14.182,13.636 13.592,13.804 13.111,13.564 L11.980,13.118 C11.552,13.430 11.085,13.690 10.591,13.892 L10.425,15.066 C10.400,15.589 9.954,16.000 9.413,15.999 L6.587,15.999 C6.047,15.999 5.602,15.588 5.577,15.066 L5.411,13.892 C4.917,13.690 4.450,13.430 4.021,13.118 L2.892,13.564 C2.412,13.805 1.821,13.637 1.551,13.183 L0.138,10.816 C-0.133,10.363 0.012,9.783 0.467,9.501 L1.433,8.777 C1.363,8.261 1.363,7.739 1.433,7.223 L0.467,6.499 C0.013,6.217 -0.132,5.639 0.137,5.187 L1.549,2.818 C1.818,2.364 2.408,2.196 2.889,2.435 L4.019,2.881 C4.448,2.570 4.915,2.309 5.409,2.107 L5.576,0.935 C5.601,0.411 6.046,0.000 6.587,0.001 L9.413,0.001 C9.954,0.000 10.399,0.412 10.424,0.935 L10.590,2.108 C11.084,2.310 11.551,2.570 11.980,2.882 L13.110,2.436 C13.591,2.196 14.181,2.364 14.451,2.818 L15.862,5.185 C16.133,5.638 15.989,6.216 15.535,6.500 ZM13.683,3.407 L11.913,4.133 L11.624,3.899 C11.116,3.489 10.535,3.170 9.908,2.956 L9.553,2.834 L9.292,1.004 L6.708,1.004 L6.447,2.832 L6.093,2.954 C5.467,3.169 4.886,3.488 4.376,3.898 L4.089,4.130 L2.302,3.433 L1.010,5.570 L2.538,6.700 L2.472,7.054 C2.411,7.366 2.380,7.683 2.378,8.000 C2.380,8.317 2.411,8.634 2.471,8.945 L2.537,9.299 L1.010,10.429 L2.318,12.592 L4.087,11.867 L4.377,12.100 C4.886,12.510 5.467,12.829 6.094,13.043 L6.447,13.165 L6.709,14.994 L9.293,14.994 L9.554,13.165 L9.907,13.043 C10.534,12.828 11.115,12.509 11.624,12.100 L11.911,11.868 L13.699,12.565 L14.990,10.428 L13.462,9.299 L13.529,8.946 C13.652,8.321 13.652,7.680 13.529,7.055 L13.462,6.701 L14.989,5.572 L13.683,3.407 ZM8.000,11.002 C6.352,11.002 5.011,9.655 5.011,8.000 C5.011,6.345 6.351,4.998 8.000,4.998 C9.650,4.998 10.990,6.344 10.990,8.000 C10.990,9.655 9.649,11.002 8.000,11.002 ZM8.000,6.000 C6.923,6.001 6.002,6.918 6.000,8.000 C6.000,9.081 6.924,10.000 8.000,10.000 C9.078,9.999 9.999,9.083 10.000,8.000 C10.000,6.919 9.077,6.000 8.000,6.000 Z"/>
</svg>