<svg 
 xmlns="http://www.w3.org/2000/svg"
 xmlns:xlink="http://www.w3.org/1999/xlink"
 width="14px" height="16px">
<path fill-rule="evenodd"  fill="rgb(255, 255, 255)"
 d="M9.797,13.169 L9.797,13.752 C9.797,14.044 9.297,14.000 9.000,14.000 L5.000,14.000 C4.704,14.000 4.203,14.044 4.203,13.752 L4.203,13.168 C1.674,12.083 0.000,9.599 0.000,6.874 C0.000,3.083 3.140,-0.000 7.000,-0.000 C10.860,-0.000 14.000,3.083 14.000,6.874 C14.000,9.599 12.326,12.083 9.797,13.169 ZM7.000,1.000 C3.733,1.000 1.000,3.791 1.000,7.000 C1.000,9.411 2.623,11.473 4.928,12.320 C5.138,12.397 5.277,12.594 5.277,12.814 L5.000,13.000 L9.000,13.000 L8.723,12.814 C8.723,12.594 8.862,12.397 9.072,12.320 C11.377,11.473 13.000,9.411 13.000,7.000 C13.000,3.791 10.268,1.000 7.000,1.000 ZM8.686,9.278 C8.591,9.427 8.425,9.518 8.246,9.523 L8.233,9.523 C8.058,9.523 7.895,9.439 7.794,9.299 L5.834,6.564 L4.143,9.271 C4.041,9.433 3.865,9.523 3.684,9.523 C3.588,9.523 3.492,9.498 3.404,9.445 C3.152,9.293 3.072,8.968 3.227,8.720 L5.345,5.330 C5.439,5.178 5.605,5.084 5.786,5.078 C5.951,5.063 6.138,5.157 6.241,5.302 L8.210,8.047 L9.970,5.322 C10.128,5.077 10.459,5.004 10.711,5.160 L10.711,5.160 C10.961,5.315 11.035,5.642 10.877,5.887 L8.686,9.278 ZM5.000,15.000 L9.000,15.000 C9.297,15.000 9.596,15.181 9.596,15.473 C9.596,15.764 9.297,16.000 9.000,16.000 L5.000,16.000 C4.704,16.000 4.404,15.764 4.404,15.473 C4.404,15.181 4.704,15.000 5.000,15.000 Z"/>
</svg>