<svg 
 xmlns="http://www.w3.org/2000/svg"
 xmlns:xlink="http://www.w3.org/1999/xlink"
 width="14px" height="16px">
<path fill-rule="evenodd"  fill="rgb(255, 255, 255)"
 d="M7.230,15.906 L6.987,16.000 L6.749,15.897 C2.208,13.939 0.000,12.261 0.000,10.000 L0.000,2.000 C1.965,2.000 4.593,1.575 6.661,0.241 L7.036,0.000 L7.382,0.272 C8.702,1.309 11.272,1.721 14.000,2.000 L14.000,10.000 C14.000,12.424 11.723,14.163 7.230,15.906 ZM13.000,3.000 C10.506,2.692 8.371,2.292 6.973,1.329 C5.024,2.519 2.908,2.888 1.000,3.000 L1.000,10.000 C1.000,11.753 3.133,13.134 7.012,14.842 C10.876,13.304 13.000,11.923 13.000,10.000 L13.000,3.000 ZM7.825,10.268 C7.618,10.513 7.310,10.655 6.984,10.655 C6.684,10.655 6.386,10.534 6.172,10.300 L4.111,8.031 C3.913,7.813 3.934,7.480 4.159,7.287 C4.383,7.094 4.725,7.115 4.923,7.333 L6.985,9.602 L10.330,5.606 C10.518,5.380 10.860,5.347 11.091,5.530 C11.323,5.714 11.359,6.046 11.170,6.272 L7.825,10.268 Z"/>
</svg>