<svg 
 xmlns="http://www.w3.org/2000/svg"
 xmlns:xlink="http://www.w3.org/1999/xlink"
 width="14px" height="14px">
<path fill-rule="evenodd"  fill="rgb(255, 255, 255)"
 d="M12.000,14.000 L2.000,14.000 C0.951,14.000 0.000,13.051 0.000,12.000 L0.000,2.000 C0.000,0.949 1.000,0.000 2.000,0.000 L6.566,0.000 C6.801,0.000 6.991,0.211 6.991,0.469 C6.991,0.727 6.801,0.936 6.566,0.936 L2.000,1.000 C1.468,1.000 1.000,1.442 1.000,2.000 L1.000,12.000 C1.000,12.558 1.442,13.000 2.000,13.000 L12.000,13.000 C12.558,13.000 13.000,12.558 13.000,12.000 L13.000,2.000 C13.000,1.442 12.558,1.000 12.000,1.000 L11.000,1.000 L10.984,8.492 C10.984,8.907 10.807,9.305 10.486,9.610 L8.263,11.714 C7.868,12.088 7.126,12.088 6.731,11.714 L4.510,9.610 C4.188,9.306 4.012,8.908 4.012,8.492 L4.012,3.200 C4.012,2.955 4.236,2.757 4.513,2.757 C4.790,2.757 5.014,2.955 5.014,3.200 L5.014,8.492 C5.014,8.684 5.096,8.865 5.244,9.006 L7.466,11.110 L9.753,9.006 C9.900,8.865 9.981,8.684 9.981,8.492 L10.000,0.000 L12.000,0.000 C13.049,0.000 14.000,0.949 14.000,2.000 L14.000,12.000 C14.000,13.051 13.049,14.000 12.000,14.000 ZM7.498,9.244 C7.220,9.244 6.997,9.046 6.997,8.801 L6.997,3.193 C6.997,2.948 7.220,2.750 7.498,2.750 C7.775,2.750 7.999,2.948 7.999,3.193 L7.999,8.801 C7.999,9.046 7.775,9.244 7.498,9.244 Z"/>
</svg>