<svg 
 xmlns="http://www.w3.org/2000/svg"
 xmlns:xlink="http://www.w3.org/1999/xlink"
 width="14px" height="14px">
<path fill-rule="evenodd"  fill="rgb(255, 255, 255)"
 d="M13.611,6.014 C13.336,6.080 13.069,5.870 13.014,5.545 L13.000,2.000 C12.984,1.520 12.471,1.000 12.000,1.000 L8.573,0.987 C8.264,0.987 8.014,0.765 8.014,0.491 C8.018,0.220 8.267,0.001 8.573,0.001 L12.018,0.001 C13.108,0.018 13.988,0.920 14.000,2.034 L14.000,5.576 C13.951,5.798 13.800,5.968 13.611,6.014 ZM8.924,7.216 L7.015,9.786 C6.913,9.921 6.748,10.001 6.571,10.003 C6.460,10.006 6.350,9.973 6.262,9.911 C6.258,9.909 6.255,9.907 6.251,9.905 C5.997,9.757 5.920,9.445 6.078,9.207 L7.769,6.933 L6.085,4.803 C5.909,4.576 5.962,4.258 6.205,4.093 C6.449,3.928 6.789,3.978 6.966,4.205 L8.895,6.624 C9.040,6.795 9.052,7.033 8.924,7.216 ZM5.545,0.986 L2.000,1.000 C1.520,1.016 1.000,1.529 1.000,2.000 L0.988,5.427 C0.988,5.736 0.766,5.986 0.491,5.986 C0.219,5.982 0.002,5.733 0.002,5.427 L0.002,1.982 C0.018,0.891 0.920,0.012 2.034,0.000 L5.576,0.000 C5.798,0.049 5.968,0.200 6.014,0.390 C6.080,0.664 5.870,0.931 5.545,0.986 ZM3.212,4.093 C3.452,3.928 3.789,3.978 3.965,4.205 L5.883,6.624 C6.018,6.801 6.018,7.039 5.883,7.216 L3.965,9.786 C3.874,9.908 3.732,9.988 3.574,10.003 C3.464,10.006 3.356,9.973 3.267,9.911 C3.259,9.907 3.252,9.902 3.245,9.898 C2.998,9.749 2.927,9.439 3.086,9.207 L4.760,6.933 L3.093,4.803 C2.918,4.576 2.971,4.258 3.212,4.093 ZM0.390,7.986 C0.663,7.920 0.931,8.130 0.987,8.455 L1.000,12.000 C1.016,12.481 1.529,13.000 2.000,13.000 L5.427,13.012 C5.736,13.012 5.986,13.235 5.986,13.509 C5.982,13.780 5.733,13.999 5.427,13.999 L1.982,13.999 C0.891,13.982 0.013,13.081 0.000,11.966 L0.000,8.424 C0.049,8.202 0.200,8.032 0.390,7.986 ZM9.208,4.093 C9.451,3.928 9.792,3.978 9.969,4.205 L11.884,6.624 C12.019,6.801 12.019,7.038 11.884,7.216 L9.976,9.786 C9.872,9.922 9.704,10.002 9.525,10.003 C9.414,10.004 9.306,9.972 9.215,9.911 C9.212,9.909 9.209,9.907 9.205,9.904 C8.965,9.744 8.910,9.432 9.082,9.207 L10.765,6.933 L9.089,4.803 C8.911,4.576 8.965,4.258 9.208,4.093 ZM8.455,13.014 L12.000,13.000 C12.481,12.984 13.000,12.471 13.000,12.000 L13.013,8.573 C13.013,8.264 13.235,8.014 13.509,8.014 C13.780,8.018 13.999,8.267 13.999,8.573 L13.999,12.018 C13.982,13.109 13.081,13.988 11.966,14.000 L8.424,14.000 C8.202,13.951 8.032,13.800 7.986,13.610 C7.920,13.336 8.130,13.069 8.455,13.014 Z"/>
</svg>