<?xml version="1.0" encoding="utf-8"?>
<!-- Generator: Adobe Illustrator 24.2.3, SVG Export Plug-In . SVG Version: 6.00 Build 0)  -->
<svg version="1.1" id="图层_1" xmlns="http://www.w3.org/2000/svg" xmlns:xlink="http://www.w3.org/1999/xlink" x="0px" y="0px"
	 viewBox="0 0 32 32" enable-background="new 0 0 32 32" xml:space="preserve">
<g>
	<g>
		<g>
			<path d="M16,29c-0.26,0-0.51-0.1-0.71-0.29L12.59,26H4c-0.55,0-1-0.45-1-1V5c0-0.55,0.45-1,1-1h24c0.55,0,1,0.45,1,1v20
				c0,0.55-0.45,1-1,1h-8.59l-2.71,2.71C16.51,28.9,16.26,29,16,29z M5,24h8c0.27,0,0.52,0.11,0.71,0.29L16,26.59l2.29-2.29
				C18.48,24.11,18.73,24,19,24h8V6H5V24z"/>
		</g>
	</g>
	<g>
		<g>
			<path d="M10,16c-0.06,0-0.13-0.01-0.2-0.02c-0.06-0.01-0.12-0.03-0.18-0.06c-0.06-0.02-0.12-0.05-0.18-0.09
				c-0.05-0.04-0.1-0.08-0.15-0.12C9.11,15.52,9,15.26,9,15c0-0.26,0.11-0.52,0.29-0.71c0.23-0.23,0.58-0.34,0.9-0.27
				c0.07,0.01,0.13,0.03,0.19,0.06c0.06,0.02,0.12,0.05,0.17,0.09c0.06,0.04,0.11,0.08,0.16,0.12C10.89,14.48,11,14.74,11,15
				c0,0.26-0.11,0.52-0.29,0.71c-0.05,0.04-0.1,0.08-0.16,0.12c-0.05,0.04-0.11,0.07-0.17,0.09c-0.06,0.03-0.12,0.05-0.19,0.06
				C10.13,15.99,10.06,16,10,16z"/>
		</g>
	</g>
	<g>
		<g>
			<path d="M16,16c-0.26,0-0.52-0.11-0.71-0.29C15.11,15.52,15,15.26,15,15c0-0.26,0.11-0.52,0.29-0.71c0.1-0.09,0.2-0.16,0.33-0.21
				c0.36-0.15,0.81-0.07,1.09,0.21C16.89,14.48,17,14.74,17,15c0,0.26-0.11,0.52-0.29,0.71C16.52,15.89,16.26,16,16,16z"/>
		</g>
	</g>
	<g>
		<g>
			<path d="M22,16c-0.27,0-0.52-0.11-0.71-0.29C21.11,15.52,21,15.27,21,15c0-0.13,0.03-0.26,0.08-0.38
				c0.05-0.13,0.12-0.23,0.21-0.33c0.37-0.37,1.04-0.37,1.42,0C22.89,14.48,23,14.74,23,15c0,0.26-0.11,0.52-0.29,0.71
				c-0.1,0.09-0.21,0.16-0.33,0.21C22.26,15.97,22.13,16,22,16z"/>
		</g>
	</g>
</g>
</svg>
