<?xml version="1.0" encoding="utf-8"?>
<!-- Generator: Adobe Illustrator 24.2.3, SVG Export Plug-In . SVG Version: 6.00 Build 0)  -->
<svg version="1.1" id="图层_1" xmlns="http://www.w3.org/2000/svg" xmlns:xlink="http://www.w3.org/1999/xlink" x="0px" y="0px"
	 viewBox="0 0 32 32" enable-background="new 0 0 32 32" xml:space="preserve">
<g>
	<g>
		<path d="M25,2H7C6.45,2,6,2.45,6,3v26c0,0.55,0.45,1,1,1h18c0.55,0,1-0.45,1-1V3C26,2.45,25.55,2,25,2z M24,4v18H8V4H24z M8,28v-4
			h16v4H8z"/>
	</g>
	<g>
		<path d="M16.71,25.29c-0.28-0.27-0.72-0.36-1.09-0.21c-0.12,0.05-0.23,0.12-0.33,0.21c-0.09,0.1-0.16,0.2-0.21,0.33
			C15.03,25.74,15,25.87,15,26c0,0.26,0.11,0.52,0.29,0.71c0.1,0.09,0.2,0.16,0.33,0.21C15.74,26.97,15.87,27,16,27
			c0.26,0,0.52-0.11,0.71-0.29C16.89,26.52,17,26.26,17,26c0-0.13-0.03-0.26-0.08-0.38C16.87,25.49,16.8,25.39,16.71,25.29z"/>
	</g>
</g>
</svg>
