<?xml version="1.0" encoding="utf-8"?>
<!-- Generator: Adobe Illustrator 24.2.3, SVG Export Plug-In . SVG Version: 6.00 Build 0)  -->
<svg version="1.1" id="图层_1" xmlns="http://www.w3.org/2000/svg" xmlns:xlink="http://www.w3.org/1999/xlink" x="0px" y="0px"
	 viewBox="0 0 32 32" enable-background="new 0 0 32 32" xml:space="preserve">
<g>
	<g>
		<path d="M8.45,11.83l6,4C14.61,15.94,14.81,16,15,16s0.39-0.06,0.55-0.17l6-4C21.83,11.65,22,11.33,22,11V3c0-0.55-0.45-1-1-1H9
			C8.45,2,8,2.45,8,3v8C8,11.33,8.17,11.65,8.45,11.83z M10,4h10v6.46l-5,3.33l-5-3.33V4z"/>
	</g>
	<g>
		<path d="M29.64,23.23l-4.89-4.07c-0.9-0.75-2.03-1.16-3.2-1.16H14c-0.55,0-1,0.45-1,1v0.21c0,0.91,0.41,1.74,1.06,2.29H9.82
			L7.1,19.56C6.59,19.19,5.99,19,5.36,19H3.6c-0.67,0-1.26,0.41-1.5,1.04c-0.24,0.63-0.06,1.32,0.44,1.77l5.67,4.96
			C9.12,27.56,10.29,28,11.5,28h8.29c0.59,0,1.17,0.17,1.66,0.5l1.99,1.33C23.61,29.94,23.81,30,24,30c0.26,0,0.51-0.1,0.71-0.29
			l5-5c0.2-0.2,0.3-0.47,0.29-0.75S29.86,23.41,29.64,23.23z M23.87,27.71l-1.31-0.87C21.74,26.29,20.78,26,19.79,26H11.5
			c-0.73,0-1.43-0.26-1.98-0.74L4.66,21h0.7c0.21,0,0.41,0.06,0.58,0.19l2.98,2.13c0.17,0.12,0.37,0.19,0.58,0.19h8
			c0.27,0,0.52-0.11,0.71-0.29l1-1c0.27-0.27,0.36-0.68,0.24-1.04c-0.13-0.36-0.45-0.62-0.83-0.66l-2.72-0.3
			c-0.19-0.02-0.36-0.09-0.5-0.2h6.17c0.7,0,1.38,0.25,1.92,0.7l4.05,3.37L23.87,27.71z"/>
	</g>
	<g>
		<path d="M18,7c0-0.55-0.45-1-1-1h-4c-0.55,0-1,0.45-1,1s0.45,1,1,1h4C17.55,8,18,7.55,18,7z"/>
	</g>
</g>
</svg>
