<?xml version="1.0" encoding="utf-8"?>
<!-- Generator: Adobe Illustrator 24.2.3, SVG Export Plug-In . SVG Version: 6.00 Build 0)  -->
<svg version="1.1" id="图层_1" xmlns="http://www.w3.org/2000/svg" xmlns:xlink="http://www.w3.org/1999/xlink" x="0px" y="0px"
	 viewBox="0 0 32 32" enable-background="new 0 0 32 32" xml:space="preserve">
<g>
	<g>
		<g>
			<path d="M7,27c-0.17,0-0.33-0.04-0.48-0.13C6.2,26.7,6,26.36,6,26V6c0-0.36,0.2-0.7,0.52-0.87c0.32-0.18,0.71-0.17,1.01,0.03
				l16,10C23.82,15.33,24,15.66,24,16s-0.18,0.67-0.47,0.85l-16,10C7.37,26.95,7.18,27,7,27z M8,7.8V24.2L21.11,16L8,7.8z"/>
		</g>
	</g>
	<g>
		<g>
			<path d="M25,27c-0.55,0-1-0.45-1-1V6c0-0.55,0.45-1,1-1s1,0.45,1,1v20C26,26.55,25.55,27,25,27z"/>
		</g>
	</g>
</g>
</svg>
