<svg xmlns="http://www.w3.org/2000/svg" viewBox="0 0 32 32"><title>提醒</title><g id="图层_3" data-name="图层 3"><g id="图层_3-2" data-name="图层 3"><path  d="M26.67,22H28a1.35,1.35,0,0,1,1.33,1.33h0A1.34,1.34,0,0,1,28,24.67H4a1.34,1.34,0,0,1-1.34-1.34h0A1.34,1.34,0,0,1,4,22H5.34V13A10.9,10.9,0,0,1,15.8,2,10.67,10.67,0,0,1,26.66,12.47a1.34,1.34,0,0,1,0,.2ZM24,22V12.67a8,8,0,0,0-16,0V22ZM13.34,27.33h5.33A1.34,1.34,0,0,1,20,28.67h0A1.34,1.34,0,0,1,18.67,30H13.34A1.32,1.32,0,0,1,12,28.67h0a1.33,1.33,0,0,1,1.32-1.34Z"/></g></g></svg>