<svg xmlns="http://www.w3.org/2000/svg" viewBox="0 0 32 32"><title>列表图标</title><g id="图层_3" data-name="图层 3"><path id="路径_1423" data-name="路径 1423" class="cls-1" d="M26.67,29.33H5.33A1.33,1.33,0,0,1,4,28V4A1.33,1.33,0,0,1,5.33,2.67H26.67A1.33,1.33,0,0,1,28,4V28A1.33,1.33,0,0,1,26.67,29.33Zm-1.34-2.66V5.33H6.67V26.67ZM12,9.33h8a1.33,1.33,0,0,1,1.33,1.34h0A1.33,1.33,0,0,1,20,12H12a1.33,1.33,0,0,1-1.33-1.33h0A1.33,1.33,0,0,1,12,9.33Zm0,5.34h8A1.32,1.32,0,0,1,21.33,16h0A1.32,1.32,0,0,1,20,17.33H12A1.32,1.32,0,0,1,10.67,16h0A1.32,1.32,0,0,1,12,14.67ZM12,20h8a1.33,1.33,0,0,1,1.33,1.33h0A1.32,1.32,0,0,1,20,22.66H12a1.32,1.32,0,0,1-1.33-1.33h0A1.33,1.33,0,0,1,12,20Z"/></g></svg>