<?xml version="1.0" encoding="utf-8"?>
<!-- Generator: Adobe Illustrator 24.2.3, SVG Export Plug-In . SVG Version: 6.00 Build 0)  -->
<svg version="1.1" id="图层_1" xmlns="http://www.w3.org/2000/svg" xmlns:xlink="http://www.w3.org/1999/xlink" x="0px" y="0px"
	 viewBox="0 0 32 32" enable-background="new 0 0 32 32" xml:space="preserve">
<g>
	<g>
		<g>
			<path d="M13,22c-0.55,0-1-0.45-1-1V11c0-0.55,0.45-1,1-1s1,0.45,1,1v10C14,21.55,13.55,22,13,22z"/>
		</g>
	</g>
	<g>
		<g>
			<path d="M19,22c-0.55,0-1-0.45-1-1V11c0-0.55,0.45-1,1-1s1,0.45,1,1v10C20,21.55,19.55,22,19,22z"/>
		</g>
	</g>
	<g>
		<g>
			<path d="M16,30C8.28,30,2,23.72,2,16S8.28,2,16,2s14,6.28,14,14S23.72,30,16,30z M16,4C9.38,4,4,9.38,4,16s5.38,12,12,12
				s12-5.38,12-12S22.62,4,16,4z"/>
		</g>
	</g>
</g>
</svg>
