<?xml version="1.0" encoding="utf-8"?>
<!-- Generator: Adobe Illustrator 24.2.3, SVG Export Plug-In . SVG Version: 6.00 Build 0)  -->
<svg version="1.1" id="图层_1" xmlns="http://www.w3.org/2000/svg" xmlns:xlink="http://www.w3.org/1999/xlink" x="0px" y="0px"
	 viewBox="0 0 32 32" enable-background="new 0 0 32 32" xml:space="preserve">
<g>
	<g>
		<g>
			<g>
				<path d="M28,27H4c-0.55,0-1-0.45-1-1V8c0-0.55,0.45-1,1-1h6.59l1.71-1.71C12.48,5.11,12.73,5,13,5h6c0.27,0,0.52,0.11,0.71,0.29
					L21.41,7H28c0.55,0,1,0.45,1,1v18C29,26.55,28.55,27,28,27z M5,25h22V9h-6c-0.27,0-0.52-0.11-0.71-0.29L18.59,7h-5.17
					l-1.71,1.71C11.52,8.89,11.27,9,11,9H5V25z"/>
			</g>
		</g>
		<g>
			<g>
				<path d="M16,22c-2.76,0-5-2.24-5-5s2.24-5,5-5s5,2.24,5,5S18.76,22,16,22z M16,14c-1.65,0-3,1.35-3,3s1.35,3,3,3s3-1.35,3-3
					S17.65,14,16,14z"/>
			</g>
		</g>
	</g>
	<g>
		<g>
			<path d="M8,13c-0.27,0-0.52-0.11-0.71-0.29C7.11,12.52,7,12.26,7,12c0-0.27,0.11-0.52,0.29-0.71c0.23-0.23,0.58-0.33,0.9-0.27
				c0.07,0.01,0.13,0.03,0.19,0.06c0.06,0.02,0.12,0.05,0.18,0.09c0.05,0.03,0.1,0.08,0.15,0.12C8.89,11.48,9,11.74,9,12
				c0,0.26-0.11,0.52-0.29,0.71c-0.05,0.04-0.1,0.08-0.15,0.12c-0.06,0.04-0.12,0.07-0.18,0.09c-0.06,0.03-0.12,0.05-0.19,0.06
				C8.13,12.99,8.06,13,8,13z"/>
		</g>
	</g>
</g>
</svg>
