<?xml version="1.0" standalone="no"?><!DOCTYPE svg PUBLIC "-//W3C//DTD SVG 1.1//EN" "http://www.w3.org/Graphics/SVG/1.1/DTD/svg11.dtd"><svg t="1606899237741" class="icon" viewBox="0 0 1024 1024" version="1.1" xmlns="http://www.w3.org/2000/svg" p-id="14845" xmlns:xlink="http://www.w3.org/1999/xlink" width="200" height="200"><defs><style type="text/css"></style></defs><path d="M512 1023.146667c282.773333 0 512-228.288 512-509.888C1024 231.637333 794.773333 3.349333 512 3.349333S0 231.637333 0 513.258667c0 281.6 229.226667 509.888 512 509.888z" fill="#FFFFFF" p-id="14846"></path><path d="M512 3.349333C229.248 3.349333 0 231.658667 0 513.258667 0 729.386667 134.848 914.048 325.312 988.309333c-4.629333-40.277333-8.426667-102.378667 1.685333-146.453333 9.28-39.872 59.84-253.482667 59.84-253.482667s-15.168-30.634667-15.168-75.541333c0-70.933333 41.301333-123.797333 92.714667-123.797333 43.818667 0 64.896 32.725333 64.896 71.765333 0 43.626667-27.818667 109.098667-42.56 169.962667-12.224 50.773333 25.706667 92.330667 75.84 92.330666 91.029333 0 160.981333-95.68 160.981333-233.344 0-122.133333-88.064-207.317333-214.058666-207.317333-145.813333 0-231.36 108.693333-231.36 221.162667 0 43.648 16.853333 90.645333 37.930666 116.245333a15.189333 15.189333 0 0 1 3.370667 14.698667c-3.797333 15.936-12.650667 50.773333-14.336 57.92-2.090667 9.216-7.573333 11.328-17.28 6.698666-64.042667-29.781333-104.085333-122.538667-104.085333-197.653333 0-160.746667 117.162667-308.458667 338.389333-308.458667 177.408 0 315.626667 125.888 315.626667 294.613334 0 175.829333-111.253333 317.269333-265.472 317.269333-51.84 0-100.714667-26.858667-117.162667-58.752l-32.021333 121.28c-11.370667 44.48-42.56 99.882667-63.637334 133.866667A516.010667 516.010667 0 0 0 511.168 1024c282.752 0 512-228.309333 512-509.909333C1024 231.658667 794.752 3.349333 512 3.349333z" fill="#E60019" p-id="14847"></path></svg>