<?xml version="1.0" encoding="utf-8"?>
<!-- Generator: Adobe Illustrator 24.2.3, SVG Export Plug-In . SVG Version: 6.00 Build 0)  -->
<svg version="1.1" id="图层_1" xmlns="http://www.w3.org/2000/svg" xmlns:xlink="http://www.w3.org/1999/xlink" x="0px" y="0px"
	 viewBox="0 0 32 32" enable-background="new 0 0 32 32" xml:space="preserve">
<g>
	<g>
		<g>
			<g>
				<path d="M13,22c-0.17,0-0.33-0.04-0.48-0.13C12.2,21.7,12,21.36,12,21V11c0-0.36,0.2-0.7,0.52-0.87
					c0.32-0.18,0.71-0.17,1.01,0.03l8,5C21.82,15.33,22,15.66,22,16s-0.18,0.67-0.47,0.85l-8,5C13.37,21.95,13.18,22,13,22z
					 M14,12.8v6.39l5.11-3.2L14,12.8z"/>
			</g>
		</g>
	</g>
	<g>
		<g>
			<path d="M16,30C8.28,30,2,23.72,2,16S8.28,2,16,2s14,6.28,14,14S23.72,30,16,30z M16,4C9.38,4,4,9.38,4,16s5.38,12,12,12
				s12-5.38,12-12S22.62,4,16,4z"/>
		</g>
	</g>
</g>
</svg>
