<?xml version="1.0" encoding="utf-8"?>
<!-- Generator: Adobe Illustrator 24.2.3, SVG Export Plug-In . SVG Version: 6.00 Build 0)  -->
<svg version="1.1" id="图层_1" xmlns="http://www.w3.org/2000/svg" xmlns:xlink="http://www.w3.org/1999/xlink" x="0px" y="0px"
	 viewBox="0 0 32 32" enable-background="new 0 0 32 32" xml:space="preserve">
<g>
	<g>
		<g>
			<path d="M25,27c-0.18,0-0.37-0.05-0.53-0.15l-16-10C8.18,16.67,8,16.34,8,16s0.18-0.67,0.47-0.85l16-10
				c0.31-0.19,0.7-0.2,1.01-0.03C25.8,5.3,26,5.64,26,6v20c0,0.36-0.2,0.7-0.52,0.87C25.33,26.96,25.17,27,25,27z M10.89,16L24,24.2
				V7.8L10.89,16z"/>
		</g>
	</g>
	<g>
		<g>
			<path d="M7,27c-0.55,0-1-0.45-1-1V6c0-0.55,0.45-1,1-1s1,0.45,1,1v20C8,26.55,7.55,27,7,27z"/>
		</g>
	</g>
</g>
</svg>
