<?xml version="1.0" encoding="utf-8"?>
<!-- Generator: Adobe Illustrator 24.2.3, SVG Export Plug-In . SVG Version: 6.00 Build 0)  -->
<svg version="1.1" id="图层_1" xmlns="http://www.w3.org/2000/svg" xmlns:xlink="http://www.w3.org/1999/xlink" x="0px" y="0px"
	 viewBox="0 0 32 32" enable-background="new 0 0 32 32" xml:space="preserve">
<g>
	<path d="M25.92,25.86C28.44,23.33,30,19.84,30,16c0-7.72-6.28-14-14-14c-3.84,0-7.33,1.56-9.86,4.08C6.12,6.09,6.11,6.09,6.1,6.1
		S6.09,6.13,6.08,6.14C3.56,8.67,2,12.16,2,16c0,7.72,6.28,14,14,14c3.84,0,7.33-1.56,9.86-4.08c0.01-0.01,0.02-0.01,0.04-0.02
		S25.91,25.87,25.92,25.86z M28,16c0,2.95-1.07,5.65-2.85,7.74L8.26,6.85C10.35,5.07,13.05,4,16,4C22.62,4,28,9.38,28,16z M4,16
		c0-2.95,1.07-5.65,2.85-7.74l16.9,16.9C21.65,26.93,18.95,28,16,28C9.38,28,4,22.62,4,16z"/>
</g>
</svg>
