<?xml version="1.0" standalone="no"?><!DOCTYPE svg PUBLIC "-//W3C//DTD SVG 1.1//EN" "http://www.w3.org/Graphics/SVG/1.1/DTD/svg11.dtd"><svg t="1593138249729" class="icon" viewBox="0 0 1152 1024" version="1.1" xmlns="http://www.w3.org/2000/svg" p-id="3819" xmlns:xlink="http://www.w3.org/1999/xlink" width="144" height="128"><defs><style type="text/css"></style></defs><path d="M550.960089 59.859378 546.863732 57.374797C555.921944 69.33185 555.671145 63.968923 550.960089 59.859378L550.960089 59.859378ZM31.2497 582.315815 495.312878 790.939514C536.300983 810.259595 553.981417 810.259595 598.411572 790.939514L1062.476257 582.314307C1085.358947 571.676207 1093.725955 521.456058 1093.725955 494.391369 1063.923002 509.33203 1021.681052 530.609737 1020.820535 530.843325L546.863732 749.324488 72.903912 530.843327C74.507389 531.862076 30.975422 512.148664 0 494.391371 0 520.83215 6.649001 569.25291 31.2497 582.315815L31.2497 582.315815ZM546.863732 967.882502 72.903912 749.327502C74.507389 750.344744 30.975422 730.631331 0 712.952402 0 739.391678 6.649001 787.812437 31.2497 800.876848L495.312878 1009.419169C536.300983 1028.817609 553.981417 1028.817609 598.411572 1009.419169L1062.476257 800.873833C1085.358947 790.157368 1093.725955 739.934202 1093.725955 712.949388 1063.923002 727.810178 1021.681052 749.164742 1020.820535 749.324488L546.863732 967.882502 546.863732 967.882502ZM31.2497 363.836161 495.312878 572.459861C536.300983 591.781447 553.981417 591.781447 598.411572 572.459861L1062.476257 363.836161C1096.620956 347.878258 1097.796433 280.135913 1062.476257 260.815832L598.413079 15.798951C561.961124-5.829893 536.30249-4.695101 495.314384 15.798951L31.2497 260.815834C-4.068972 283.579468-5.202255 344.516083 31.2497 363.836161L31.2497 363.836161ZM546.863732 57.374797C547.347487 57.533034 547.772469 57.781694 548.119084 58.049944L1020.822045 312.286814 546.863732 512.071805 72.903912 312.288322 546.863732 57.374797 546.863732 57.374797Z" p-id="3820"></path></svg>