<?xml version="1.0" encoding="UTF-8"?>
<svg width="16px" height="16px" viewBox="0 0 16 16" version="1.1" xmlns="http://www.w3.org/2000/svg" xmlns:xlink="http://www.w3.org/1999/xlink">
    <title>QQ</title>
    <g id="页面-1" stroke="none" stroke-width="1" fill="none" fill-rule="evenodd">
        <g id="各个平台图标" transform="translate(-341.000000, -276.000000)" fill-rule="nonzero">
            <g id="QQ" transform="translate(341.000000, 276.000000)">
                <rect id="矩形" fill="#000000" opacity="0" x="0" y="0" width="16" height="16"></rect>
                <path d="M7.98684766,14.4933203 C6.81786133,14.4933203 5.74483789,14.1284727 5.05398437,13.5835391 C4.70316406,13.6812793 4.25437109,13.8385879 3.97114453,14.0336309 C3.72881055,14.2004551 3.75901172,14.3706016 3.80270703,14.4392754 C3.99448242,14.741 7.09246094,14.6319395 7.98684766,14.5379727 L7.98684766,14.493334 L7.98684766,14.4933203 Z" id="路径" fill="#FAAD08"></path>
                <path d="M7.77613672,14.4933203 C8.94510937,14.4933203 10.0181465,14.1284727 10.7090137,13.5835391 C11.059834,13.6812793 11.5086133,13.8385879 11.7918672,14.0336309 C12.0341875,14.2004551 12.0039453,14.3706016 11.9603047,14.4392754 C11.7685293,14.741 8.67053711,14.6319395 7.77613672,14.5379727 L7.77613672,14.493334 L7.77613672,14.4933203 Z" id="路径" fill="#FAAD08"></path>
                <path d="M7.78312305,7.45349414 C9.70716602,7.44069727 11.2491348,7.07747656 11.7716191,6.93810547 C11.8961699,6.90485547 11.9628066,6.84528711 11.9628066,6.84528711 C11.9632441,6.82819727 11.970709,6.53974805 11.970709,6.39094336 C11.970709,3.88506641 10.758082,1.36710352 7.77601367,1.36693945 C4.79394531,1.36710352 3.58125,3.88505273 3.58125,6.39095703 C3.58125,6.53976172 3.58876953,6.82821094 3.5892207,6.84530078 C3.5892207,6.84530078 3.64342969,6.90102734 3.74276953,6.92798828 C4.2251543,7.05895117 5.79614844,7.4404375 7.76893164,7.45349414 L7.78310938,7.45349414 L7.78312305,7.45349414 Z M13.0791152,9.57181445 C12.9607168,9.19139453 12.7990605,8.74776953 12.6353945,8.32174023 C12.6353945,8.32174023 12.54125,8.31014648 12.4936719,8.32390039 C11.0249844,8.74980664 9.24490625,9.02124805 7.88836914,9.00486914 L7.8743418,9.00486914 C6.52541992,9.02108398 4.75740039,8.75275977 3.29366211,8.33100977 C3.23774414,8.31493164 3.12730273,8.32175391 3.12730273,8.32175391 C2.96365039,8.74776953 2.80200781,9.19139453 2.68360938,9.57181445 C2.11896094,11.3857852 2.30189063,12.1364805 2.44119336,12.1533105 C2.74008789,12.189377 3.60465625,10.7877637 3.60465625,10.7877637 C3.60465625,12.2119629 4.89271094,14.3988477 7.84221289,14.418959 C7.86830329,14.4188615 7.89439397,14.4188615 7.92048438,14.418959 C10.8700273,14.3988477 12.158041,12.2119902 12.158041,10.7877773 C12.158041,10.7877773 13.0225957,12.1894043 13.3215449,12.1533242 C13.4608066,12.1364941 13.6437363,11.3857852 13.0791152,9.57181445" id="形状" fill="#000000"></path>
                <path d="M6.86807813,5.1550332 C6.46120313,5.17312109 6.11345898,4.71598828 6.09165234,4.13483789 C6.06953125,3.55330469 6.38126367,3.06724219 6.78823438,3.04905859 C7.19472656,3.0312168 7.54222461,3.48814453 7.56431836,4.06952734 C7.58658984,4.65106055 7.27478906,5.13702734 6.86807813,5.1550332 M9.88201563,4.13483789 C9.86023633,4.71598828 9.51246484,5.17309375 9.10558984,5.1550332 C8.69890625,5.13698633 8.3870918,4.65106055 8.40936328,4.06952734 C8.43142969,3.48811719 8.77891406,3.03117578 9.18543359,3.04907227 C9.59244531,3.06725586 9.90416406,3.55330469 9.8820293,4.13485156" id="形状" fill="#FFFFFF"></path>
                <path d="M10.5074902,5.90914648 C10.4007129,5.65234766 9.32533789,5.36625 7.99401172,5.36625 L7.97972461,5.36625 C6.64841211,5.36625 5.57302344,5.65234766 5.46625977,5.90914648 C5.46116549,5.92065418 5.4584668,5.93309295 5.4584668,5.94567773 C5.4584668,5.96417578 5.46418164,5.98088281 5.47312305,5.99506055 C5.56308398,6.1374668 6.75724023,6.84114453 7.97973828,6.84114453 L7.99402539,6.84114453 C9.21650977,6.84114453 10.4106387,6.13750781 10.500627,5.99508789 C10.5100937,5.98030024 10.5151624,5.96312646 10.5152422,5.94556836 C10.5152422,5.93302335 10.5125556,5.92062346 10.5074902,5.90914648" id="路径" fill="#FAAD08"></path>
                <path d="M7.35296484,4.34318834 C7.37133984,4.618088 7.24536719,4.86229545 7.07200781,4.8889808 C6.89836133,4.91569859 6.74287109,4.71451214 6.72438672,4.43946648 C6.70625781,4.16443705 6.83202539,3.9202296 7.005125,3.89375513 C7.17905859,3.86695623 7.33480859,4.0683049 7.35296484,4.34318834 M8.41896094,4.48049217 C8.45590234,4.40924472 8.70810742,4.03457916 9.23008594,4.171007 C9.3671875,4.20682539 9.43061133,4.25953098 9.44399609,4.28029527 C9.46375195,4.31092259 9.46915234,4.35452758 9.44912305,4.41325157 C9.40943359,4.5296289 9.32752539,4.52646559 9.28209375,4.50368977 C9.25278125,4.48897632 8.88921875,4.22875766 8.5543125,4.61708223 C8.53127539,4.64381624 8.49005469,4.6529655 8.45098047,4.62126753 C8.41193359,4.5895371 8.39577344,4.52518405 8.41896094,4.48049217" id="形状" fill="#000000"></path>
                <path d="M7.88817773,9.05721875 L7.87408203,9.05721875 C6.94704687,9.06818359 5.823,8.94778906 4.7345,8.73755664 C4.64129883,9.26638477 4.58501172,9.9310293 4.6333418,10.7237383 C4.7554043,12.7272559 5.9694668,13.9865586 7.84340234,14.0049336 L7.91955469,14.0049336 C9.79349023,13.9865586 11.0075527,12.7272559 11.1296562,10.7237383 C11.1779863,9.93096094 11.1216719,9.26631641 11.0284434,8.73744727 C9.93973828,8.94778906 8.8155,9.06825195 7.88817773,9.05721875" id="路径" fill="#FFFFFF"></path>
                <path d="M5.24775586,8.94814453 L5.24775586,10.9528926 C5.24775586,10.9528926 6.19503906,11.1381738 7.14404492,11.0099043 L7.14404492,9.16070117 C6.54283789,9.12771094 5.89443555,9.05419727 5.24775586,8.94814453" id="路径" fill="#EB1C26"></path>
                <path d="M12.0264219,6.84114453 C12.0264219,6.84114453 10.2475469,7.43012891 7.88849219,7.44693164 L7.87447852,7.44693164 C5.51930664,7.43019727 3.74260547,6.84316797 3.73654883,6.84114453 L3.14074219,8.40087305 C4.63094922,8.87206055 6.47795117,9.17575391 7.87446484,9.15811719 L7.88846484,9.15808984 C9.28507422,9.17582227 11.1317891,8.87211523 12.6222148,8.40087305 L12.0264082,6.84114453 L12.0264219,6.84114453 Z" id="路径" fill="#EB1C26"></path>
            </g>
        </g>
    </g>
</svg>