<?xml version="1.0" encoding="utf-8"?>
<!-- Generator: Adobe Illustrator 24.2.3, SVG Export Plug-In . SVG Version: 6.00 Build 0)  -->
<svg version="1.1" id="图层_1" xmlns="http://www.w3.org/2000/svg" xmlns:xlink="http://www.w3.org/1999/xlink" x="0px" y="0px"
	 viewBox="0 0 32 32" enable-background="new 0 0 32 32" xml:space="preserve">
<g>
	<path d="M19,9H7.41l2.29-2.29c0.39-0.39,0.39-1.02,0-1.41s-1.02-0.39-1.41,0l-4,4c-0.39,0.39-0.39,1.02,0,1.41l4,4
		C8.49,14.9,8.74,15,9,15s0.51-0.1,0.71-0.29c0.39-0.39,0.39-1.02,0-1.41L7.41,11H19c3.86,0,7,3.14,7,7s-3.14,7-7,7H7
		c-0.55,0-1,0.45-1,1s0.45,1,1,1h12c4.96,0,9-4.04,9-9S23.96,9,19,9z"/>
</g>
</svg>
