<?xml version="1.0" encoding="utf-8"?>
<!-- Generator: Adobe Illustrator 24.2.3, SVG Export Plug-In . SVG Version: 6.00 Build 0)  -->
<svg version="1.1" id="图层_1" xmlns="http://www.w3.org/2000/svg" xmlns:xlink="http://www.w3.org/1999/xlink" x="0px" y="0px"
	 viewBox="0 0 32 32" enable-background="new 0 0 32 32" xml:space="preserve">
<g>
	<g>
		<path d="M5,17c0.55,0,1-0.45,1-1V9h18.59l-1.29,1.29c-0.39,0.39-0.39,1.02,0,1.41C23.49,11.9,23.74,12,24,12s0.51-0.1,0.71-0.29
			l3-3c0.09-0.09,0.17-0.2,0.22-0.33c0.1-0.24,0.1-0.52,0-0.76c-0.05-0.12-0.12-0.23-0.22-0.33l-3-3c-0.39-0.39-1.02-0.39-1.41,0
			s-0.39,1.02,0,1.41L24.59,7H5C4.45,7,4,7.45,4,8v8C4,16.55,4.45,17,5,17z"/>
	</g>
	<g>
		<path d="M27,15c-0.55,0-1,0.45-1,1v7H7.41l1.29-1.29c0.39-0.39,0.39-1.02,0-1.41s-1.02-0.39-1.41,0l-3,3
			c-0.09,0.09-0.17,0.2-0.22,0.33c-0.1,0.24-0.1,0.52,0,0.76c0.05,0.12,0.12,0.23,0.22,0.33l3,3C7.49,27.9,7.74,28,8,28
			s0.51-0.1,0.71-0.29c0.39-0.39,0.39-1.02,0-1.41L7.41,25H27c0.55,0,1-0.45,1-1v-8C28,15.45,27.55,15,27,15z"/>
	</g>
</g>
</svg>
