<?xml version="1.0" encoding="utf-8"?>
<!-- Generator: Adobe Illustrator 24.2.3, SVG Export Plug-In . SVG Version: 6.00 Build 0)  -->
<svg version="1.1" id="图层_1" xmlns="http://www.w3.org/2000/svg" xmlns:xlink="http://www.w3.org/1999/xlink" x="0px" y="0px"
	 viewBox="0 0 32 32" enable-background="new 0 0 32 32" xml:space="preserve">
<g>
	<path d="M16,2c-0.55,0-1,0.45-1,1s0.45,1,1,1c6.62,0,12,5.38,12,12s-5.38,12-12,12S4,22.62,4,16c0-2.98,1.08-5.77,3.04-7.97V10
		c0,0.55,0.45,1,1,1s1-0.45,1-1V6c0-0.55-0.45-1-1-1h-4c-0.55,0-1,0.45-1,1s0.45,1,1,1h1.24C3.16,9.52,2,12.66,2,16
		c0,7.72,6.28,14,14,14s14-6.28,14-14S23.72,2,16,2z"/>
</g>
</svg>
