<?xml version="1.0" encoding="utf-8"?>
<!-- Generator: Adobe Illustrator 24.2.3, SVG Export Plug-In . SVG Version: 6.00 Build 0)  -->
<svg version="1.1" id="图层_1" xmlns="http://www.w3.org/2000/svg" xmlns:xlink="http://www.w3.org/1999/xlink" x="0px" y="0px"
	 viewBox="0 0 32 32" enable-background="new 0 0 32 32" xml:space="preserve">
<g>
	<g>
		<path d="M19.71,11.29c-0.39-0.39-1.02-0.39-1.41,0s-0.39,1.02,0,1.41L20.59,15H5c-0.55,0-1,0.45-1,1s0.45,1,1,1h15.59l-2.29,2.29
			c-0.39,0.39-0.39,1.02,0,1.41C18.49,20.9,18.74,21,19,21s0.51-0.1,0.71-0.29l4-4c0.39-0.39,0.39-1.02,0-1.41L19.71,11.29z"/>
	</g>
	<g>
		<path d="M27,5c-0.55,0-1,0.45-1,1v20c0,0.55,0.45,1,1,1s1-0.45,1-1V6C28,5.45,27.55,5,27,5z"/>
	</g>
</g>
</svg>
