<?xml version="1.0" encoding="utf-8"?>
<!-- Generator: Adobe Illustrator 24.2.3, SVG Export Plug-In . SVG Version: 6.00 Build 0)  -->
<svg version="1.1" id="图层_1" xmlns="http://www.w3.org/2000/svg" xmlns:xlink="http://www.w3.org/1999/xlink" x="0px" y="0px"
	 viewBox="0 0 32 32" enable-background="new 0 0 32 32" xml:space="preserve">
<g>
	<g>
		<path d="M25.71,15.29l-11-11c-0.39-0.39-1.02-0.39-1.41,0s-0.39,1.02,0,1.41L23.59,16L13.29,26.29c-0.39,0.39-0.39,1.02,0,1.41
			C13.49,27.9,13.74,28,14,28s0.51-0.1,0.71-0.29l11-11C26.1,16.32,26.1,15.68,25.71,15.29z"/>
	</g>
	<g>
		<path d="M18.71,15.29l-11-11c-0.39-0.39-1.02-0.39-1.41,0s-0.39,1.02,0,1.41L16.59,16L6.29,26.29c-0.39,0.39-0.39,1.02,0,1.41
			C6.49,27.9,6.74,28,7,28s0.51-0.1,0.71-0.29l11-11C19.1,16.32,19.1,15.68,18.71,15.29z"/>
	</g>
</g>
</svg>
