<?xml version="1.0" encoding="utf-8"?>
<!-- Generator: Adobe Illustrator 24.2.3, SVG Export Plug-In . SVG Version: 6.00 Build 0)  -->
<svg version="1.1" id="图层_1" xmlns="http://www.w3.org/2000/svg" xmlns:xlink="http://www.w3.org/1999/xlink" x="0px" y="0px"
	 viewBox="0 0 32 32" enable-background="new 0 0 32 32" xml:space="preserve">
<g>
	<path d="M29.66,28.29l-4.85-4.85c1.95-2.27,3.14-5.22,3.14-8.45c0-7.17-5.83-13-13-13s-13,5.83-13,13s5.83,13,13,13
		c3.22,0,6.17-1.19,8.45-3.14l4.85,4.85c0.2,0.2,0.45,0.29,0.71,0.29s0.51-0.1,0.71-0.29C30.05,29.32,30.05,28.68,29.66,28.29z
		 M14.96,26c-6.07,0-11-4.93-11-11s4.93-11,11-11s11,4.93,11,11S21.02,26,14.96,26z"/>
</g>
</svg>
