<?xml version="1.0" encoding="utf-8"?>
<!-- Generator: Adobe Illustrator 24.2.3, SVG Export Plug-In . SVG Version: 6.00 Build 0)  -->
<svg version="1.1" id="图层_1" xmlns="http://www.w3.org/2000/svg" xmlns:xlink="http://www.w3.org/1999/xlink" x="0px" y="0px"
	 viewBox="0 0 32 32" enable-background="new 0 0 32 32" xml:space="preserve">
<g>
	<g>
		<g>
			<path d="M16,21c-2.76,0-5-2.24-5-5s2.24-5,5-5s5,2.24,5,5S18.76,21,16,21z M16,13c-1.65,0-3,1.35-3,3s1.35,3,3,3s3-1.35,3-3
				S17.65,13,16,13z"/>
		</g>
	</g>
	<g>
		<g>
			<path d="M16,30c-0.16,0-0.33-0.04-0.48-0.12l-12-6.5C3.2,23.2,3,22.87,3,22.5v-13c0-0.37,0.2-0.7,0.52-0.88l12-6.5
				c0.3-0.16,0.66-0.16,0.95,0l12,6.5C28.8,8.8,29,9.13,29,9.5v13c0,0.37-0.2,0.7-0.52,0.88l-12,6.5C16.33,29.96,16.16,30,16,30z
				 M5,21.9l11,5.96l11-5.96V10.1L16,4.14L5,10.1V21.9z"/>
		</g>
	</g>
</g>
</svg>
