<?xml version="1.0" encoding="utf-8"?>
<!-- Generator: Adobe Illustrator 24.2.3, SVG Export Plug-In . SVG Version: 6.00 Build 0)  -->
<svg version="1.1" id="图层_1" xmlns="http://www.w3.org/2000/svg" xmlns:xlink="http://www.w3.org/1999/xlink" x="0px" y="0px"
	 viewBox="0 0 32 32" enable-background="new 0 0 32 32" xml:space="preserve">
<g>
	<path d="M24,20c-1.2,0-2.27,0.54-3,1.38l-9.1-4.55c0.06-0.28,0.1-0.56,0.1-0.85c0-0.28-0.03-0.56-0.09-0.82L21,10.62
		c0.73,0.84,1.8,1.38,3,1.38c2.21,0,4-1.79,4-4s-1.79-4-4-4s-4,1.79-4,4c0,0.29,0.03,0.57,0.09,0.84l-9.08,4.54
		c-0.73-0.85-1.8-1.39-3.01-1.39c-2.21,0-4,1.79-4,4s1.79,4,4,4c1.19,0,2.26-0.54,2.99-1.37l9.1,4.55C20.03,23.43,20,23.71,20,24
		c0,2.21,1.79,4,4,4s4-1.79,4-4S26.21,20,24,20z M24,6c1.1,0,2,0.9,2,2s-0.9,2-2,2s-2-0.9-2-2S22.9,6,24,6z M8,17.98
		c-1.1,0-2-0.9-2-2s0.9-2,2-2s2,0.9,2,2S9.1,17.98,8,17.98z M24,26c-1.1,0-2-0.9-2-2s0.9-2,2-2s2,0.9,2,2S25.1,26,24,26z"/>
</g>
</svg>
