<?xml version="1.0" encoding="utf-8"?>
<!-- Generator: Adobe Illustrator 24.2.3, SVG Export Plug-In . SVG Version: 6.00 Build 0)  -->
<svg version="1.1" id="图层_1" xmlns="http://www.w3.org/2000/svg" xmlns:xlink="http://www.w3.org/1999/xlink" x="0px" y="0px"
	 viewBox="0 0 32 32" enable-background="new 0 0 32 32" xml:space="preserve">
<g>
	<g>
		<path d="M27,16c-0.55,0-1,0.45-1,1v9H6V6h9c0.55,0,1-0.45,1-1s-0.45-1-1-1H5C4.45,4,4,4.45,4,5v22c0,0.55,0.45,1,1,1h22
			c0.55,0,1-0.45,1-1V17C28,16.45,27.55,16,27,16z"/>
	</g>
	<g>
		<path d="M27.92,4.62c-0.1-0.24-0.3-0.44-0.54-0.54C27.26,4.03,27.13,4,27,4h-6c-0.55,0-1,0.45-1,1s0.45,1,1,1h3.59L12.29,18.29
			c-0.39,0.39-0.39,1.02,0,1.41C12.49,19.9,12.74,20,13,20s0.51-0.1,0.71-0.29L26,7.41V11c0,0.55,0.45,1,1,1s1-0.45,1-1V5
			C28,4.87,27.97,4.74,27.92,4.62z"/>
	</g>
</g>
</svg>
