<svg xmlns="http://www.w3.org/2000/svg" width="12" height="13" viewBox="0 0 12 13">
  <defs>
    <style>
      .cls-1 {
        fill: #3794ff;
        fill-rule: evenodd;
      }
    </style>
  </defs>
  <path id="形状_1_拷贝" data-name="形状 1 拷贝" class="cls-1" d="M1227.68,1821.05a1.153,1.153,0,0,0-.76.24,1.3,1.3,0,0,0-2-.68,1.25,1.25,0,0,0-1.24-.92,1.507,1.507,0,0,0-.64.16v-1.44a1.35,1.35,0,0,0-1.32-1.4,1.453,1.453,0,0,0-1.44,1.4v5.36l-0.84-.84a1.425,1.425,0,0,0-1.96,0,1.4,1.4,0,0,0-.08,2.03l3.88,3.88,0.24,0.24a4.694,4.694,0,0,0,3.2.92c3.88,0,4.28-2.12,4.28-4.76v-2.79a1.376,1.376,0,0,0-1.32-1.4m0.72,4.19c0,2.16-.16,3.96-3.68,3.96a3.864,3.864,0,0,1-3.04-1l-3.64-3.63a0.707,0.707,0,0,1,1-1s0.64,0.64,1.24,1.16l0.76,0.75v-6.99a0.653,0.653,0,0,1,.72-0.64,0.631,0.631,0,0,1,.64.64v4.52a0.431,0.431,0,0,0,.32.4,0.378,0.378,0,0,0,.4-0.4v-1.88a0.589,0.589,0,0,1,.64-0.64,0.627,0.627,0,0,1,.64.64v2.48a0.431,0.431,0,0,0,.32.4,0.378,0.378,0,0,0,.4-0.4v-1.8a0.589,0.589,0,0,1,.64-0.64,0.705,0.705,0,0,1,.64.64v2.2a0.431,0.431,0,0,0,.32.4,0.378,0.378,0,0,0,.4-0.4v-1.56a0.64,0.64,0,0,1,1.28,0v2.79" transform="translate(-1217 -1817)"/>
</svg>
