<?xml version="1.0" encoding="utf-8"?>
<!-- Generator: Adobe Illustrator 24.2.3, SVG Export Plug-In . SVG Version: 6.00 Build 0)  -->
<svg version="1.1" id="图层_1" xmlns="http://www.w3.org/2000/svg" xmlns:xlink="http://www.w3.org/1999/xlink" x="0px" y="0px"
	 viewBox="0 0 32 32" enable-background="new 0 0 32 32" xml:space="preserve">
<g>
	<path d="M10.66,25H5h1h4.24H10.66 M21.34,2c-0.27,0-0.52,0.11-0.71,0.29L4.29,18.64C4.11,18.82,4,19.08,4,19.34V25
		c0,0.55,0.45,1,1,1h5.66c0.27,0,0.52-0.11,0.71-0.29L27.71,9.36c0.39-0.39,0.39-1.02,0-1.41l-5.66-5.66C21.86,2.11,21.61,2,21.34,2
		L21.34,2z M23.33,10.91l-4.24-4.24l2.26-2.26l4.24,4.24L23.33,10.91L23.33,10.91z M6,24v-4.24L17.67,8.09l4.24,4.24L10.24,24H6
		L6,24z M26,27H5c-0.55,0-1,0.45-1,1s0.45,1,1,1h21c0.55,0,1-0.45,1-1S26.55,27,26,27L26,27z"/>
</g>
</svg>
