<?xml version="1.0" standalone="no"?><!DOCTYPE svg PUBLIC "-//W3C//DTD SVG 1.1//EN" "http://www.w3.org/Graphics/SVG/1.1/DTD/svg11.dtd"><svg t="1606893791001" class="icon" viewBox="0 0 1025 1024" version="1.1" xmlns="http://www.w3.org/2000/svg" p-id="2939" xmlns:xlink="http://www.w3.org/1999/xlink" width="200.1953125" height="200"><defs><style type="text/css"></style></defs><path d="M513.27936 0.511744C230.796602 0.511744 1.535232 229.773113 1.535232 512.255872s229.261369 511.744128 511.744128 511.744128 511.744128-229.261369 511.744128-511.744128S796.273863 0.511744 513.27936 0.511744z m-15.864068 256.383808l214.932534 179.110445-35.822089 42.986507-214.932534-179.110445 35.822089-42.986507zM415.024488 373.573213l253.825087 118.212894-24.051974 50.662669-253.313343-118.212894 23.54023-50.662669z m-48.615692 126.912544l273.783108 57.315342-11.258371 54.756622-273.783108-57.315342 11.258371-54.756622z m-16.887557 126.4008H629.445277v55.78011H349.521239v-55.78011z m391.484258 167.852074H237.449275v-224.143928h55.78011v167.852074h391.484258v-167.852074h55.78011v224.143928z m-18.422788-369.479261l-166.828586-224.655672 45.033483-33.263368L767.616192 391.996002l-45.033483 33.263368z" fill="" p-id="2940"></path></svg>