<svg xmlns="http://www.w3.org/2000/svg" width="15" height="15" viewBox="0 0 15 15">
  <defs>
    <style>
      .cls-1 {
        fill: #999;
        fill-rule: evenodd;
      }
    </style>
  </defs>
  <path id="收藏" class="cls-1" d="M5439.36,1422.67l-0.66-3.73-0.12-.67,0.47-.46,2.66-2.61-3.72-.68-0.6-.1-0.26-.57-1.64-3.46-1.63,3.46-0.27.56-0.59.11-3.72.71,2.65,2.57,0.48,0.47-0.13.67-0.68,3.73,3.36-1.75,0.53-.27,0.53,0.27,3.34,1.75m0.15,1.33a1.222,1.222,0,0,1-.51-0.14l-3.51-1.83-3.53,1.83a1.135,1.135,0,0,1-.51.13,1.008,1.008,0,0,1-.63-0.22,1.186,1.186,0,0,1-.43-1.12l0.73-3.94-2.78-2.7a1.263,1.263,0,0,1-.3-1.18,1.079,1.079,0,0,1,.89-0.79l3.86-.73,1.73-3.66a1.1,1.1,0,0,1,.97-0.65,1.052,1.052,0,0,1,.97.65l1.73,3.66,3.86,0.7a1.059,1.059,0,0,1,.86.79,1.167,1.167,0,0,1-.27,1.18l-2.78,2.73,0.71,3.94a1.146,1.146,0,0,1-.44,1.12,0.879,0.879,0,0,1-.62.23h0Z" transform="translate(-5428 -1409)"/>
</svg>
