<?xml version="1.0" encoding="utf-8"?>
<!-- Generator: Adobe Illustrator 24.2.3, SVG Export Plug-In . SVG Version: 6.00 Build 0)  -->
<svg version="1.1" id="图层_1" xmlns="http://www.w3.org/2000/svg" xmlns:xlink="http://www.w3.org/1999/xlink" x="0px" y="0px"
	 viewBox="0 0 32 32" enable-background="new 0 0 32 32" xml:space="preserve">
<g>
	<path d="M2,6c0-0.55,0.45-1,1-1h26c0.55,0,1,0.45,1,1s-0.45,1-1,1H3C2.45,7,2,6.55,2,6z M3,17h10c0.55,0,1-0.45,1-1s-0.45-1-1-1H3
		c-0.55,0-1,0.45-1,1S2.45,17,3,17z M15,25H3c-0.55,0-1,0.45-1,1s0.45,1,1,1h12c0.55,0,1-0.45,1-1S15.55,25,15,25z M28.29,20.29
		L24,24.59V12c0-0.55-0.45-1-1-1s-1,0.45-1,1v12.59l-4.29-4.29c-0.39-0.39-1.02-0.39-1.41,0s-0.39,1.02,0,1.41l6,6
		c0.01,0.01,0.02,0.01,0.03,0.02c0.09,0.08,0.18,0.15,0.29,0.2c0,0,0,0,0,0C22.74,27.97,22.87,28,23,28c0.13,0,0.26-0.03,0.38-0.07
		c0.12-0.05,0.23-0.12,0.33-0.22l6-6c0.39-0.39,0.39-1.02,0-1.41S28.68,19.9,28.29,20.29z"/>
</g>
</svg>
