<svg xmlns="http://www.w3.org/2000/svg" viewBox="0 0 32 32"><g id="图层_3" data-name="图层 3"><g id="组_1256" data-name="组 1256"><path id="路径_1535" data-name="路径 1535" class="cls-1" d="M20,5.33H6.67V26.66H25.33v-16H21.19A1.19,1.19,0,0,1,20,9.48ZM4,4A1.33,1.33,0,0,1,5.33,2.67h16L28,9.33V28a1.34,1.34,0,0,1-1.32,1.34H5.33A1.34,1.34,0,0,1,4,28ZM17.34,16v4A1.34,1.34,0,0,1,16,21.33h0A1.33,1.33,0,0,1,14.67,20V16H11.26a.24.24,0,0,1-.17-.42l4.74-4.74a.23.23,0,0,1,.34,0l4.75,4.74a.25.25,0,0,1-.18.42Z"/></g></g></svg>