<svg xmlns="http://www.w3.org/2000/svg" width="14" height="14" viewBox="0 0 14 14">
  <defs>
    <style>
      .cls-1 {
        fill-rule: evenodd;
      }
    </style>
  </defs>
  <path id="形状_1119" data-name="形状 1119" class="cls-1" d="M3649.26,102h-6.41a1.84,1.84,0,0,0-1.85,1.83V116h10V103.829a1.748,1.748,0,0,0-1.74-1.829h0Zm-4.76,12.99V113h3v1.993h-3ZM3650,115h-1.5v-2.19a0.816,0.816,0,0,0-.81-0.813h-3.38a0.81,0.81,0,0,0-.81.813V115H3642V103.777a0.768,0.768,0,0,1,.77-0.777h6.45a0.775,0.775,0,0,1,.78.777V115h0Zm-2.05-9h-3.91a0.5,0.5,0,0,0,0,1h3.91A0.5,0.5,0,0,0,3647.95,106Zm0,3.01h-3.91a0.5,0.5,0,0,0,0,1h3.91A0.5,0.5,0,0,0,3647.95,109.005Z" transform="translate(-3639 -102)"/>
</svg>
