<?xml version="1.0" encoding="utf-8"?>
<!-- Generator: Adobe Illustrator 24.2.3, SVG Export Plug-In . SVG Version: 6.00 Build 0)  -->
<svg version="1.1" id="图层_1" xmlns="http://www.w3.org/2000/svg" xmlns:xlink="http://www.w3.org/1999/xlink" x="0px" y="0px"
	 viewBox="0 0 32 32" enable-background="new 0 0 32 32" xml:space="preserve">
<g>
	<path d="M16,2C8.27,2,2,8.27,2,16s6.27,14,14,14s14-6.27,14-14S23.73,2,16,2z M21.21,13.71l-6,6C15.01,19.9,14.76,20,14.5,20
		s-0.51-0.1-0.71-0.29l-3-3c-0.39-0.39-0.39-1.02,0-1.41s1.02-0.39,1.41,0l2.29,2.29l5.29-5.29c0.39-0.39,1.02-0.39,1.41,0
		S21.6,13.32,21.21,13.71z"/>
</g>
</svg>
