<?xml version="1.0" encoding="utf-8"?>
<!-- Generator: Adobe Illustrator 24.2.3, SVG Export Plug-In . SVG Version: 6.00 Build 0)  -->
<svg version="1.1" id="图层_1" xmlns="http://www.w3.org/2000/svg" xmlns:xlink="http://www.w3.org/1999/xlink" x="0px" y="0px"
	 viewBox="0 0 32 32" enable-background="new 0 0 32 32" xml:space="preserve">
<g>
	<g>
		<g>
			<path d="M27,13H5c-0.55,0-1-0.45-1-1s0.45-1,1-1h19.59l-3.29-3.29c-0.39-0.39-0.39-1.02,0-1.41s1.02-0.39,1.41,0l5,5
				c0.29,0.29,0.37,0.72,0.22,1.09C27.77,12.76,27.4,13,27,13z"/>
		</g>
	</g>
	<g>
		<g>
			<path d="M10,26c-0.26,0-0.51-0.1-0.71-0.29l-5-5c-0.29-0.29-0.37-0.72-0.22-1.09C4.23,19.24,4.6,19,5,19h22c0.55,0,1,0.45,1,1
				s-0.45,1-1,1H7.41l3.29,3.29c0.39,0.39,0.39,1.02,0,1.41C10.51,25.9,10.26,26,10,26z"/>
		</g>
	</g>
</g>
</svg>
