<?xml version="1.0" encoding="UTF-8"?>
<svg width="14px" height="14px" viewBox="0 0 14 14" version="1.1" xmlns="http://www.w3.org/2000/svg" xmlns:xlink="http://www.w3.org/1999/xlink">
    <title>系统</title>
    <g id="页面-1" stroke="none" stroke-width="1" fill-rule="evenodd">
        <g id="账号与密码备份" transform="translate(-1711.000000, -681.000000)"  fill-rule="nonzero">
            <g id="系统" transform="translate(1711.000000, 681.000000)">
                <rect id="矩形" opacity="0" x="0" y="0" width="14" height="14"></rect>
                <path d="M12.5263158,1 C12.7879244,1 13,1.21727358 13,1.48529412 L13,9.24999999 C13,9.51802053 12.7879244,9.73529411 12.5263158,9.73529411 L7.49105263,9.73529411 L7.49105263,11.0294118 L10.3157895,11.0294118 C10.577398,11.0294118 10.7894737,11.2466853 10.7894737,11.5147059 C10.7894737,11.7827264 10.577398,12 10.3157895,12 L3.68421052,12 C3.42260196,12 3.21052631,11.7827264 3.21052631,11.5147059 C3.21052631,11.2466853 3.42260196,11.0294118 3.68421052,11.0294118 L6.54368421,11.0294118 L6.54368421,9.73529411 L1.47368421,9.73529411 C1.21207564,9.73529411 1,9.51802053 1,9.24999999 L1,1.48529412 C1,1.21727358 1.21207564,1 1.47368421,1 L12.5263158,1 Z M12,8 L2,8 L2,8.66666667 C2,8.83565828 2.11859597,8.97789465 2.2759375,8.99766667 L2.3125,9 L11.6875,9 C11.8459296,8.99997771 11.9792762,8.87349763 11.9978125,8.70566667 L12,8.66666667 L12,8 Z M11.6875,2 L2.3125,2 C2.15407036,2 2.02072375,2.12650238 2.0021875,2.29433334 L2,2.33333334 L2,7 L12,7 L12,2.33333334 C12,2.24492785 11.967076,2.16014321 11.9084709,2.09763108 C11.8498658,2.03511895 11.7703802,2 11.6875,2 L11.6875,2 Z" id="形状"></path>
            </g>
        </g>
    </g>
</svg>