<svg xmlns="http://www.w3.org/2000/svg" viewBox="0 0 32 32"><title>系统管理</title><g id="图层_3" data-name="图层 3"><g id="组_1183" data-name="组 1183"><path id="路径_993" data-name="路径 993" class="cls-2" d="M3.47,23.48h6.68a1.33,1.33,0,0,1,1.33,1.33h0a1.34,1.34,0,0,1-1.33,1.33H3.47a1.33,1.33,0,0,1-1.33-1.33h0A1.32,1.32,0,0,1,3.47,23.48Zm0-9.34h9.34a1.34,1.34,0,0,1,1.33,1.33h0a1.34,1.34,0,0,1-1.33,1.33H3.47a1.33,1.33,0,0,1-1.33-1.33h0A1.33,1.33,0,0,1,3.47,14.14Zm0-9.33h24a1.33,1.33,0,0,1,1.33,1.33h0a1.33,1.33,0,0,1-1.33,1.33h-24A1.32,1.32,0,0,1,2.14,6.14h0A1.32,1.32,0,0,1,3.47,4.81ZM27,16.84l1.54-.53,1.33,2.31-1.22,1.07a5.15,5.15,0,0,1,0,2.21L29.91,23l-1.33,2.31L27,24.76a5.3,5.3,0,0,1-1.91,1.1l-.32,1.59H22.14l-.32-1.59a5.39,5.39,0,0,1-1.91-1.11l-1.54.53L17,23l1.22-1.07a5.53,5.53,0,0,1,0-2.22L17,18.61l1.34-2.31,1.54.53a5.24,5.24,0,0,1,1.91-1.11l.32-1.58h2.67l.32,1.59A5.24,5.24,0,0,1,27,16.84Zm-3.57,6.64a2.67,2.67,0,1,0-2.66-2.68h0A2.67,2.67,0,0,0,23.47,23.48Z"/></g></g></svg>