<?xml version="1.0" standalone="no"?><!DOCTYPE svg PUBLIC "-//W3C//DTD SVG 1.1//EN" "http://www.w3.org/Graphics/SVG/1.1/DTD/svg11.dtd"><svg t="1606899165945" class="icon" viewBox="0 0 1024 1024" version="1.1" xmlns="http://www.w3.org/2000/svg" p-id="14117" xmlns:xlink="http://www.w3.org/1999/xlink" width="200" height="200"><defs><style type="text/css"></style></defs><path d="M481.3824 556.94848m-422.4 0a422.4 422.4 0 1 0 844.8 0 422.4 422.4 0 1 0-844.8 0Z" fill="#FFFFFF" p-id="14118"></path><path d="M512.78336 2.04288c-282.20416 0-510.976 228.77184-510.976 510.976 0 282.20928 228.77184 510.976 510.976 510.976 282.20928 0 510.976-228.77184 510.976-510.976 0-282.19904-228.77184-510.976-510.976-510.976zM254.98112 267.60704c35.91168 0 65.02912 26.02496 65.02912 58.112 0 32.11264-29.11744 58.10688-65.02912 58.10688-35.89632 0-65.01376-25.99424-65.01376-58.10688 0-32.08704 29.11744-58.112 65.01376-58.112z m54.33344 349.25056c-17.21344 53.05856-12.89728 33.34144-81.05472 180.93056l-98.79552-61.3888s110.08512-99.85024 132.79232-145.47968c23.91552-48.10752-26.4448-73.86112-26.4448-73.86112l-75.67872-46.9248 40.84736-62.82752c57.18528 42.24 61.35296 45.7984 99.84 84.25472 29.81376 29.79328 26.0864 71.10656 8.49408 125.29664z m536.66304 68.78208c-19.2 180.06016-254.19264 113.152-254.19264 113.152l12.8-51.49184 54.33344 11.65824c100.74112 6.36928 90.83904-81.26976 90.83904-81.26976V422.75328c0.88064-96.64512-91.2896-106.79808-256.60416-47.81056l38.47168 10.38336c-3.328 11.33568-15.85664 29.04576-31.7696 48.32256h221.21984v44.61056H596.5824v55.75168h123.9808v44.6208H596.5824v93.52192c18.5088-6.14912 35.87072-14.52032 50.95936-25.62048l-10.98752-40.82176 58.55744-18.10944 48.65024 118.99904-72.02816 29.76768-12.77952-47.44192c-32.10752 24.63744-99.03104 60.14976-215.84384 57.00096-124.71296 3.18976-92.72832-140.22144-92.72832-140.22144l3.21536-1.59232H441.1904c-0.54784 18.3808-8.15104 48.48128 2.24768 64.8192 8.53504 13.39904 30.3872 15.7184 44.43136 16.4352 1.5872 0.10752 3.2 0.11264 4.80256 0.17408v-106.92096H365.50144V534.016h127.16544V478.2592h-32.60928c-28.59008 30.2592-54.7328 55.24992-54.7328 55.24992l-38.37952-33.44896c27.21792-28.5696 54.52288-73.84576 71.32672-104.0896a1878.72768 1878.72768 0 0 0-42.21952 17.83296 636.14464 636.14464 0 0 1-48.78848 54.38976c0.74752 1.07008-62.64832-35.3792-62.64832-35.3792 65.536-55.76704 102.30784-175.26272 102.30784-175.26272l91.12576 25.47712s-7.54688 17.62816-23.15776 44.68736c365.06112-103.03488 386.29376 63.1552 386.29376 63.1552s23.99232 114.71872 4.79232 294.76864z" fill="#E94D1D" p-id="14119"></path></svg>