<?xml version="1.0" encoding="utf-8"?>
<!-- Generator: Adobe Illustrator 24.2.3, SVG Export Plug-In . SVG Version: 6.00 Build 0)  -->
<svg version="1.1" id="图层_1" xmlns="http://www.w3.org/2000/svg" xmlns:xlink="http://www.w3.org/1999/xlink" x="0px" y="0px"
	 viewBox="0 0 32 32" style="enable-background:new 0 0 32 32;" xml:space="preserve">
<g>
	<path d="M28,6h-4V5c0-0.5-0.5-1-1-1s-1,0.5-1,1v1H10V5c0-0.5-0.5-1-1-1S8,4.5,8,5v1H4C3.5,6,3,6.5,3,7v20c0,0.5,0.5,1,1,1h24
		c0.5,0,1-0.5,1-1V7C29,6.5,28.5,6,28,6z M27,26H5V14h22V26z M27,12H5V8h3v1c0,0.5,0.5,1,1,1s1-0.5,1-1V8h12v1c0,0.5,0.5,1,1,1
		s1-0.5,1-1V8h3V12z"/>
	<path d="M16,23c0.6,0,1-0.4,1-1v-4c0-0.6-0.4-1-1-1s-1,0.4-1,1v4C15,22.6,15.4,23,16,23z"/>
</g>
</svg>
