<?xml version="1.0" standalone="no"?><!DOCTYPE svg PUBLIC "-//W3C//DTD SVG 1.1//EN" "http://www.w3.org/Graphics/SVG/1.1/DTD/svg11.dtd"><svg t="1606898610242" class="icon" viewBox="0 0 1024 1024" version="1.1" xmlns="http://www.w3.org/2000/svg" p-id="9995" xmlns:xlink="http://www.w3.org/1999/xlink" width="200" height="200"><defs><style type="text/css"></style></defs><path d="M512 512m-512 0a512 512 0 1 0 1024 0 512 512 0 1 0-1024 0Z" fill="#0e9aeb" p-id="9996"></path><path d="M324.754286 162.365714l159.634285-24.857143v166.788572h191.645715v134.582857H484.388571V637.828571q0 51.188571 17.405715 81.92t71.154285 30.731429a233.645714 233.645714 0 0 0 53.714286-5.862857 200.628571 200.628571 0 0 0 49.337143-13.154286l23.257143 125.794286c-10.617143 3.874286-21.062857 7.531429-31.222857 10.948571s-21.554286 6.582857-34.125715 9.485715c-23.211429 5.851429-52.285714 8.8-87.062857 8.8q-66.857143 0-107.428571-17.554286-45.017143-20.502857-68.251429-49.76a183.862857 183.862857 0 0 1-36.285714-77.52q-10.182857-42.411429-10.16-100.925714z m0 0" fill="#ffffff" p-id="9997"></path></svg>