<?xml version="1.0" encoding="utf-8"?>
<!-- Generator: Adobe Illustrator 24.2.3, SVG Export Plug-In . SVG Version: 6.00 Build 0)  -->
<svg version="1.1" id="图层_1" xmlns="http://www.w3.org/2000/svg" xmlns:xlink="http://www.w3.org/1999/xlink" x="0px" y="0px"
	 viewBox="0 0 32 32" enable-background="new 0 0 32 32" xml:space="preserve">
<g>
	<g>
		<path d="M27,3H5C4.45,3,4,3.45,4,4v23c0,0.55,0.45,1,1,1h22c0.55,0,1-0.45,1-1V4C28,3.45,27.55,3,27,3z M26,26H6V5h20V26z"/>
	</g>
	<g>
		<path d="M11,11h10c0.55,0,1-0.45,1-1s-0.45-1-1-1H11c-0.55,0-1,0.45-1,1S10.45,11,11,11z"/>
	</g>
	<g>
		<path d="M11,16h10c0.55,0,1-0.45,1-1s-0.45-1-1-1H11c-0.55,0-1,0.45-1,1S10.45,16,11,16z"/>
	</g>
	<g>
		<path d="M11,21h4c0.55,0,1-0.45,1-1s-0.45-1-1-1h-4c-0.55,0-1,0.45-1,1S10.45,21,11,21z"/>
	</g>
</g>
</svg>
