<?xml version="1.0" standalone="no"?><!DOCTYPE svg PUBLIC "-//W3C//DTD SVG 1.1//EN" "http://www.w3.org/Graphics/SVG/1.1/DTD/svg11.dtd"><svg t="1608781908551" class="icon" viewBox="0 0 1024 1024" version="1.1" xmlns="http://www.w3.org/2000/svg" p-id="9407" xmlns:xlink="http://www.w3.org/1999/xlink" width="200" height="200"><defs><style type="text/css"></style></defs><path d="M512 0c282.763636 0 512 229.236364 512 512s-229.236364 512-512 512S0 794.763636 0 512 229.236364 0 512 0z m0 93.090909a418.909091 418.909091 0 1 0 0 837.818182 418.909091 418.909091 0 0 0 0-837.818182z m0 93.090909a46.545455 46.545455 0 0 1 46.545455 46.545455v279.272727h139.636363a46.545455 46.545455 0 0 1 0 93.090909h-186.181818a46.545455 46.545455 0 0 1-46.545455-46.545454V232.727273a46.545455 46.545455 0 0 1 46.545455-46.545455z" p-id="9408"></path></svg>