<?xml version="1.0" encoding="utf-8"?>
<!-- Generator: Adobe Illustrator 24.2.3, SVG Export Plug-In . SVG Version: 6.00 Build 0)  -->
<svg version="1.1" id="图层_1" xmlns="http://www.w3.org/2000/svg" xmlns:xlink="http://www.w3.org/1999/xlink" x="0px" y="0px"
	 viewBox="0 0 32 32" enable-background="new 0 0 32 32" xml:space="preserve">
<g>
	<g>
		<g>
			<path d="M16,30C8.28,30,2,23.72,2,16S8.28,2,16,2s14,6.28,14,14S23.72,30,16,30z M16,4C9.38,4,4,9.38,4,16s5.38,12,12,12
				s12-5.38,12-12S22.62,4,16,4z"/>
		</g>
	</g>
	<g>
		<g>
			<path d="M16,23c-0.55,0-1-0.45-1-1v-8c0-0.55,0.45-1,1-1s1,0.45,1,1v8C17,22.55,16.55,23,16,23z"/>
		</g>
	</g>
	<g>
		<g>
			<path d="M16,11c-0.26,0-0.52-0.11-0.71-0.29C15.11,10.52,15,10.26,15,10c0-0.13,0.03-0.26,0.08-0.38
				c0.05-0.13,0.12-0.23,0.21-0.33c0.24-0.23,0.58-0.33,0.91-0.27c0.06,0.01,0.12,0.03,0.18,0.06c0.06,0.02,0.12,0.05,0.18,0.09
				c0.05,0.04,0.1,0.08,0.15,0.12c0.09,0.1,0.16,0.2,0.21,0.33C16.97,9.74,17,9.87,17,10c0,0.26-0.11,0.52-0.29,0.71
				c-0.05,0.04-0.1,0.08-0.15,0.12c-0.06,0.04-0.12,0.07-0.18,0.09c-0.06,0.03-0.12,0.05-0.18,0.06C16.13,10.99,16.06,11,16,11z"/>
		</g>
	</g>
</g>
</svg>
