<?xml version="1.0" encoding="utf-8"?>
<!-- Generator: Adobe Illustrator 24.2.3, SVG Export Plug-In . SVG Version: 6.00 Build 0)  -->
<svg version="1.1" id="图层_1" xmlns="http://www.w3.org/2000/svg" xmlns:xlink="http://www.w3.org/1999/xlink" x="0px" y="0px"
	 viewBox="0 0 32 32" enable-background="new 0 0 32 32" xml:space="preserve">
<g>
	<path d="M16,2C8.27,2,2,8.27,2,16s6.27,14,14,14s14-6.27,14-14S23.73,2,16,2z M17,23c0,0.55-0.45,1-1,1s-1-0.45-1-1v-8
		c0-0.55,0.45-1,1-1s1,0.45,1,1V23z M17.38,11.07c-0.08,0.18-0.18,0.34-0.31,0.5c-0.15,0.13-0.31,0.24-0.5,0.31S16.19,12,16,12
		c-0.41,0-0.78-0.15-1.06-0.44c-0.14-0.15-0.24-0.31-0.32-0.5c-0.07-0.18-0.12-0.38-0.12-0.57c0-0.39,0.16-0.78,0.44-1.06
		c0.15-0.13,0.3-0.24,0.49-0.31c0.56-0.24,1.22-0.09,1.64,0.31c0.13,0.15,0.24,0.3,0.31,0.5c0.07,0.18,0.12,0.38,0.12,0.57
		S17.45,10.89,17.38,11.07z"/>
</g>
</svg>
