<?xml version="1.0" standalone="no"?><!DOCTYPE svg PUBLIC "-//W3C//DTD SVG 1.1//EN" "http://www.w3.org/Graphics/SVG/1.1/DTD/svg11.dtd"><svg t="1606891584176" class="icon" viewBox="0 0 1024 1024" version="1.1" xmlns="http://www.w3.org/2000/svg" p-id="1431" xmlns:xlink="http://www.w3.org/1999/xlink" width="200" height="200"><defs><style type="text/css"></style></defs><path d="M512 512m-512 0a512 512 0 1 0 1024 0 512 512 0 1 0-1024 0Z" fill="#182232" p-id="1432"></path><path d="M804.571429 380.342857c-18.285714 7.314286-40.228571 14.628571-58.514286 18.285714 21.942857-14.628571 36.571429-36.571429 47.542857-62.171428-21.942857 10.971429-43.885714 21.942857-65.828571 25.6-18.285714-21.942857-47.542857-36.571429-76.8-36.571429-58.514286 0-106.057143 51.2-106.057143 109.714286 0 7.314286 0 18.285714 3.657143 25.6-87.771429-3.657143-164.571429-47.542857-215.771429-117.028571-7.314286 14.628571-14.628571 36.571429-14.628571 54.857142 0 36.571429 14.628571 73.142857 43.885714 91.428572-18.285714 0-51.2-7.314286-51.2-14.628572 0 54.857143 40.228571 98.742857 87.771428 109.714286-7.314286 3.657143-18.285714 3.657143-25.6 3.657143-7.314286 0-10.971429 0-18.285714-3.657143 14.628571 43.885714 51.2 76.8 98.742857 76.8-36.571429 29.257143-80.457143 47.542857-131.657143 47.542857h-25.6c47.542857 32.914286 102.4 51.2 160.914286 51.2 193.828571 0 299.885714-168.228571 299.885714-314.514285v-14.628572c14.628571-7.314286 32.914286-29.257143 47.542858-51.2z" fill="#C7CDE6" p-id="1433"></path></svg>