<?xml version="1.0" encoding="utf-8"?>
<!-- Generator: Adobe Illustrator 24.2.3, SVG Export Plug-In . SVG Version: 6.00 Build 0)  -->
<svg version="1.1" id="图层_1" xmlns="http://www.w3.org/2000/svg" xmlns:xlink="http://www.w3.org/1999/xlink" x="0px" y="0px"
	 viewBox="0 0 32 32" enable-background="new 0 0 32 32" xml:space="preserve">
<g>
	<g>
		<g>
			<path d="M21,19c-0.26,0-0.51-0.1-0.71-0.29L16,14.41l-4.29,4.29c-0.39,0.39-1.02,0.39-1.41,0s-0.39-1.02,0-1.41l5-5
				c0.39-0.39,1.02-0.39,1.41,0l5,5c0.39,0.39,0.39,1.02,0,1.41C21.51,18.9,21.26,19,21,19z"/>
		</g>
	</g>
	<g>
		<g>
			<path d="M27,28H5c-0.55,0-1-0.45-1-1V5c0-0.55,0.45-1,1-1h22c0.55,0,1,0.45,1,1v22C28,27.55,27.55,28,27,28z M6,26h20V6H6V26z"/>
		</g>
	</g>
</g>
</svg>
