<?xml version="1.0" encoding="utf-8"?>
<!-- Generator: Adobe Illustrator 24.2.3, SVG Export Plug-In . SVG Version: 6.00 Build 0)  -->
<svg version="1.1" id="图层_1" xmlns="http://www.w3.org/2000/svg" xmlns:xlink="http://www.w3.org/1999/xlink" x="0px" y="0px"
	 viewBox="0 0 32 32" enable-background="new 0 0 32 32" xml:space="preserve">
<g>
	<g>
		<path d="M16.71,8.29c-0.39-0.39-1.02-0.39-1.41,0l-4,4c-0.39,0.39-0.39,1.02,0,1.41s1.02,0.39,1.41,0L15,11.41V27
			c0,0.55,0.45,1,1,1s1-0.45,1-1V11.41l2.29,2.29C19.49,13.9,19.74,14,20,14s0.51-0.1,0.71-0.29c0.39-0.39,0.39-1.02,0-1.41
			L16.71,8.29z"/>
	</g>
	<g>
		<path d="M26,4H6C5.45,4,5,4.45,5,5s0.45,1,1,1h20c0.55,0,1-0.45,1-1S26.55,4,26,4z"/>
	</g>
</g>
</svg>
