<?xml version="1.0" encoding="utf-8"?>
<!-- Generator: Adobe Illustrator 24.2.3, SVG Export Plug-In . SVG Version: 6.00 Build 0)  -->
<svg version="1.1" id="图层_1" xmlns="http://www.w3.org/2000/svg" xmlns:xlink="http://www.w3.org/1999/xlink" x="0px" y="0px"
	 viewBox="0 0 32 32" enable-background="new 0 0 32 32" xml:space="preserve">
<g>
	<g>
		<path d="M5.71,18.71L16,8.41l10.29,10.29C26.49,18.9,26.74,19,27,19s0.51-0.1,0.71-0.29c0.39-0.39,0.39-1.02,0-1.41l-11-11
			c-0.39-0.39-1.02-0.39-1.41,0l-11,11c-0.39,0.39-0.39,1.02,0,1.41S5.32,19.1,5.71,18.71z"/>
	</g>
	<g>
		<path d="M16.71,13.29c-0.39-0.39-1.02-0.39-1.41,0l-11,11c-0.39,0.39-0.39,1.02,0,1.41s1.02,0.39,1.41,0L16,15.41l10.29,10.29
			C26.49,25.9,26.74,26,27,26s0.51-0.1,0.71-0.29c0.39-0.39,0.39-1.02,0-1.41L16.71,13.29z"/>
	</g>
</g>
</svg>
