<?xml version="1.0" encoding="utf-8"?>
<!-- Generator: Adobe Illustrator 24.2.3, SVG Export Plug-In . SVG Version: 6.00 Build 0)  -->
<svg version="1.1" id="图层_1" xmlns="http://www.w3.org/2000/svg" xmlns:xlink="http://www.w3.org/1999/xlink" x="0px" y="0px"
	 viewBox="0 0 32 32" enable-background="new 0 0 32 32" xml:space="preserve">
<g>
	<g>
		<path d="M27,22c-0.55,0-1,0.45-1,1v3H6v-3c0-0.55-0.45-1-1-1s-1,0.45-1,1v4c0,0.55,0.45,1,1,1h22c0.55,0,1-0.45,1-1v-4
			C28,22.45,27.55,22,27,22z"/>
	</g>
	<g>
		<path d="M10.71,11.71L15,7.41V22c0,0.55,0.45,1,1,1s1-0.45,1-1V7.41l4.29,4.29C21.49,11.9,21.74,12,22,12s0.51-0.1,0.71-0.29
			c0.39-0.39,0.39-1.02,0-1.41l-6-6c-0.01-0.01-0.02-0.01-0.03-0.02c-0.09-0.08-0.18-0.15-0.29-0.2c0,0,0,0,0,0
			c-0.01,0-0.02,0-0.03-0.01c-0.1-0.04-0.21-0.06-0.31-0.06c-0.04,0-0.07,0-0.1,0.01c-0.08,0.01-0.17,0.02-0.25,0.05
			c-0.03,0.01-0.07,0.02-0.1,0.03c-0.11,0.05-0.21,0.11-0.3,0.2l-6,6c-0.39,0.39-0.39,1.02,0,1.41S10.32,12.1,10.71,11.71z"/>
	</g>
</g>
</svg>
