<?xml version="1.0" encoding="utf-8"?>
<!-- Generator: Adobe Illustrator 24.2.3, SVG Export Plug-In . SVG Version: 6.00 Build 0)  -->
<svg version="1.1" id="图层_1" xmlns="http://www.w3.org/2000/svg" xmlns:xlink="http://www.w3.org/1999/xlink" x="0px" y="0px"
	 viewBox="0 0 32 32" enable-background="new 0 0 32 32" xml:space="preserve">
<g>
	<g>
		<path d="M23.95,10.06C23.48,6.09,20.09,3,16,3s-7.48,3.09-7.95,7.06C4.64,10.53,2,13.46,2,17c0,3.86,3.14,7,7,7h2
			c0.55,0,1-0.45,1-1s-0.45-1-1-1H9c-2.76,0-5-2.24-5-5s2.24-5,5-5c0.55,0,1-0.45,1-1c0-3.31,2.69-6,6-6s6,2.69,6,6
			c0,0.55,0.45,1,1,1c2.76,0,5,2.24,5,5s-2.24,5-5,5h-2c-0.55,0-1,0.45-1,1s0.45,1,1,1h2c3.86,0,7-3.14,7-7
			C30,13.46,27.36,10.53,23.95,10.06z"/>
	</g>
	<g>
		<path d="M20,19c0.26,0,0.51-0.1,0.71-0.29c0.39-0.39,0.39-1.02,0-1.41l-4-4c-0.39-0.39-1.02-0.39-1.41,0l-4,4
			c-0.39,0.39-0.39,1.02,0,1.41s1.02,0.39,1.41,0L15,16.41V28c0,0.55,0.45,1,1,1s1-0.45,1-1V16.41l2.29,2.29
			C19.49,18.9,19.74,19,20,19z"/>
	</g>
</g>
</svg>
