<?xml version="1.0" encoding="utf-8"?>
<!-- Generator: Adobe Illustrator 24.2.3, SVG Export Plug-In . SVG Version: 6.00 Build 0)  -->
<svg version="1.1" id="图层_1" xmlns="http://www.w3.org/2000/svg" xmlns:xlink="http://www.w3.org/1999/xlink" x="0px" y="0px"
	 viewBox="0 0 32 32" enable-background="new 0 0 32 32" xml:space="preserve">
<g>
	<path d="M19.85,17.71c2.2-1.43,3.65-3.9,3.65-6.71c0-4.41-3.59-8-8-8s-8,3.59-8,8c0,2.97,1.64,5.57,4.05,6.95
		C7.7,19.66,5,23.52,5,28c0,0.55,0.45,1,1,1s1-0.45,1-1c0-4.96,4.04-9,9-9s9,4.04,9,9c0,0.55,0.45,1,1,1s1-0.45,1-1
		C27,23.29,24.02,19.27,19.85,17.71z M9.5,11c0-3.31,2.69-6,6-6s6,2.69,6,6s-2.69,6-6,6S9.5,14.31,9.5,11z"/>
</g>
</svg>
