<svg xmlns="http://www.w3.org/2000/svg" viewBox="0 0 32 32"><title>人事管理</title><g id="图层_3" data-name="图层 3"><g id="group-line"><path id="路径_14" data-name="路径 14" class="cls-2" d="M3.6,30.06a1.34,1.34,0,0,1-1.33-1.5,10.67,10.67,0,0,1,21.13,0,1.34,1.34,0,0,1-1.34,1.5h0a1.33,1.33,0,0,1-1.31-1.16,8,8,0,0,0-15.83,0A1.34,1.34,0,0,1,3.6,30.06Zm9.23-12a8,8,0,1,1,8-8,8,8,0,0,1-8,8Zm0-2.67A5.33,5.33,0,1,0,7.5,10.06h0a5.33,5.33,0,0,0,5.33,5.33Zm11,4.94a10.66,10.66,0,0,1,6.18,8.25,1.32,1.32,0,0,1-1.33,1.48h0a1.35,1.35,0,0,1-1.32-1.17,8,8,0,0,0-4.63-6.13l1.1-2.43ZM23,5.28a7.33,7.33,0,0,1-2.13,14.08V16.68a4.67,4.67,0,0,0,1.39-8.81Z"/></g></g></svg>