<?xml version="1.0" encoding="utf-8"?>
<!-- Generator: Adobe Illustrator 24.2.3, SVG Export Plug-In . SVG Version: 6.00 Build 0)  -->
<svg version="1.1" id="图层_1" xmlns="http://www.w3.org/2000/svg" xmlns:xlink="http://www.w3.org/1999/xlink" x="0px" y="0px"
	 viewBox="0 0 32 32" enable-background="new 0 0 32 32" xml:space="preserve">
<g opacity="0">
	<rect y="0" fill="#333333" width="32" height="32"/>
</g>
<g>
	<path d="M2,6c0-0.55,0.45-1,1-1h26c0.55,0,1,0.45,1,1s-0.45,1-1,1H3C2.45,7,2,6.55,2,6z M3,17h19c0.55,0,1-0.45,1-1s-0.45-1-1-1H3
		c-0.55,0-1,0.45-1,1S2.45,17,3,17z M10,25H3c-0.55,0-1,0.45-1,1s0.45,1,1,1h7c0.55,0,1-0.45,1-1S10.55,25,10,25z M28.29,15.29
		L18,25.59l-4.29-4.29c-0.39-0.39-1.02-0.39-1.41,0s-0.39,1.02,0,1.41l5,5C17.49,27.9,17.74,28,18,28s0.51-0.1,0.71-0.29l11-11
		c0.39-0.39,0.39-1.02,0-1.41S28.68,14.9,28.29,15.29z"/>
</g>
</svg>
