<?xml version="1.0" encoding="utf-8"?>
<!-- Generator: Adobe Illustrator 24.2.3, SVG Export Plug-In . SVG Version: 6.00 Build 0)  -->
<svg version="1.1" id="图层_1" xmlns="http://www.w3.org/2000/svg" xmlns:xlink="http://www.w3.org/1999/xlink" x="0px" y="0px"
	 viewBox="0 0 32 32" enable-background="new 0 0 32 32" xml:space="preserve">
<g>
	<path d="M16,2C8.27,2,2,8.27,2,16s6.27,14,14,14s14-6.27,14-14S23.73,2,16,2z M15,9c0-0.55,0.45-1,1-1s1,0.45,1,1v8
		c0,0.55-0.45,1-1,1s-1-0.45-1-1V9z M17.06,22.57c-0.15,0.13-0.3,0.24-0.49,0.31c-0.56,0.24-1.22,0.09-1.64-0.31
		c-0.13-0.15-0.24-0.3-0.31-0.5c-0.07-0.18-0.12-0.38-0.12-0.57s0.05-0.39,0.12-0.57c0.08-0.18,0.18-0.34,0.31-0.5
		c0.15-0.13,0.31-0.24,0.5-0.31S15.81,20,16,20c0.41,0,0.78,0.15,1.06,0.44c0.14,0.15,0.24,0.31,0.32,0.5
		c0.07,0.18,0.12,0.38,0.12,0.57C17.5,21.89,17.34,22.28,17.06,22.57z"/>
</g>
</svg>
