<?xml version="1.0" encoding="utf-8"?>
<!-- Generator: Adobe Illustrator 24.2.3, SVG Export Plug-In . SVG Version: 6.00 Build 0)  -->
<svg version="1.1" id="图层_1" xmlns="http://www.w3.org/2000/svg" xmlns:xlink="http://www.w3.org/1999/xlink" x="0px" y="0px"
	 viewBox="0 0 32 32" enable-background="new 0 0 32 32" xml:space="preserve">
<g>
	<g>
		<g>
			<path d="M16,30C8.28,30,2,23.72,2,16S8.28,2,16,2s14,6.28,14,14S23.72,30,16,30z M16,4C9.38,4,4,9.38,4,16s5.38,12,12,12
				s12-5.38,12-12S22.62,4,16,4z"/>
		</g>
	</g>
	<g>
		<g>
			<path d="M16,19c-0.55,0-1-0.45-1-1v-8c0-0.55,0.45-1,1-1s1,0.45,1,1v8C17,18.55,16.55,19,16,19z"/>
		</g>
	</g>
	<g>
		<g>
			<path d="M16,23c-0.26,0-0.52-0.11-0.71-0.29C15.11,22.52,15,22.26,15,22c0-0.26,0.11-0.52,0.29-0.71c0.37-0.37,1.04-0.37,1.42,0
				C16.89,21.48,17,21.73,17,22c0,0.13-0.03,0.26-0.08,0.38c-0.05,0.13-0.12,0.23-0.21,0.33C16.52,22.89,16.26,23,16,23z"/>
		</g>
	</g>
</g>
</svg>
