<?xml version="1.0" standalone="no"?><!DOCTYPE svg PUBLIC "-//W3C//DTD SVG 1.1//EN" "http://www.w3.org/Graphics/SVG/1.1/DTD/svg11.dtd"><svg t="1606891634346" class="icon" viewBox="0 0 1294 1024" version="1.1" xmlns="http://www.w3.org/2000/svg" p-id="3250" xmlns:xlink="http://www.w3.org/1999/xlink" width="252.734375" height="200"><defs><style type="text/css"></style></defs><path d="M431.158 26.95C193.982 26.95 0 189.65 0 392.925c0 120.519 68.875 230.65 181.686 298.618l-12.256-29.537c-1.052 4.264-8.94 37.29-10.935 44.89-6.826 25.999-12.399 36.846-25.315 48.574-3.811 3.46-8.373 7.05-13.88 10.9-8.789 6.142-14.67 11.14-18.667 16.674-13.791 19.09-2.616 44.653 21.456 46.361 10.83 0.769 25.921-3.613 47.757-12.287 43.477-17.27 99.993-47.017 149-79.973l-22.261 3.6c43.071 11.983 88.345 18.155 134.573 18.155 41.148 0 81.552-4.89 120.34-14.427 17.079-4.199 25.623-23.367 17.33-38.876-19.61-36.67-29.88-76.675-29.88-117.966 0-139.65 118.777-258.564 277.915-278.015 17.641-2.156 28.4-20.499 21.673-36.949C778.634 126.202 615.699 26.95 431.158 26.95z m0 53.895c163.527 0 306.256 86.942 357.494 212.224l21.672-36.95c-184.897 22.6-325.271 163.136-325.271 331.512 0 50.267 12.507 98.985 36.249 143.382l17.329-38.876c-34.576 8.501-70.66 12.868-107.473 12.868-41.349 0-81.763-5.51-120.128-16.183a26.947 26.947 0 0 0-22.26 3.6c-45.806 30.804-98.909 58.755-138.82 74.608-13.632 5.415-24.534 8.58-24.047 8.615 18.836 1.337 28.924 24.416 18.417 38.96-0.555 0.767 1.754-1.194 5.855-4.06 7.292-5.098 13.631-10.088 19.234-15.174 21.811-19.804 31.969-39.577 41.214-74.788 2.177-8.291 10.209-41.923 11.132-45.667a26.947 26.947 0 0 0-12.256-29.537C112.16 586.732 53.895 493.567 53.895 392.925c0-171.205 167.96-312.08 377.263-312.08z m862.316 538.098c0-172.345-170.029-309.47-377.263-309.47-207.235 0-377.264 137.125-377.264 309.47 0 170.51 166.571 306.844 371.32 309.433l-16.41-5.837c45.119 35.81 104.698 60.04 160.716 70.243 23.18 4.221 43.343 5.446 56.471 3.068 38.428-6.963 36.864-45.729 6.31-61.746-10.476-5.491-15.277-11.067-22.155-25.223-1.15-2.369-13.717-30.415-19.172-41.386l-15.475 37.517c139.215-47.21 232.922-158.826 232.922-286.069z m-53.895 0c0 102.321-77.614 194.768-196.335 235.03-15.454 5.24-22.74 22.905-15.475 37.517 4.844 9.742 17.275 37.488 18.955 40.945 11.53 23.728 23.786 37.964 45.607 49.403-2.958-1.55-5.826-4.151-6.286-15.537-0.686-17.002 7.742-22.097 15.391-23.483-5.406 0.98-19.85 0.102-37.207-3.059-47.883-8.72-99.335-29.647-136.869-59.436a26.947 26.947 0 0 0-16.411-5.837c-177.466-2.244-318.107-117.354-318.107-255.543 0-139.72 143.655-255.575 323.369-255.575 179.713 0 323.368 115.855 323.368 255.575zM242.526 323.371c29.766 0 53.895-24.13 53.895-53.895 0-29.765-24.13-53.894-53.895-53.894-29.765 0-53.894 24.13-53.894 53.894 0 29.766 24.13 53.895 53.894 53.895z m538.948 269.474c29.765 0 53.894-24.13 53.894-53.895 0-29.765-24.13-53.895-53.894-53.895-29.766 0-53.895 24.13-53.895 53.895 0 29.765 24.13 53.895 53.895 53.895zM565.894 323.37c29.766 0 53.895-24.13 53.895-53.895 0-29.765-24.129-53.894-53.894-53.894-29.766 0-53.895 24.13-53.895 53.894 0 29.766 24.13 53.895 53.895 53.895z m485.053 269.474c29.766 0 53.895-24.13 53.895-53.895 0-29.765-24.13-53.895-53.895-53.895-29.765 0-53.894 24.13-53.894 53.895 0 29.765 24.13 53.895 53.894 53.895z" fill="" p-id="3251"></path></svg>