<?xml version="1.0" encoding="UTF-8"?>
<svg width="16px" height="16px" viewBox="0 0 16 16" version="1.1" xmlns="http://www.w3.org/2000/svg" xmlns:xlink="http://www.w3.org/1999/xlink">
    <title>weixinkaifangpingtai</title>
    <g id="页面-1" stroke="none" stroke-width="1" fill="none" fill-rule="evenodd">
        <g id="各个平台图标" transform="translate(-839.000000, -240.000000)">
            <g id="weixinkaifangpingtai" transform="translate(839.000000, 240.000000)">
                <rect id="矩形" fill="#000000" opacity="0" x="0" y="0" width="16" height="16"></rect>
                <path d="M10.5208688,6.43351385 C10.6808556,6.43351385 10.8408423,6.44825202 11,6.46217784 C10.571861,4.48054736 8.42414083,3 5.97758004,3 C3.24174868,3.00957401 1,4.853774 1,7.19553213 C1,8.5455829 1.74726895,9.6590542 2.9885624,10.5211353 L2.48752758,12 L4.2298704,11.1388037 C4.85408046,11.2605822 5.35515892,11.3823606 5.97142782,11.3823606 C6.13141456,11.3823606 6.2835474,11.3753977 6.43559298,11.3614429 C6.33678429,11.0251561 6.28560215,10.6767422 6.28353286,10.3263188 C6.29058682,8.17939171 8.15601761,6.43438422 10.5217706,6.43438422 L10.5208979,6.43351385 L10.5208688,6.43351385 Z M7.54489729,5 C7.8205275,5 8,5.19717218 8,5.49997651 C8,5.79577002 7.8205275,6 7.54489729,6 C7.2749939,6 7,5.80212321 7,5.49996477 C7,5.19717218 7.2749939,5 7.54489729,5 L7.54489729,5 Z M4.54483943,6 C4.27563314,6 4,5.80212321 4,5.49996477 C4,5.19717218 4.27563314,5 4.54483943,5 C4.81474568,5 5,5.19717218 5,5.49997651 C5,5.79577002 4.820515,6 4.54483943,6 Z M15,10.2730802 C15,8.47212734 13.1202988,7 10.9995532,7 C8.76336525,7 7,8.47212734 7,10.2730802 C7,12.0804192 8.76336525,13.5469571 10.9995532,13.5469571 C11.4666017,13.5469571 11.9402355,13.4354986 12.4130995,13.3232436 L13.7027896,14 L13.3463029,12.8757637 C14.2936393,12.1863014 15,11.2850084 15,10.2730802 L15,10.2730802 Z M9.44528887,9.99998537 C9.22656068,9.99998537 9,9.7543739 9,9.5 C9,9.25438853 9.22656068,9 9.44528887,9 C9.78120719,9 10,9.24648917 10,9.5 C10,9.75438853 9.78120719,10 9.44528887,10 L9.44528887,9.99998537 Z M12.4418547,9.99998537 C12.2209534,9.99998537 12,9.7543739 12,9.5 C12,9.25438853 12.22016,9 12.4418547,9 C12.7791117,9 13,9.24648917 13,9.5 C13,9.75438853 12.7791117,10 12.4418547,10 L12.4418547,9.99998537 Z" id="形状" fill="#09BB07" fill-rule="nonzero"></path>
            </g>
        </g>
    </g>
</svg>