<svg xmlns="http://www.w3.org/2000/svg" viewBox="0 0 32 32"><title>CN</title><g id="图层_3" data-name="图层 3"><g class="cls-1"><path class="cls-2" d="M15.22,11.92l-2.38,1.46a4.14,4.14,0,0,0-3.58-1.91A4.28,4.28,0,0,0,4.88,16a4.29,4.29,0,0,0,4.38,4.54,4.24,4.24,0,0,0,3.61-1.91l2.26,1.63a6.91,6.91,0,0,1-5.85,2.93A7,7,0,0,1,2,16,7,7,0,0,1,9.28,8.81,6.74,6.74,0,0,1,15.22,11.92Z"/><polygon class="cls-2" points="30 22.93 27.41 22.93 20.38 13.67 20.37 22.93 17.6 22.93 17.6 9.07 20.19 9.07 27.23 18.33 27.23 9.07 30 9.07 30 22.93"/></g></g></svg>