<?xml version="1.0" encoding="utf-8"?>
<!-- Generator: Adobe Illustrator 24.2.3, SVG Export Plug-In . SVG Version: 6.00 Build 0)  -->
<svg version="1.1" id="图层_1" xmlns="http://www.w3.org/2000/svg" xmlns:xlink="http://www.w3.org/1999/xlink" x="0px" y="0px"
	 viewBox="0 0 32 32" enable-background="new 0 0 32 32" xml:space="preserve">
<g>
	<g>
		<path d="M30.71,28.29l-4.85-4.85C27.81,21.17,29,18.22,29,15c0-7.17-5.83-13-13-13S3,7.83,3,15s5.83,13,13,13
			c3.22,0,6.17-1.19,8.45-3.14l4.85,4.85C29.49,29.9,29.74,30,30,30s0.51-0.1,0.71-0.29C31.1,29.32,31.1,28.68,30.71,28.29z M16,26
			C9.93,26,5,21.07,5,15S9.93,4,16,4s11,4.93,11,11S22.07,26,16,26z"/>
	</g>
	<g>
		<path d="M20,14h-3v-3c0-0.55-0.45-1-1-1s-1,0.45-1,1v3h-3c-0.55,0-1,0.45-1,1s0.45,1,1,1h3v3c0,0.55,0.45,1,1,1s1-0.45,1-1v-3h3
			c0.55,0,1-0.45,1-1S20.55,14,20,14z"/>
	</g>
</g>
</svg>
